<?xml version="1.0" encoding="UTF-8" ?>
<!DOCTYPE svg PUBLIC "-//W3C//DTD SVG 1.1//EN" "http://www.w3.org/Graphics/SVG/1.1/DTD/svg11.dtd">
<svg width="350pt" height="374pt" viewBox="0 0 350 374" version="1.1" xmlns="http://www.w3.org/2000/svg">
<path fill="#ffffff" d=" M 0.00 0.00 L 350.00 0.00 L 350.00 374.00 L 0.00 374.00 L 0.00 0.00 Z" />
<path fill="#000000" d=" M 106.93 14.05 C 108.17 12.26 110.49 13.02 111.83 14.24 C 118.81 19.49 127.42 22.13 134.14 27.76 C 139.92 32.44 142.38 39.86 143.94 46.87 C 152.23 41.66 162.32 41.14 171.11 37.16 C 174.29 35.76 176.98 33.53 179.68 31.39 C 180.17 31.82 181.14 32.67 181.63 33.09 C 181.42 37.12 179.90 40.97 179.87 45.03 C 178.96 52.96 179.13 61.63 174.34 68.43 C 168.32 76.45 158.98 82.95 148.59 82.64 C 154.92 105.16 148.35 128.31 146.98 151.02 C 146.99 157.47 145.68 164.72 149.65 170.35 C 154.44 176.10 162.37 177.09 168.78 180.24 C 176.83 171.22 186.92 164.03 193.69 153.91 C 194.08 152.90 194.47 151.89 194.86 150.88 C 195.82 148.13 196.56 145.31 196.82 142.40 L 197.34 142.55 C 197.51 138.50 197.65 134.46 197.75 130.41 C 197.29 130.56 196.36 130.85 195.90 131.00 C 195.47 130.41 194.60 129.22 194.17 128.63 C 194.45 128.67 195.02 128.75 195.30 128.79 C 195.43 125.54 195.42 122.28 195.75 119.04 C 196.42 117.04 196.68 114.95 197.23 112.92 C 197.52 111.55 197.88 110.19 198.30 108.85 C 198.35 108.39 198.44 107.48 198.48 107.03 C 195.47 110.19 192.85 114.26 188.49 115.62 C 187.84 110.96 188.97 106.35 190.02 101.85 C 190.33 100.26 190.60 98.67 190.91 97.08 C 191.32 96.00 191.75 94.92 192.19 93.85 C 192.29 93.35 192.50 92.35 192.60 91.85 C 193.13 90.58 193.62 89.29 194.14 88.00 C 194.63 86.92 195.14 85.85 195.65 84.77 C 195.91 84.29 196.45 83.31 196.71 82.83 C 200.29 77.53 205.55 72.85 212.11 72.01 C 216.51 71.07 221.07 71.52 225.43 72.50 C 229.31 73.58 232.16 76.55 234.64 79.56 C 240.53 72.65 250.21 70.24 258.91 72.04 C 265.90 72.76 270.52 78.85 273.69 84.55 C 279.41 94.84 283.41 106.50 283.38 118.37 C 282.57 119.42 281.91 120.65 280.78 121.40 C 277.29 120.75 275.47 117.39 273.25 114.98 C 273.69 123.11 276.81 131.59 273.84 139.53 C 273.40 139.32 272.51 138.90 272.07 138.70 C 271.71 147.16 270.71 155.58 269.99 164.00 C 270.03 168.67 269.54 174.19 272.82 177.96 C 279.11 175.53 286.15 175.94 292.27 178.69 C 299.71 182.06 306.92 187.85 308.85 196.17 C 312.79 212.55 299.27 228.42 305.51 244.60 C 310.74 246.29 316.62 248.66 318.39 254.46 C 319.70 260.43 320.15 266.80 318.62 272.79 C 317.32 276.97 314.51 280.41 312.40 284.18 C 310.74 286.95 309.48 290.00 307.30 292.42 C 306.33 293.53 304.82 293.60 303.75 292.58 C 301.11 287.88 300.53 282.39 298.38 277.49 C 295.92 271.61 291.05 266.61 290.60 260.01 C 290.09 256.25 293.33 252.80 291.60 249.13 C 288.13 235.44 295.71 222.52 297.78 209.27 C 298.32 204.36 299.01 198.57 295.43 194.57 C 291.88 190.97 286.39 191.13 281.72 190.79 C 285.09 198.07 285.05 206.16 285.73 213.99 C 286.01 224.46 283.76 235.22 278.12 244.16 C 277.31 245.65 276.01 247.06 276.04 248.86 C 275.87 257.35 275.06 265.83 275.13 274.32 C 283.21 279.36 285.42 293.09 277.00 298.82 C 276.92 308.20 276.95 317.61 278.03 326.94 C 278.99 330.38 280.76 333.54 281.91 336.93 C 284.08 342.75 285.04 348.91 285.88 355.04 C 285.33 355.67 284.78 356.31 284.23 356.95 C 262.16 357.84 240.10 359.01 218.02 359.71 C 213.44 360.32 211.65 354.86 212.51 351.22 C 209.78 351.17 206.22 352.31 204.37 349.63 C 201.63 346.46 203.19 341.66 205.87 338.97 C 209.22 335.07 214.38 333.85 218.91 331.96 C 228.67 325.08 240.86 323.99 252.10 321.09 C 252.20 311.18 251.43 301.30 250.99 291.40 C 246.89 288.82 242.87 285.14 242.30 280.06 C 241.56 275.80 244.16 272.14 246.26 268.72 C 246.49 265.91 246.22 263.08 246.16 260.27 C 242.28 259.17 238.65 257.39 235.27 255.20 C 219.66 258.44 203.36 259.60 187.67 256.24 C 187.30 263.18 186.67 270.14 187.09 277.10 C 191.35 280.40 194.44 285.46 194.04 291.01 C 194.39 295.21 192.13 298.99 188.91 301.49 C 189.16 311.23 188.25 321.13 190.12 330.75 C 194.02 339.36 196.70 348.45 197.67 357.87 C 196.80 358.50 196.24 359.77 195.05 359.81 C 173.02 360.53 151.00 361.92 128.96 362.44 C 124.79 362.41 123.51 357.36 124.25 353.99 C 122.05 353.99 119.85 354.00 117.66 354.02 C 115.43 352.02 113.77 348.98 115.08 345.98 C 117.41 339.73 124.11 336.81 130.07 335.07 C 140.05 327.99 152.47 326.81 163.97 323.77 C 163.72 313.93 163.30 304.09 162.73 294.26 C 158.77 291.55 154.65 288.01 154.06 282.93 C 153.40 278.66 155.68 274.77 158.13 271.49 C 158.17 261.78 157.41 252.10 156.99 242.41 C 151.94 237.13 150.62 229.61 150.47 222.58 C 134.20 221.72 118.25 213.57 108.99 200.01 C 101.55 189.12 97.19 175.17 100.71 162.10 C 97.53 164.62 93.92 166.50 90.20 168.11 C 86.33 179.48 81.44 190.69 74.28 200.40 C 69.35 206.91 62.62 213.08 54.09 213.72 C 45.43 214.25 37.77 208.84 32.30 202.62 C 23.46 192.49 18.09 179.41 17.04 166.02 C 16.53 159.41 18.08 152.79 20.87 146.82 C 23.86 140.34 27.21 133.84 32.21 128.65 C 30.97 125.40 32.12 121.97 34.30 119.44 C 38.11 115.06 42.90 111.01 48.79 110.03 C 54.74 108.91 59.58 104.98 63.86 100.93 C 56.60 98.15 50.70 91.98 48.83 84.36 C 45.37 72.60 51.91 58.83 63.46 54.48 C 69.95 51.72 77.49 52.91 83.46 56.41 C 88.94 49.17 97.77 44.67 106.91 45.21 C 107.17 37.49 109.27 29.85 108.55 22.10 C 108.33 19.35 107.30 16.77 106.93 14.05 Z" />
<path fill="#9d836a" d=" M 112.14 18.98 C 118.47 23.04 125.66 25.69 131.58 30.39 C 137.25 34.93 139.25 42.35 140.57 49.16 C 138.17 52.37 136.44 56.02 135.43 59.90 C 131.18 56.40 125.34 55.55 121.49 51.51 C 118.45 48.45 114.40 46.83 110.42 45.40 C 111.38 36.63 113.06 27.84 112.14 18.98 Z" />
<path fill="#9d836a" d=" M 156.41 45.47 C 163.52 43.55 170.82 41.82 177.15 37.89 C 175.66 46.56 176.45 55.77 172.89 63.98 C 169.52 70.02 163.89 74.73 157.58 77.48 C 152.94 79.46 146.72 80.04 142.94 76.07 C 137.72 70.24 137.70 61.03 141.50 54.44 C 144.71 49.25 150.82 47.08 156.41 45.47 Z" />
<path fill="#ffffff" d=" M 101.14 49.13 C 108.60 47.70 116.60 50.67 121.39 56.54 C 129.86 66.33 128.93 82.64 119.38 91.40 C 113.86 96.82 105.25 98.65 97.98 96.02 C 88.15 92.64 81.32 82.37 81.82 72.01 C 81.98 61.15 90.38 50.99 101.14 49.13 Z" />
<path fill="#734d2e" d=" M 158.68 55.73 C 163.13 54.37 167.70 53.45 172.17 52.17 C 171.63 58.34 169.47 64.51 164.83 68.81 C 160.95 72.62 155.84 76.48 150.09 75.68 C 147.03 75.12 146.69 71.49 147.12 69.00 C 148.14 62.93 152.75 57.51 158.68 55.73 Z" />
<path fill="#ffffff" d=" M 59.99 59.93 C 66.19 55.11 75.10 55.02 81.76 58.99 C 77.34 67.19 77.10 77.31 81.23 85.68 C 75.52 89.02 71.20 94.08 66.16 98.23 C 59.64 96.46 54.29 91.21 52.22 84.82 C 49.16 76.00 52.42 65.42 59.99 59.93 Z" />
<path fill="#9d836a" d=" M 127.67 59.25 C 130.15 60.81 132.61 62.42 134.98 64.14 C 135.41 71.09 138.17 78.34 144.62 81.78 C 147.33 90.58 148.18 99.86 147.70 109.03 C 146.83 126.42 142.84 143.59 143.30 161.06 C 143.41 167.09 145.97 173.42 151.35 176.58 C 156.43 179.55 162.12 181.24 167.50 183.54 C 170.31 184.97 172.15 181.58 173.96 180.03 C 180.96 172.20 189.96 166.08 195.53 157.04 C 195.94 153.92 196.88 150.92 197.78 147.92 C 199.73 141.05 199.67 133.84 199.65 126.75 C 201.56 123.69 203.48 120.64 205.38 117.58 C 206.07 124.14 205.20 131.16 207.68 137.35 C 211.15 131.86 213.71 125.88 216.25 119.92 C 217.33 127.03 215.60 135.05 219.82 141.34 C 224.16 134.24 224.99 125.83 226.89 117.90 C 229.41 122.89 231.68 128.00 233.87 133.14 C 235.05 135.82 234.50 138.80 234.38 141.62 C 233.90 146.40 233.51 151.19 233.40 155.99 L 235.30 155.89 C 235.04 150.47 235.17 145.00 236.43 139.70 C 241.65 136.32 238.81 129.33 238.36 124.35 C 237.64 121.81 239.66 119.96 241.25 118.30 C 241.71 124.70 240.98 131.24 242.81 137.48 C 246.49 133.00 248.75 127.62 250.88 122.29 C 251.26 122.27 252.02 122.22 252.40 122.20 C 252.52 128.63 252.25 135.27 254.98 141.27 C 260.61 134.83 260.43 125.72 262.83 117.91 C 265.42 123.62 268.33 129.23 270.33 135.18 C 270.53 141.88 269.36 148.57 269.24 155.28 C 268.74 155.62 267.75 156.30 267.26 156.64 C 266.13 162.64 266.06 168.95 267.33 174.94 C 268.25 179.55 272.38 182.35 274.85 186.09 C 279.26 192.11 281.41 199.51 281.65 206.92 C 283.15 219.19 281.72 232.35 274.76 242.85 C 271.80 246.57 272.59 251.52 272.20 255.94 C 272.10 262.59 271.17 269.30 271.96 275.93 C 275.38 279.17 279.25 282.81 278.82 288.01 C 279.34 291.96 276.23 294.59 273.81 297.16 C 273.21 306.09 273.68 315.12 274.13 324.07 C 274.19 328.94 276.81 333.16 278.41 337.62 C 280.39 342.73 281.31 348.15 282.13 353.55 C 260.21 354.35 238.31 355.57 216.38 356.25 C 216.07 354.26 215.73 351.98 217.31 350.41 C 220.87 345.53 227.42 345.37 232.10 342.14 C 241.28 336.20 252.53 335.73 262.73 332.61 C 265.80 331.91 264.97 328.36 265.06 326.03 C 264.67 316.77 264.77 307.44 263.60 298.24 C 261.04 295.04 256.29 293.38 255.43 288.91 C 254.16 284.75 257.56 281.47 259.11 277.98 C 259.69 271.44 258.81 264.85 258.79 258.29 C 258.30 257.90 257.33 257.14 256.85 256.76 C 251.86 257.43 246.54 257.39 242.00 254.94 C 239.11 253.69 236.46 250.83 233.06 252.00 C 217.68 255.17 201.61 255.98 186.23 252.33 C 185.72 252.76 184.70 253.63 184.19 254.07 C 183.96 261.71 183.23 269.35 183.48 276.99 C 183.24 279.38 185.69 280.46 187.02 282.02 C 190.30 284.95 191.19 289.86 190.17 294.00 C 189.60 297.30 184.85 298.28 185.34 301.94 C 185.31 310.66 185.25 319.41 186.02 328.12 C 186.28 332.14 188.39 335.67 189.77 339.36 C 192.01 344.77 193.02 350.57 193.89 356.32 C 171.83 356.99 149.78 358.64 127.70 358.81 C 126.93 353.17 132.13 349.41 136.86 347.84 C 141.43 346.42 145.22 343.38 149.68 341.73 C 156.95 338.99 164.67 337.87 172.21 336.13 C 174.25 335.62 177.25 334.76 176.80 332.03 C 176.80 322.32 176.29 312.61 175.69 302.92 C 175.85 299.67 172.27 298.63 170.38 296.66 C 167.24 294.21 165.89 289.47 167.96 285.92 C 169.01 283.64 171.15 281.72 171.06 279.05 C 171.09 269.69 170.37 260.34 170.15 250.98 C 169.88 249.17 170.45 246.66 168.56 245.58 C 164.89 242.92 160.28 241.27 157.60 237.43 C 154.35 232.42 154.02 226.22 154.12 220.43 C 149.53 217.89 143.95 218.93 139.09 217.13 C 118.96 211.92 103.61 192.71 102.95 171.95 C 103.32 164.93 105.06 158.06 106.91 151.31 C 106.06 151.09 104.35 150.67 103.50 150.45 C 102.53 153.27 101.68 156.31 99.40 158.40 C 96.20 161.84 91.58 163.21 87.71 165.66 C 85.90 168.79 85.10 172.38 83.66 175.69 C 79.66 185.37 74.93 195.01 67.68 202.70 C 63.41 207.21 57.45 210.99 50.97 210.09 C 43.27 209.04 37.17 203.41 32.62 197.48 C 25.26 187.59 20.61 175.43 20.53 163.04 C 20.43 155.28 23.92 148.13 27.47 141.44 C 29.66 137.28 32.30 133.29 35.96 130.28 C 36.14 129.64 36.50 128.35 36.68 127.70 C 36.20 127.23 35.23 126.30 34.75 125.83 C 36.39 122.05 39.10 118.83 42.53 116.55 C 46.86 113.15 52.80 113.44 57.36 110.46 C 67.02 104.60 73.36 94.71 82.96 88.74 C 87.69 95.12 94.78 100.10 102.88 100.65 C 112.80 101.69 122.60 95.80 127.15 87.09 C 131.92 78.59 131.73 67.99 127.67 59.25 Z" />
<path fill="#000000" d=" M 92.34 72.41 C 97.35 69.77 103.97 74.46 102.91 80.08 C 102.52 85.30 95.83 88.38 91.57 85.38 C 86.71 82.62 87.19 74.59 92.34 72.41 Z" />
<path fill="#000000" d=" M 68.51 75.69 C 73.11 73.49 78.59 78.13 77.34 83.00 C 76.58 88.07 69.28 89.84 66.19 85.84 C 63.27 82.73 64.70 77.35 68.51 75.69 Z" />
<path fill="#734d2e" d=" M 200.33 82.31 C 206.51 74.69 217.73 73.46 226.57 76.45 C 232.42 79.09 235.73 85.07 238.64 90.49 C 242.71 99.17 246.32 108.59 245.53 118.36 C 240.94 116.31 238.88 111.50 235.29 108.29 C 234.59 117.45 238.29 126.25 237.46 135.42 C 233.28 128.26 231.71 119.62 226.21 113.27 C 223.71 121.06 223.33 129.47 219.64 136.88 C 217.85 129.54 219.60 121.56 216.14 114.62 C 213.33 120.27 211.65 126.47 207.97 131.68 C 207.32 125.52 207.88 119.27 206.85 113.16 C 205.08 112.72 204.39 114.46 203.58 115.63 C 201.54 119.03 199.58 122.48 197.28 125.73 C 197.41 119.50 198.59 113.30 200.85 107.50 C 202.36 104.16 204.47 101.06 205.21 97.40 C 198.96 100.69 195.67 107.38 190.17 111.63 C 191.71 101.43 193.60 90.51 200.33 82.31 Z" />
<path fill="#734d2e" d=" M 235.69 81.98 C 239.35 79.03 243.31 76.08 248.11 75.41 C 253.30 74.71 258.96 74.70 263.74 77.13 C 269.41 80.64 272.64 86.82 275.43 92.66 C 278.93 100.78 281.97 109.49 281.31 118.47 C 276.63 116.32 274.74 111.23 270.78 108.25 C 270.68 117.49 273.88 126.41 273.39 135.67 C 269.24 128.35 267.40 119.81 262.18 113.12 C 259.25 120.75 259.77 129.58 255.06 136.48 C 254.05 129.21 255.12 121.57 252.07 114.68 C 248.85 120.16 247.43 126.50 243.71 131.72 C 243.41 127.72 243.26 123.69 243.62 119.69 L 244.20 121.17 C 244.42 121.49 244.86 122.12 245.08 122.43 C 245.27 122.10 245.65 121.43 245.84 121.09 C 248.17 116.49 247.15 111.51 246.21 106.71 C 246.02 106.26 245.65 105.37 245.46 104.92 C 245.42 104.38 245.35 103.29 245.31 102.74 C 244.21 98.62 241.48 94.82 241.46 90.49 C 242.06 89.14 241.67 88.68 240.29 89.11 L 239.19 88.27 C 240.71 88.27 240.89 87.74 239.71 86.67 C 238.01 85.45 236.91 83.63 235.69 81.98 Z" />
<path fill="#9d836a" d=" M 239.71 86.67 C 240.89 87.74 240.71 88.27 239.19 88.27 C 239.32 87.87 239.58 87.07 239.71 86.67 Z" />
<path fill="#9d836a" d=" M 240.29 89.11 C 241.67 88.68 242.06 89.14 241.46 90.49 L 240.54 90.11 L 240.29 89.11 Z" />
<path fill="#734d2e" d=" M 237.43 115.74 C 239.25 114.55 239.59 118.35 237.87 118.53 C 236.49 118.44 236.60 116.43 237.43 115.74 Z" />
<path fill="#9d836a" d=" M 244.20 121.17 C 244.61 121.15 245.43 121.11 245.84 121.09 C 245.65 121.43 245.27 122.10 245.08 122.43 C 244.86 122.12 244.42 121.49 244.20 121.17 Z" />
<path fill="#000000" d=" M 39.83 140.14 C 42.86 140.56 46.47 140.72 48.35 143.54 C 50.75 146.34 50.43 150.19 50.31 153.61 C 49.58 150.53 49.31 147.17 47.38 144.54 C 45.69 141.96 42.48 141.30 39.83 140.14 Z" />
<path fill="#734d2e" d=" M 34.97 152.94 C 36.21 150.35 38.71 148.83 41.05 147.37 C 44.22 154.98 40.15 163.88 33.73 168.45 C 30.03 163.79 32.46 157.55 34.97 152.94 Z" />
<path fill="#9d836a" d=" M 275.31 180.63 C 280.78 179.35 286.61 179.73 291.65 182.30 C 298.41 185.48 304.94 191.18 305.82 199.03 C 307.21 212.08 299.67 224.10 300.29 237.11 C 300.40 240.25 301.36 243.27 302.26 246.26 C 299.89 247.41 297.54 248.57 295.18 249.74 C 291.50 235.66 299.63 222.53 301.39 208.86 C 302.15 202.99 302.12 195.97 297.47 191.62 C 292.69 187.36 285.86 187.51 279.86 187.18 C 278.35 184.99 276.83 182.81 275.31 180.63 Z" />
<path fill="#734d2e" d=" M 160.70 244.95 C 162.62 246.13 164.54 247.29 166.47 248.46 C 166.55 258.65 167.70 268.84 167.33 279.01 C 165.80 282.76 163.59 286.25 162.96 290.33 C 160.67 287.96 157.71 285.59 157.59 282.00 C 157.06 277.46 161.95 274.54 161.72 270.07 C 161.60 261.69 161.14 253.32 160.70 244.95 Z" />
<path fill="#734d2e" d=" M 303.00 249.83 C 308.37 247.11 314.91 251.95 315.51 257.55 C 316.30 263.55 316.78 270.19 313.50 275.58 C 310.92 279.97 308.19 284.28 305.73 288.74 C 303.77 282.73 302.37 276.42 298.96 271.01 C 296.61 266.83 293.35 262.40 294.27 257.33 C 294.77 252.93 299.56 251.43 303.00 249.83 Z" />
<path fill="#734d2e" d=" M 249.81 260.81 C 251.63 260.74 253.45 260.66 255.28 260.59 C 255.26 266.03 256.19 271.51 255.43 276.91 C 253.74 280.37 251.75 283.74 251.15 287.62 C 248.88 285.14 245.88 282.69 245.81 279.03 C 245.52 275.21 248.91 272.58 249.77 269.10 C 250.10 266.34 249.87 263.57 249.81 260.81 Z" />
<path fill="#734d2e" d=" M 254.68 295.36 C 256.54 296.86 258.42 298.35 260.30 299.83 C 260.99 309.67 261.34 319.53 261.51 329.40 C 251.12 332.01 240.00 333.07 230.69 338.80 C 226.71 341.37 221.82 342.11 218.03 345.00 C 215.00 348.11 210.62 347.91 206.62 347.81 C 205.78 342.45 210.54 338.69 215.13 337.29 C 220.79 335.67 225.33 331.65 230.94 329.94 C 236.64 328.03 242.55 326.89 248.43 325.70 C 250.84 325.09 253.49 324.72 255.41 323.01 C 256.03 313.81 255.21 304.55 254.68 295.36 Z" />
<path fill="#734d2e" d=" M 166.46 298.16 C 168.30 299.62 170.15 301.08 172.01 302.53 C 172.81 312.39 173.05 322.29 173.28 332.18 C 162.84 334.75 151.73 335.81 142.28 341.33 C 137.80 343.95 132.52 345.09 128.53 348.55 C 125.82 351.16 121.85 350.44 118.44 350.67 C 117.34 345.00 122.74 341.29 127.46 339.83 C 131.88 338.54 135.58 335.73 139.72 333.84 C 146.42 331.11 153.59 329.86 160.63 328.38 C 162.88 327.86 165.23 327.31 167.12 325.91 C 167.87 316.68 166.91 307.39 166.46 298.16 Z" />
</svg>
