<?xml version="1.0" encoding="UTF-8" ?>
<!DOCTYPE svg PUBLIC "-//W3C//DTD SVG 1.1//EN" "http://www.w3.org/Graphics/SVG/1.1/DTD/svg11.dtd">
<svg width="350pt" height="374pt" viewBox="0 0 350 374" version="1.1" xmlns="http://www.w3.org/2000/svg">
<g id="#000000ff">
<path fill="#000000" opacity="1.00" d=" M 238.29 14.31 C 239.56 13.21 241.95 12.27 242.91 14.24 C 242.30 17.83 241.01 21.33 241.17 25.03 C 241.30 31.81 242.40 38.54 243.18 45.27 C 248.08 45.43 253.06 46.09 257.39 48.54 C 257.41 48.55 257.44 48.57 257.46 48.58 C 260.96 50.55 263.91 53.34 266.33 56.52 C 270.57 54.41 275.18 52.64 280.01 53.13 C 292.43 53.81 302.34 65.78 301.91 77.98 C 302.09 88.00 295.40 97.48 285.99 100.86 C 290.17 104.94 294.96 108.86 300.84 110.03 C 307.19 111.17 312.52 115.49 316.36 120.50 C 318.26 122.87 318.46 125.94 317.62 128.77 C 323.48 134.60 327.03 142.25 330.23 149.75 C 335.03 161.18 332.70 174.15 328.22 185.28 C 324.38 194.36 318.76 203.03 310.68 208.87 C 305.19 212.89 297.85 214.97 291.23 212.68 C 283.82 210.19 278.37 204.10 274.04 197.86 C 267.85 188.70 263.41 178.47 259.88 168.02 C 256.08 166.43 252.47 164.41 249.18 161.92 C 252.70 175.46 248.19 189.91 240.17 200.98 C 230.85 213.96 215.26 221.66 199.42 222.46 C 199.16 228.52 198.43 234.93 194.82 240.02 C 193.85 241.72 191.44 241.79 190.60 243.62 C 188.42 245.24 186.04 246.61 183.36 247.20 C 183.00 247.83 182.27 249.07 181.90 249.69 C 183.93 255.23 186.61 260.51 189.22 265.78 C 190.69 268.97 194.89 269.25 196.77 272.09 C 198.19 274.20 199.27 276.52 200.45 278.77 C 199.94 279.70 199.43 280.64 198.92 281.58 C 198.99 284.30 197.87 286.76 196.42 289.00 C 200.06 298.57 204.99 307.57 209.48 316.75 C 220.51 314.10 231.44 309.55 243.01 310.51 C 249.16 310.87 256.40 308.48 261.70 312.53 L 262.79 311.82 C 264.60 314.84 266.76 320.41 262.55 322.42 C 243.55 332.12 223.90 340.48 204.82 350.01 C 203.32 351.09 201.55 350.62 199.93 350.20 C 198.10 344.51 196.00 338.86 195.24 332.90 C 194.37 328.21 194.99 323.25 192.91 318.83 C 189.55 310.99 185.31 303.55 181.37 295.99 C 174.27 295.30 170.01 287.93 170.16 281.32 C 168.91 281.76 167.66 282.20 166.42 282.66 C 164.34 284.42 161.61 284.65 159.01 284.90 C 154.06 293.83 150.18 303.28 145.40 312.30 C 153.65 319.48 163.99 324.52 170.36 333.70 C 173.08 337.93 177.67 340.64 179.83 345.30 C 181.98 348.55 183.00 353.79 179.63 356.59 C 177.79 358.47 174.78 357.96 172.62 356.96 C 164.96 353.26 157.21 349.73 149.67 345.78 C 146.03 343.58 141.82 345.64 137.99 346.04 C 121.89 348.23 105.89 351.32 89.84 353.57 C 89.49 353.21 88.79 352.50 88.45 352.14 C 87.94 346.45 88.03 340.71 88.35 335.02 C 88.56 330.61 90.40 326.40 90.28 321.97 C 89.24 312.89 87.15 303.97 85.29 295.04 C 79.78 292.87 77.96 286.90 77.51 281.53 C 73.52 282.26 69.48 282.33 65.45 282.33 C 57.87 288.53 51.37 295.98 44.62 303.05 C 44.76 305.63 47.20 307.49 48.48 309.65 C 53.96 317.30 59.61 325.18 61.81 334.49 C 64.93 339.84 66.85 345.88 66.43 352.14 C 64.47 355.22 60.02 358.52 56.67 355.38 C 40.99 340.37 26.06 324.59 10.49 309.47 C 8.87 308.50 9.21 306.15 10.56 305.12 C 16.42 299.77 23.24 295.51 30.55 292.46 C 33.81 291.19 36.38 288.79 38.93 286.48 C 36.64 281.46 32.61 277.28 31.25 271.84 C 30.11 266.49 30.48 260.91 31.42 255.56 C 32.77 249.59 38.63 245.98 44.36 245.17 C 46.27 240.70 46.74 235.75 46.02 230.97 C 44.50 219.95 39.25 209.27 40.90 197.96 C 42.54 187.31 52.43 180.04 62.23 177.28 C 67.08 175.73 72.14 176.56 76.93 177.86 C 79.51 176.96 79.32 173.36 79.92 171.11 C 80.81 160.53 78.21 150.07 77.86 139.51 C 76.94 138.74 75.32 138.38 75.32 136.91 C 74.35 129.81 76.19 122.81 76.76 115.77 C 76.38 115.97 75.60 116.38 75.22 116.59 C 73.39 118.92 71.28 121.57 67.92 120.91 C 66.39 117.19 67.22 113.17 66.68 109.32 C 65.93 106.98 65.52 102.91 68.91 102.59 C 70.06 100.02 70.48 97.27 70.68 94.52 C 73.07 92.37 73.76 89.10 75.35 86.42 C 78.23 81.28 81.51 75.69 87.15 73.23 C 96.71 69.79 108.60 71.62 115.29 79.75 C 117.63 76.81 120.32 73.85 124.05 72.75 C 131.43 70.74 139.93 71.06 146.40 75.50 C 146.42 75.52 146.46 75.54 146.47 75.55 C 153.46 80.30 156.55 88.65 158.65 96.47 C 160.15 102.61 161.90 108.85 161.58 115.24 C 158.23 114.83 156.04 112.05 154.33 109.42 C 153.39 108.94 152.49 108.30 151.42 108.19 C 153.80 115.51 154.87 123.15 154.90 130.83 C 154.20 130.84 152.79 130.85 152.09 130.86 C 152.78 141.00 153.79 151.97 160.75 160.01 C 167.18 167.14 174.75 173.16 181.12 180.37 C 187.08 177.59 193.95 176.37 199.03 171.96 C 204.17 167.09 203.35 159.41 203.21 152.99 C 202.22 129.55 194.94 105.70 201.59 82.47 C 196.31 82.69 191.12 81.16 186.64 78.41 C 186.63 78.40 186.59 78.38 186.57 78.37 C 181.42 75.01 176.63 70.68 173.85 65.11 C 169.87 55.92 171.28 45.58 168.84 36.02 C 168.55 34.77 167.87 31.78 170.14 32.14 C 171.48 31.84 172.29 33.25 173.33 33.82 C 182.84 41.39 196.06 40.57 206.15 47.05 C 207.43 41.12 209.34 35.06 213.31 30.34 C 220.17 22.91 230.37 20.28 238.29 14.31 M 216.73 31.67 C 212.39 36.37 210.19 42.81 209.48 49.08 C 211.40 52.62 213.70 56.03 214.37 60.11 C 217.14 58.14 220.14 56.54 223.32 55.35 C 226.59 54.22 228.53 51.14 231.37 49.33 C 233.85 47.50 237.02 46.97 239.56 45.29 C 239.10 36.42 236.77 27.57 238.26 18.66 C 231.15 23.09 222.98 25.96 216.73 31.67 M 172.83 37.84 C 174.11 45.55 173.81 53.50 175.97 61.06 C 177.21 65.57 180.51 69.12 183.93 72.15 C 188.15 75.74 193.29 78.69 198.94 79.01 C 202.36 79.28 205.94 77.85 207.96 75.02 C 212.22 69.07 212.09 60.67 208.50 54.45 C 205.61 49.72 200.18 47.47 195.10 45.92 C 187.53 43.71 179.58 42.18 172.83 37.84 M 239.38 49.54 C 228.53 52.44 221.73 64.10 222.89 74.99 C 223.47 86.42 233.12 97.44 245.01 97.20 C 258.82 97.38 270.00 83.34 268.03 69.92 C 266.84 56.52 252.62 45.63 239.38 49.54 M 268.23 59.03 C 272.68 67.20 272.89 77.34 268.76 85.69 C 274.51 88.97 278.77 94.17 283.90 98.21 C 292.01 96.04 298.07 88.41 298.80 80.11 C 299.96 70.27 293.75 59.85 284.13 56.94 C 278.82 55.18 273.01 56.30 268.23 59.03 M 214.23 66.85 C 213.63 70.77 212.62 74.89 209.71 77.78 C 207.82 79.87 204.64 81.09 204.27 84.21 C 197.43 109.95 207.49 136.00 206.28 161.95 C 205.95 166.40 204.54 171.03 201.20 174.15 C 195.52 179.31 187.53 180.39 180.94 183.98 C 177.65 181.30 174.85 178.11 171.81 175.17 C 165.73 169.10 158.98 163.59 153.94 156.55 C 154.13 156.31 154.49 155.83 154.68 155.59 C 150.16 146.50 149.71 136.03 150.16 126.08 C 148.35 123.30 147.36 119.89 144.57 117.86 C 143.85 123.94 143.53 130.06 143.12 136.16 C 138.30 132.30 137.92 125.17 133.80 120.68 C 131.75 127.10 134.29 134.79 130.10 140.47 C 125.93 133.61 125.69 125.43 123.22 117.98 C 119.20 122.94 117.43 129.31 115.27 135.21 C 115.68 142.25 116.49 149.36 116.08 156.44 C 113.03 151.31 114.53 145.07 113.98 139.40 C 113.51 139.21 112.56 138.83 112.09 138.64 C 109.04 133.15 112.60 126.90 111.72 121.13 C 111.66 119.27 109.64 119.15 108.31 118.61 C 108.28 124.45 107.87 130.28 107.57 136.11 C 107.16 135.87 106.35 135.39 105.94 135.15 C 103.10 130.99 101.65 126.07 99.08 121.78 L 97.39 121.24 C 97.04 127.45 97.36 133.80 95.30 139.76 C 94.94 139.73 94.23 139.67 93.87 139.63 C 92.05 135.53 90.44 131.31 89.69 126.88 C 89.00 123.95 88.91 120.72 87.06 118.22 C 83.47 123.57 81.44 129.86 79.03 135.82 C 80.61 138.81 79.86 142.29 80.52 145.49 C 82.51 155.12 84.40 165.17 82.31 174.95 C 81.45 179.29 77.62 181.93 75.23 185.38 C 71.39 190.80 68.59 197.16 68.28 203.87 C 67.16 214.04 66.83 224.66 70.60 234.37 C 72.34 239.85 76.31 244.23 78.05 249.71 C 77.78 252.62 75.33 254.60 73.26 256.37 C 70.61 257.11 67.68 256.08 65.07 257.15 C 59.66 259.21 55.35 264.98 57.13 270.91 C 51.97 277.40 45.98 283.22 40.21 289.18 C 35.15 295.04 27.02 296.26 20.97 300.75 C 18.16 302.95 14.85 304.67 12.79 307.68 C 17.27 312.02 21.93 316.19 26.18 320.77 C 32.25 327.71 39.58 333.41 45.53 340.45 C 50.04 344.74 54.27 349.35 59.04 353.34 C 62.27 354.63 63.62 350.43 63.63 347.95 C 64.10 342.80 60.17 338.85 59.04 334.07 C 56.99 326.37 52.47 319.65 47.84 313.27 C 45.43 309.95 42.88 306.68 41.26 302.88 C 47.98 295.44 54.89 288.13 62.25 281.31 C 66.09 276.85 72.86 282.06 77.03 277.99 C 80.35 275.43 81.13 271.25 81.49 267.33 C 84.77 263.71 87.89 259.75 92.00 257.05 C 95.98 257.10 100.04 258.02 103.95 256.82 C 107.67 256.07 110.69 253.67 114.05 252.08 C 121.99 253.03 129.86 254.92 137.91 254.95 C 146.33 254.97 155.14 255.45 163.06 252.04 C 166.70 257.49 169.61 263.36 172.83 269.05 C 173.61 270.64 174.71 272.17 174.92 273.97 C 174.40 276.33 173.23 278.50 172.88 280.91 C 173.05 285.02 174.59 289.39 178.04 291.87 C 179.94 293.22 183.20 292.42 184.18 294.97 C 188.26 302.60 192.33 310.27 195.87 318.18 C 197.32 321.36 197.29 324.92 197.63 328.33 C 198.12 335.03 199.83 341.68 202.68 347.77 C 210.52 343.75 218.48 339.98 226.55 336.47 C 237.81 330.50 249.79 326.06 260.92 319.86 C 262.71 319.24 262.55 316.74 261.28 315.67 C 256.76 310.82 249.80 313.04 244.09 313.14 C 231.91 311.67 220.55 317.38 208.78 319.25 C 206.22 318.07 205.71 314.86 204.36 312.63 C 200.83 304.77 196.18 297.34 193.72 289.05 C 195.49 284.83 198.75 279.83 195.64 275.40 C 193.96 270.97 187.84 271.24 186.42 266.63 C 183.81 260.62 180.15 254.92 178.78 248.47 C 182.47 244.35 188.07 242.77 191.84 238.78 C 195.75 233.73 196.47 226.97 196.16 220.79 C 197.25 219.88 198.45 219.10 199.95 219.25 C 209.33 218.81 218.55 215.67 226.24 210.30 C 237.96 202.37 245.55 188.97 247.24 175.02 C 247.69 166.98 245.51 159.06 243.46 151.36 C 244.46 151.26 245.47 151.16 246.48 151.07 C 247.65 159.11 255.68 162.77 262.17 165.86 C 266.88 178.34 271.81 191.15 280.64 201.38 C 284.80 206.13 290.33 210.57 296.97 210.51 C 305.20 210.59 311.92 204.71 316.86 198.71 C 324.75 188.57 329.74 175.90 329.82 162.98 C 329.91 155.17 326.39 147.99 322.82 141.25 C 320.51 137.29 318.32 132.96 314.37 130.36 C 314.28 129.84 314.11 128.79 314.02 128.27 C 314.63 126.76 315.48 125.02 314.54 123.44 C 312.79 120.32 309.93 117.97 307.10 115.86 C 303.08 112.81 297.64 113.15 293.42 110.50 C 283.26 104.73 276.97 94.18 266.88 88.29 C 261.40 96.23 251.76 101.59 241.97 100.18 C 230.31 98.89 221.22 88.36 219.89 76.99 C 218.86 71.01 220.47 65.05 222.35 59.42 C 219.03 60.90 214.40 62.56 214.23 66.85 M 87.25 76.22 C 80.30 79.63 77.03 87.16 73.49 93.59 C 72.95 93.80 71.88 94.21 71.34 94.42 C 71.51 95.13 71.85 96.55 72.02 97.25 C 71.23 99.57 70.43 101.89 69.92 104.30 L 68.35 103.40 C 67.19 105.04 66.39 107.41 68.30 108.86 C 68.37 111.91 68.26 114.96 68.23 118.00 C 73.65 118.12 75.29 111.81 78.60 108.62 C 79.21 117.64 75.54 126.35 76.25 135.41 C 77.19 134.84 77.91 134.07 78.39 133.10 C 81.41 126.63 83.63 119.72 87.63 113.76 C 89.71 120.21 90.32 127.04 92.49 133.46 C 92.81 134.99 93.99 135.94 95.40 136.46 C 95.92 130.80 96.03 125.09 96.81 119.45 C 96.98 118.05 97.84 116.89 98.43 115.65 C 100.79 120.93 101.66 127.34 106.30 131.24 C 106.96 127.67 107.10 124.03 107.22 120.40 C 106.50 120.51 105.06 120.74 104.35 120.85 C 102.18 116.84 102.76 112.28 103.20 107.94 C 104.60 98.44 108.76 89.58 114.34 81.82 C 107.54 74.47 96.40 72.98 87.25 76.22 M 124.81 75.62 C 120.25 76.89 117.15 80.82 114.53 84.52 C 109.55 92.35 106.20 101.20 104.50 110.31 C 103.96 112.91 104.05 115.59 104.85 118.13 C 109.71 116.80 110.97 111.46 114.68 108.74 C 114.71 117.36 111.74 125.72 112.12 134.38 C 113.16 133.99 113.92 133.30 114.39 132.33 C 117.60 126.23 119.50 119.44 123.45 113.74 C 125.68 120.17 126.15 127.05 128.43 133.45 C 128.77 134.89 129.85 135.89 131.04 136.68 C 131.79 130.91 131.70 125.06 132.54 119.30 C 132.66 117.88 133.56 116.75 134.22 115.55 C 136.67 120.97 137.51 127.73 142.33 131.65 C 142.93 125.34 142.66 118.94 143.81 112.68 C 146.64 116.49 148.69 120.89 152.29 124.08 C 151.51 115.92 150.62 107.09 145.38 100.41 C 145.37 99.77 145.35 98.49 145.34 97.84 C 151.42 101.02 153.90 108.44 160.08 111.40 C 158.16 100.59 156.22 88.89 148.37 80.59 C 142.33 74.38 132.81 73.61 124.81 75.62 M 112.13 119.11 C 113.51 118.82 113.32 116.35 112.72 115.37 C 111.38 115.67 111.56 118.11 112.13 119.11 M 109.97 116.33 C 108.44 119.32 113.30 116.43 109.97 116.33 M 48.54 189.49 C 42.47 196.00 43.57 205.68 45.56 213.62 C 48.13 224.19 52.21 235.58 47.68 246.23 C 50.07 247.40 52.46 248.55 54.86 249.70 C 58.41 235.86 50.62 222.92 48.70 209.52 C 47.87 203.63 47.71 196.68 52.07 192.05 C 56.78 187.39 63.90 187.47 70.07 187.21 C 71.51 185.12 73.00 183.07 74.53 181.05 C 65.26 177.50 54.91 182.66 48.54 189.49 M 54.96 194.04 C 51.35 197.32 51.48 202.66 51.84 207.12 C 53.27 221.14 61.89 234.54 58.32 248.91 C 57.08 251.66 58.28 254.42 59.19 257.05 C 63.02 254.54 67.50 252.89 72.14 253.80 C 74.17 251.70 75.00 248.44 73.10 245.95 C 65.41 234.65 63.16 220.39 64.95 207.01 C 65.12 201.37 66.24 195.79 68.50 190.61 C 63.91 191.02 58.67 190.83 54.96 194.04 M 35.49 254.37 C 33.79 258.33 33.99 262.79 34.03 267.02 C 34.00 273.45 38.44 278.49 41.56 283.72 C 44.17 280.98 47.23 278.50 48.90 275.01 C 50.12 272.59 51.29 270.12 53.02 268.01 C 53.35 268.29 54.01 268.85 54.34 269.13 C 53.58 264.84 56.91 260.90 55.55 256.61 C 54.72 252.55 50.09 251.45 46.88 249.81 C 42.69 247.55 37.55 250.53 35.49 254.37 M 114.51 255.13 C 110.27 258.08 105.37 260.31 100.10 260.15 C 100.38 263.47 100.79 266.79 101.76 269.99 C 105.94 273.21 107.78 278.12 108.44 283.20 C 105.88 286.19 104.72 290.16 101.51 292.66 C 102.66 297.25 102.36 302.06 103.57 306.64 C 104.83 311.92 105.33 317.34 106.53 322.64 C 109.58 322.54 112.79 323.21 115.74 322.30 C 118.29 319.24 120.19 315.66 123.00 312.81 C 126.34 308.90 130.93 306.04 133.35 301.39 C 137.09 294.54 139.99 287.28 143.19 280.17 C 144.59 277.53 142.44 274.84 142.43 272.14 C 142.33 264.67 148.32 257.55 155.97 257.18 C 153.21 257.66 150.42 257.92 147.64 258.31 C 144.27 257.89 140.87 257.90 137.51 258.24 C 129.80 257.52 122.12 256.56 114.51 255.13 M 153.28 260.22 C 147.35 262.38 142.93 269.91 146.07 275.86 C 147.60 278.23 145.64 280.67 144.83 282.92 C 141.28 290.31 138.60 298.20 134.07 305.07 C 127.66 311.76 119.88 318.06 116.96 327.18 C 124.07 330.16 131.03 333.48 137.78 337.19 C 143.62 340.04 149.62 342.57 155.33 345.70 C 162.09 349.45 169.33 352.24 176.17 355.82 C 179.00 354.43 180.07 351.13 178.76 348.28 C 177.66 343.29 173.02 340.67 170.05 336.94 C 166.18 331.58 161.44 326.83 156.08 322.97 C 152.05 319.92 147.50 317.51 143.88 313.95 C 142.77 311.11 145.08 308.42 146.09 305.88 C 149.99 298.17 153.01 289.98 157.93 282.83 C 162.97 282.90 168.48 280.34 170.00 275.20 C 170.63 275.38 171.27 275.58 171.91 275.77 C 169.33 268.43 166.17 261.31 161.87 254.80 C 159.14 256.80 156.54 259.11 153.28 260.22 M 92.17 260.28 C 89.24 262.32 87.03 265.21 84.64 267.82 C 86.11 273.26 80.34 276.76 80.41 281.99 C 80.24 286.03 81.85 290.49 85.73 292.28 C 88.11 293.14 88.13 295.88 88.65 297.97 C 89.89 305.30 91.82 312.51 92.60 319.91 C 93.21 324.68 91.55 329.28 90.97 333.95 C 90.03 339.48 90.40 345.10 90.70 350.66 C 98.51 350.07 106.11 347.93 113.92 347.23 C 124.27 345.40 134.66 343.72 145.10 342.51 C 138.83 341.53 134.16 336.81 128.42 334.47 C 124.12 331.86 118.40 331.89 114.88 328.01 C 113.67 326.72 115.09 325.26 115.49 323.96 C 112.38 325.50 108.69 325.77 105.47 324.40 C 103.87 323.15 103.81 320.88 103.42 319.06 C 102.18 310.01 99.69 301.10 99.45 291.94 C 102.24 288.51 106.02 284.94 105.42 280.07 C 105.26 276.20 102.09 273.76 99.79 271.07 C 98.09 267.67 98.04 263.74 97.48 260.05 C 95.71 260.09 93.90 259.81 92.17 260.28 M 170.06 277.44 C 169.17 278.62 169.41 279.32 170.79 279.53 C 171.67 278.34 171.43 277.64 170.06 277.44 Z" />
<path fill="#000000" opacity="1.00" d=" M 252.07 73.94 C 254.51 73.82 257.45 73.94 258.66 76.49 C 260.79 80.46 255.09 85.00 251.63 82.31 C 248.88 80.24 249.57 75.93 252.07 73.94 Z" />
<path fill="#000000" opacity="1.00" d=" M 276.25 78.22 C 278.78 77.20 281.92 79.28 282.01 82.00 C 282.18 85.33 277.28 87.56 275.13 84.83 C 273.01 82.99 273.97 79.48 276.25 78.22 Z" />
<path fill="#000000" opacity="1.00" d=" M 300.20 146.82 C 301.20 143.88 303.54 141.65 306.44 140.62 C 304.14 142.76 300.57 144.85 301.18 148.55 C 300.30 148.58 298.54 148.10 300.20 146.82 Z" />
</g>
<g id="#73685cff">
<path fill="#73685c" opacity="1.00" d=" M 216.73 31.67 C 222.98 25.96 231.15 23.09 238.26 18.66 C 236.77 27.57 239.10 36.42 239.56 45.29 C 237.02 46.97 233.85 47.50 231.37 49.33 C 228.53 51.14 226.59 54.22 223.32 55.35 C 220.14 56.54 217.14 58.14 214.37 60.11 C 213.70 56.03 211.40 52.62 209.48 49.08 C 210.19 42.81 212.39 36.37 216.73 31.67 Z" />
</g>
<g id="#9e846aff">
<path fill="#9e846a" opacity="1.00" d=" M 172.83 37.84 C 179.58 42.18 187.53 43.71 195.10 45.92 C 200.18 47.47 205.61 49.72 208.50 54.45 C 212.09 60.67 212.22 69.07 207.96 75.02 C 205.94 77.85 202.36 79.28 198.94 79.01 C 193.29 78.69 188.15 75.74 183.93 72.15 C 180.51 69.12 177.21 65.57 175.97 61.06 C 173.81 53.50 174.11 45.55 172.83 37.84 M 177.89 52.11 C 177.99 62.42 185.35 71.78 194.86 75.30 C 197.61 76.34 201.96 76.41 202.92 72.93 C 204.00 67.83 201.09 62.79 197.62 59.28 C 192.23 54.37 184.46 54.43 177.89 52.11 Z" />
<path fill="#9e846a" opacity="1.00" d=" M 214.23 66.85 C 214.40 62.56 219.03 60.90 222.35 59.42 C 220.47 65.05 218.86 71.01 219.89 76.99 C 221.22 88.36 230.31 98.89 241.97 100.18 C 251.76 101.59 261.40 96.23 266.88 88.29 C 276.97 94.18 283.26 104.73 293.42 110.50 C 297.64 113.15 303.08 112.81 307.10 115.86 C 309.93 117.97 312.79 120.32 314.54 123.44 C 315.48 125.02 314.63 126.76 314.02 128.27 C 314.11 128.79 314.28 129.84 314.37 130.36 C 318.32 132.96 320.51 137.29 322.82 141.25 C 326.39 147.99 329.91 155.17 329.82 162.98 C 329.74 175.90 324.75 188.57 316.86 198.71 C 311.92 204.71 305.20 210.59 296.97 210.51 C 290.33 210.57 284.80 206.13 280.64 201.38 C 271.81 191.15 266.88 178.34 262.17 165.86 C 255.68 162.77 247.65 159.11 246.48 151.07 C 245.47 151.16 244.46 151.26 243.46 151.36 C 245.51 159.06 247.69 166.98 247.24 175.02 C 245.55 188.97 237.96 202.37 226.24 210.30 C 218.55 215.67 209.33 218.81 199.95 219.25 C 198.45 219.10 197.25 219.88 196.16 220.79 C 196.47 226.97 195.75 233.73 191.84 238.78 C 188.07 242.77 182.47 244.35 178.78 248.47 C 180.15 254.92 183.81 260.62 186.42 266.63 C 187.84 271.24 193.96 270.97 195.64 275.40 C 198.75 279.83 195.49 284.83 193.72 289.05 C 196.18 297.34 200.83 304.77 204.36 312.63 C 205.71 314.86 206.22 318.07 208.78 319.25 C 220.55 317.38 231.91 311.67 244.09 313.14 C 249.80 313.04 256.76 310.82 261.28 315.67 C 262.55 316.74 262.71 319.24 260.92 319.86 C 249.79 326.06 237.81 330.50 226.55 336.47 C 218.48 339.98 210.52 343.75 202.68 347.77 C 199.83 341.68 198.12 335.03 197.63 328.33 C 197.29 324.92 197.32 321.36 195.87 318.18 C 192.33 310.27 188.26 302.60 184.18 294.97 C 183.20 292.42 179.94 293.22 178.04 291.87 C 174.59 289.39 173.05 285.02 172.88 280.91 C 173.23 278.50 174.40 276.33 174.92 273.97 C 174.71 272.17 173.61 270.64 172.83 269.05 C 169.61 263.36 166.70 257.49 163.06 252.04 C 155.14 255.45 146.33 254.97 137.91 254.95 C 129.86 254.92 121.99 253.03 114.05 252.08 C 110.69 253.67 107.67 256.07 103.95 256.82 C 100.04 258.02 95.98 257.10 92.00 257.05 C 87.89 259.75 84.77 263.71 81.49 267.33 C 81.13 271.25 80.35 275.43 77.03 277.99 C 72.86 282.06 66.09 276.85 62.25 281.31 C 54.89 288.13 47.98 295.44 41.26 302.88 C 42.88 306.68 45.43 309.95 47.84 313.27 C 52.47 319.65 56.99 326.37 59.04 334.07 C 60.17 338.85 64.10 342.80 63.63 347.95 C 63.62 350.43 62.27 354.63 59.04 353.34 C 54.27 349.35 50.04 344.74 45.53 340.45 C 39.58 333.41 32.25 327.71 26.18 320.77 C 21.93 316.19 17.27 312.02 12.79 307.68 C 14.85 304.67 18.16 302.95 20.97 300.75 C 27.02 296.26 35.15 295.04 40.21 289.18 C 45.98 283.22 51.97 277.40 57.13 270.91 C 55.35 264.98 59.66 259.21 65.07 257.15 C 67.68 256.08 70.61 257.11 73.26 256.37 C 75.33 254.60 77.78 252.62 78.05 249.71 C 76.31 244.23 72.34 239.85 70.60 234.37 C 66.83 224.66 67.16 214.04 68.28 203.87 C 68.59 197.16 71.39 190.80 75.23 185.38 C 77.62 181.93 81.45 179.29 82.31 174.95 C 84.40 165.17 82.51 155.12 80.52 145.49 C 79.86 142.29 80.61 138.81 79.03 135.82 C 81.44 129.86 83.47 123.57 87.06 118.22 C 88.91 120.72 89.00 123.95 89.69 126.88 C 90.44 131.31 92.05 135.53 93.87 139.63 C 94.23 139.67 94.94 139.73 95.30 139.76 C 97.36 133.80 97.04 127.45 97.39 121.24 L 99.08 121.78 C 101.65 126.07 103.10 130.99 105.94 135.15 C 106.35 135.39 107.16 135.87 107.57 136.11 C 107.87 130.28 108.28 124.45 108.31 118.61 C 109.64 119.15 111.66 119.27 111.72 121.13 C 112.60 126.90 109.04 133.15 112.09 138.64 C 112.56 138.83 113.51 139.21 113.98 139.40 C 114.53 145.07 113.03 151.31 116.08 156.44 C 116.49 149.36 115.68 142.25 115.27 135.21 C 117.43 129.31 119.20 122.94 123.22 117.98 C 125.69 125.43 125.93 133.61 130.10 140.47 C 134.29 134.79 131.75 127.10 133.80 120.68 C 137.92 125.17 138.30 132.30 143.12 136.16 C 143.53 130.06 143.85 123.94 144.57 117.86 C 147.36 119.89 148.35 123.30 150.16 126.08 C 149.71 136.03 150.16 146.50 154.68 155.59 C 154.49 155.83 154.13 156.31 153.94 156.55 C 158.98 163.59 165.73 169.10 171.81 175.17 C 174.85 178.11 177.65 181.30 180.94 183.98 C 187.53 180.39 195.52 179.31 201.20 174.15 C 204.54 171.03 205.95 166.40 206.28 161.95 C 207.49 136.00 197.43 109.95 204.27 84.21 C 204.64 81.09 207.82 79.87 209.71 77.78 C 212.62 74.89 213.63 70.77 214.23 66.85 M 300.20 146.82 C 298.54 148.10 300.30 148.58 301.18 148.55 C 300.57 144.85 304.14 142.76 306.44 140.62 C 303.54 141.65 301.20 143.88 300.20 146.82 M 308.80 149.41 C 308.48 155.84 310.73 163.94 317.19 166.61 C 317.52 160.20 315.30 152.03 308.80 149.41 Z" />
<path fill="#9e846a" opacity="1.00" d=" M 48.54 189.49 C 54.91 182.66 65.26 177.50 74.53 181.05 C 73.00 183.07 71.51 185.12 70.07 187.21 C 63.90 187.47 56.78 187.39 52.07 192.05 C 47.71 196.68 47.87 203.63 48.70 209.52 C 50.62 222.92 58.41 235.86 54.86 249.70 C 52.46 248.55 50.07 247.40 47.68 246.23 C 52.21 235.58 48.13 224.19 45.56 213.62 C 43.57 205.68 42.47 196.00 48.54 189.49 Z" />
</g>
<g id="#30303062">
<path fill="#303030" opacity="0.38" d=" M 257.39 48.54 C 257.41 48.55 257.44 48.57 257.46 48.58 C 257.44 48.57 257.41 48.55 257.39 48.54 Z" />
</g>
<g id="#fefefeff">
<path fill="#fefefe" opacity="1.00" d=" M 239.38 49.54 C 252.62 45.63 266.84 56.52 268.03 69.92 C 270.00 83.34 258.82 97.38 245.01 97.20 C 233.12 97.44 223.47 86.42 222.89 74.99 C 221.73 64.10 228.53 52.44 239.38 49.54 M 252.07 73.94 C 249.57 75.93 248.88 80.24 251.63 82.31 C 255.09 85.00 260.79 80.46 258.66 76.49 C 257.45 73.94 254.51 73.82 252.07 73.94 Z" />
<path fill="#fefefe" opacity="1.00" d=" M 268.23 59.03 C 273.01 56.30 278.82 55.18 284.13 56.94 C 293.75 59.85 299.96 70.27 298.80 80.11 C 298.07 88.41 292.01 96.04 283.90 98.21 C 278.77 94.17 274.51 88.97 268.76 85.69 C 272.89 77.34 272.68 67.20 268.23 59.03 M 276.25 78.22 C 273.97 79.48 273.01 82.99 275.13 84.83 C 277.28 87.56 282.18 85.33 282.01 82.00 C 281.92 79.28 278.78 77.20 276.25 78.22 Z" />
</g>
<g id="#6c533aff">
<path fill="#6c533a" opacity="1.00" d=" M 177.89 52.11 C 184.46 54.43 192.23 54.37 197.62 59.28 C 201.09 62.79 204.00 67.83 202.92 72.93 C 201.96 76.41 197.61 76.34 194.86 75.30 C 185.35 71.78 177.99 62.42 177.89 52.11 Z" />
</g>
<g id="#7a4d28ff">
<path fill="#7a4d28" opacity="1.00" d=" M 87.25 76.22 C 96.40 72.98 107.54 74.47 114.34 81.82 C 108.76 89.58 104.60 98.44 103.20 107.94 C 102.76 112.28 102.18 116.84 104.35 120.85 C 105.06 120.74 106.50 120.51 107.22 120.40 C 107.10 124.03 106.96 127.67 106.30 131.24 C 101.66 127.34 100.79 120.93 98.43 115.65 C 97.84 116.89 96.98 118.05 96.81 119.45 C 96.03 125.09 95.92 130.80 95.40 136.46 C 93.99 135.94 92.81 134.99 92.49 133.46 C 90.32 127.04 89.71 120.21 87.63 113.76 C 83.63 119.72 81.41 126.63 78.39 133.10 C 77.91 134.07 77.19 134.84 76.25 135.41 C 75.54 126.35 79.21 117.64 78.60 108.62 C 75.29 111.81 73.65 118.12 68.23 118.00 C 68.26 114.96 68.37 111.91 68.30 108.86 C 66.39 107.41 67.19 105.04 68.35 103.40 L 69.92 104.30 C 70.43 101.89 71.23 99.57 72.02 97.25 C 71.85 96.55 71.51 95.13 71.34 94.42 C 71.88 94.21 72.95 93.80 73.49 93.59 C 77.03 87.16 80.30 79.63 87.25 76.22 Z" />
<path fill="#7a4d28" opacity="1.00" d=" M 124.81 75.62 C 132.81 73.61 142.33 74.38 148.37 80.59 C 156.22 88.89 158.16 100.59 160.08 111.40 C 153.90 108.44 151.42 101.02 145.34 97.84 C 145.35 98.49 145.37 99.77 145.38 100.41 C 150.62 107.09 151.51 115.92 152.29 124.08 C 148.69 120.89 146.64 116.49 143.81 112.68 C 142.66 118.94 142.93 125.34 142.33 131.65 C 137.51 127.73 136.67 120.97 134.22 115.55 C 133.56 116.75 132.66 117.88 132.54 119.30 C 131.70 125.06 131.79 130.91 131.04 136.68 C 129.85 135.89 128.77 134.89 128.43 133.45 C 126.15 127.05 125.68 120.17 123.45 113.74 C 119.50 119.44 117.60 126.23 114.39 132.33 C 113.92 133.30 113.16 133.99 112.12 134.38 C 111.74 125.72 114.71 117.36 114.68 108.74 C 110.97 111.46 109.71 116.80 104.85 118.13 C 104.05 115.59 103.96 112.91 104.50 110.31 C 106.20 101.20 109.55 92.35 114.53 84.52 C 117.15 80.82 120.25 76.89 124.81 75.62 Z" />
<path fill="#7a4d28" opacity="1.00" d=" M 35.49 254.37 C 37.55 250.53 42.69 247.55 46.88 249.81 C 50.09 251.45 54.72 252.55 55.55 256.61 C 56.91 260.90 53.58 264.84 54.34 269.13 C 54.01 268.85 53.35 268.29 53.02 268.01 C 51.29 270.12 50.12 272.59 48.90 275.01 C 47.23 278.50 44.17 280.98 41.56 283.72 C 38.44 278.49 34.00 273.45 34.03 267.02 C 33.99 262.79 33.79 258.33 35.49 254.37 Z" />
</g>
<g id="#2e2c2e50">
<path fill="#2e2c2e" opacity="0.31" d=" M 146.40 75.50 C 146.42 75.52 146.46 75.54 146.47 75.55 C 146.46 75.54 146.42 75.52 146.40 75.50 Z" />
</g>
<g id="#2c2c2c4e">
<path fill="#2c2c2c" opacity="0.31" d=" M 186.57 78.37 C 186.59 78.38 186.63 78.40 186.64 78.41 C 186.63 78.40 186.59 78.38 186.57 78.37 Z" />
</g>
<g id="#606165ff">
<path fill="#606165" opacity="1.00" d=" M 112.13 119.11 C 111.56 118.11 111.38 115.67 112.72 115.37 C 113.32 116.35 113.51 118.82 112.13 119.11 Z" />
</g>
<g id="#2b3130ff">
<path fill="#2b3130" opacity="1.00" d=" M 109.97 116.33 C 113.30 116.43 108.44 119.32 109.97 116.33 Z" />
</g>
<g id="#634f3aff">
<path fill="#634f3a" opacity="1.00" d=" M 308.80 149.41 C 315.30 152.03 317.52 160.20 317.19 166.61 C 310.73 163.94 308.48 155.84 308.80 149.41 Z" />
</g>
<g id="#5e4d3dff">
<path fill="#5e4d3d" opacity="1.00" d=" M 153.28 260.22 C 156.54 259.11 159.14 256.80 161.87 254.80 C 166.17 261.31 169.33 268.43 171.91 275.77 C 171.27 275.58 170.63 275.38 170.00 275.20 C 168.48 280.34 162.97 282.90 157.93 282.83 C 153.01 289.98 149.99 298.17 146.09 305.88 C 145.08 308.42 142.77 311.11 143.88 313.95 C 147.50 317.51 152.05 319.92 156.08 322.97 C 161.44 326.83 166.18 331.58 170.05 336.94 C 173.02 340.67 177.66 343.29 178.76 348.28 C 180.07 351.13 179.00 354.43 176.17 355.82 C 169.33 352.24 162.09 349.45 155.33 345.70 C 149.62 342.57 143.62 340.04 137.78 337.19 C 131.03 333.48 124.07 330.16 116.96 327.18 C 119.88 318.06 127.66 311.76 134.07 305.07 C 138.60 298.20 141.28 290.31 144.83 282.92 C 145.64 280.67 147.60 278.23 146.07 275.86 C 142.93 269.91 147.35 262.38 153.28 260.22 Z" />
<path fill="#5e4d3d" opacity="1.00" d=" M 92.17 260.28 C 93.90 259.81 95.71 260.09 97.48 260.05 C 98.04 263.74 98.09 267.67 99.79 271.07 C 102.09 273.76 105.26 276.20 105.42 280.07 C 106.02 284.94 102.24 288.51 99.45 291.94 C 99.69 301.10 102.18 310.01 103.42 319.06 C 103.81 320.88 103.87 323.15 105.47 324.40 C 108.69 325.77 112.38 325.50 115.49 323.96 C 115.09 325.26 113.67 326.72 114.88 328.01 C 118.40 331.89 124.12 331.86 128.42 334.47 C 134.16 336.81 138.83 341.53 145.10 342.51 C 134.66 343.72 124.27 345.40 113.92 347.23 C 106.11 347.93 98.51 350.07 90.70 350.66 C 90.40 345.10 90.03 339.48 90.97 333.95 C 91.55 329.28 93.21 324.68 92.60 319.91 C 91.82 312.51 89.89 305.30 88.65 297.97 C 88.13 295.88 88.11 293.14 85.73 292.28 C 81.85 290.49 80.24 286.03 80.41 281.99 C 80.34 276.76 86.11 273.26 84.64 267.82 C 87.03 265.21 89.24 262.32 92.17 260.28 Z" />
</g>
<g id="#1a1a1a24">
<path fill="#1a1a1a" opacity="0.14" d=" M 137.51 258.24 C 140.87 257.90 144.27 257.89 147.64 258.31 C 144.29 259.08 140.83 259.22 137.51 258.24 Z" />
</g>
<g id="#272727ec">
<path fill="#272727" opacity="0.93" d=" M 170.06 277.44 C 171.43 277.64 171.67 278.34 170.79 279.53 C 169.41 279.32 169.17 278.62 170.06 277.44 Z" />
</g>
</svg>
