<?xml version="1.0" encoding="UTF-8" ?>
<!DOCTYPE svg PUBLIC "-//W3C//DTD SVG 1.1//EN" "http://www.w3.org/Graphics/SVG/1.1/DTD/svg11.dtd">
<svg width="350pt" height="374pt" viewBox="0 0 350 374" version="1.1" xmlns="http://www.w3.org/2000/svg">
<g id="#000000ff">
<path fill="#000000" opacity="1.00" d=" M 238.31 14.29 C 239.56 13.21 241.83 12.33 242.90 14.13 C 242.54 17.10 241.37 19.92 241.25 22.93 C 240.83 30.47 242.62 37.89 243.06 45.40 C 252.10 44.78 261.09 49.17 266.33 56.52 C 269.99 54.77 273.84 53.04 277.99 53.10 C 287.28 52.70 295.98 58.94 299.67 67.28 C 303.37 75.28 302.49 85.22 297.26 92.35 C 294.57 96.36 290.35 98.98 286.00 100.86 C 290.18 104.96 295.00 108.89 300.90 110.04 C 307.22 111.20 312.52 115.51 316.35 120.48 C 318.26 122.86 318.46 125.94 317.61 128.79 C 323.49 134.59 327.03 142.27 330.23 149.77 C 335.03 161.20 332.70 174.18 328.20 185.31 C 324.24 194.66 318.38 203.63 309.88 209.42 C 304.52 213.09 297.53 214.85 291.24 212.68 C 283.83 210.20 278.38 204.11 274.04 197.87 C 267.85 188.71 263.41 178.47 259.88 168.03 C 256.08 166.43 252.47 164.41 249.18 161.92 C 252.69 175.45 248.20 189.88 240.19 200.95 C 230.87 213.94 215.27 221.67 199.42 222.46 C 199.14 227.76 198.68 233.29 196.04 238.02 C 193.87 241.71 190.14 244.06 187.37 247.23 C 186.73 248.98 187.92 250.68 188.55 252.25 C 190.50 256.03 192.09 259.99 194.13 263.73 C 195.56 266.71 199.49 266.89 201.33 269.49 C 202.73 271.49 204.22 273.59 204.71 276.03 C 204.40 279.88 202.87 283.43 201.48 286.97 C 204.72 296.53 210.28 305.10 214.06 314.45 C 218.69 313.72 223.08 312.01 227.59 310.81 C 231.72 309.92 235.79 308.58 240.03 308.34 C 244.33 308.00 248.69 308.80 252.95 307.87 C 258.07 306.71 263.19 308.33 268.01 309.92 C 269.81 312.68 270.08 315.91 269.38 319.08 C 251.26 328.23 232.73 336.53 214.43 345.32 C 211.72 346.48 209.19 348.85 206.08 348.47 C 203.72 345.96 203.14 342.38 202.06 339.24 C 200.13 333.11 199.75 326.68 199.08 320.35 C 196.08 310.96 190.67 302.58 186.26 293.82 C 177.87 292.90 173.76 283.39 175.44 275.84 C 175.05 277.32 174.64 278.79 174.22 280.26 C 170.57 281.68 167.11 283.60 163.20 284.26 C 157.36 292.58 154.05 302.40 149.22 311.32 C 157.75 318.54 168.17 323.93 174.49 333.45 C 176.34 336.45 179.32 338.48 181.41 341.30 C 183.54 344.05 184.57 347.44 185.85 350.63 C 185.13 353.77 183.18 356.23 180.28 357.66 C 173.88 355.29 167.97 351.85 161.72 349.13 C 157.70 347.42 153.88 343.83 149.20 345.12 C 135.54 347.16 121.78 348.45 108.10 350.34 C 100.91 350.62 93.88 352.55 86.71 352.70 C 84.03 351.33 85.44 347.47 85.07 345.00 C 84.71 337.54 86.34 330.28 88.01 323.07 C 88.03 313.31 85.55 303.75 84.23 294.11 C 78.82 291.92 76.76 285.71 77.28 280.29 C 73.45 279.20 69.35 279.39 65.39 279.36 C 57.19 284.89 50.08 291.82 42.33 297.95 C 46.52 306.35 52.06 314.13 55.06 323.10 C 56.20 326.77 56.31 330.73 57.99 334.24 C 60.23 338.84 59.81 344.10 59.36 349.04 C 57.10 351.63 52.75 354.38 49.86 351.10 C 42.73 343.31 36.29 334.91 29.69 326.67 C 24.26 320.36 19.16 313.78 13.95 307.29 C 11.81 304.56 9.07 302.27 7.39 299.19 C 7.50 298.65 7.71 297.56 7.82 297.02 C 14.08 292.17 21.24 288.43 28.82 286.12 C 32.67 284.71 36.77 283.28 39.76 280.39 C 38.20 280.24 36.63 280.21 35.07 280.18 C 29.94 272.82 29.72 263.42 31.59 254.94 C 33.19 249.28 38.83 245.98 44.36 245.17 C 49.03 234.63 44.11 223.44 41.92 212.96 C 39.92 204.72 39.48 195.03 45.23 188.12 C 51.44 180.76 61.14 175.70 70.92 176.56 C 73.32 176.52 75.94 178.65 78.15 177.28 C 80.60 172.26 80.31 166.45 79.96 161.02 C 78.90 153.89 78.51 146.68 77.87 139.51 C 76.94 138.76 75.34 138.38 75.32 136.93 C 74.31 129.75 76.29 122.68 76.73 115.54 C 73.88 117.59 72.02 121.68 67.92 120.92 C 67.16 117.95 66.13 114.68 67.17 111.66 L 67.64 110.66 C 67.91 113.19 68.20 115.71 68.49 118.24 C 73.63 117.45 75.55 111.97 78.57 108.45 C 79.26 117.64 75.39 126.51 76.37 135.73 C 81.28 129.05 83.00 120.62 87.43 113.62 C 89.83 120.06 90.24 127.02 92.51 133.50 C 92.93 134.95 94.29 135.79 95.25 136.85 C 96.41 129.75 95.34 122.21 98.24 115.46 C 100.75 120.87 101.76 127.25 106.36 131.43 C 106.99 127.83 107.17 124.16 107.22 120.51 C 106.47 120.58 104.96 120.73 104.20 120.80 C 101.31 113.56 103.36 105.59 105.53 98.44 C 107.53 92.45 110.80 86.97 114.33 81.77 C 110.59 78.41 106.24 75.36 101.07 74.92 C 95.14 74.43 88.27 74.35 83.58 78.62 C 80.02 81.82 77.67 86.08 74.98 89.99 L 74.83 87.86 C 77.29 82.26 80.89 76.52 86.45 73.55 C 96.12 69.61 108.42 71.50 115.33 79.74 C 117.64 76.76 120.36 73.82 124.11 72.73 C 131.48 70.74 139.95 71.08 146.41 75.51 C 146.43 75.53 146.48 75.55 146.50 75.57 C 151.83 79.21 155.11 85.18 157.04 91.21 C 159.45 98.98 161.75 107.01 161.59 115.21 C 160.20 115.09 159.02 114.57 158.08 113.64 C 156.90 112.33 155.86 110.84 154.32 109.94 C 153.41 109.39 152.48 108.88 151.56 108.35 C 153.74 115.66 154.90 123.21 154.90 130.84 C 154.20 130.84 152.79 130.85 152.09 130.86 C 152.85 138.17 152.95 145.77 156.17 152.55 C 159.22 160.04 165.81 165.04 171.39 170.56 C 174.75 173.60 177.76 177.00 181.08 180.08 C 183.44 179.89 185.58 178.44 187.84 177.71 C 192.98 175.74 199.00 173.84 201.60 168.49 C 204.20 162.77 203.16 156.30 203.09 150.22 C 201.64 127.73 195.22 104.77 201.59 82.47 C 196.32 82.69 191.15 81.16 186.67 78.43 C 186.64 78.41 186.58 78.37 186.55 78.35 C 181.62 75.14 177.09 71.05 174.21 65.86 C 170.64 58.44 170.96 50.00 169.96 42.01 C 169.62 38.61 168.20 35.30 168.80 31.84 C 172.31 32.01 174.39 35.21 177.43 36.54 C 186.57 41.22 197.36 41.55 206.17 47.02 C 207.44 41.07 209.37 34.99 213.36 30.28 C 220.23 22.89 230.41 20.26 238.31 14.29 M 216.72 31.68 C 212.38 36.38 210.19 42.82 209.48 49.09 C 211.41 52.63 213.70 56.05 214.38 60.11 C 217.13 58.13 220.15 56.55 223.32 55.35 C 226.14 54.41 227.94 51.92 230.23 50.18 C 232.93 47.97 236.26 46.78 239.55 45.75 C 239.18 36.71 236.74 27.71 238.27 18.64 C 231.16 23.10 222.98 25.95 216.72 31.68 M 172.83 37.84 C 174.35 46.50 173.55 55.68 177.06 63.90 C 180.44 69.96 186.08 74.72 192.41 77.48 C 197.06 79.47 203.26 80.03 207.06 76.08 C 214.05 68.16 212.03 53.53 202.23 48.78 C 192.86 44.02 181.72 43.75 172.83 37.84 M 239.42 49.53 C 228.90 52.32 222.09 63.41 222.83 74.03 C 222.97 85.79 232.75 97.44 245.00 97.20 C 258.79 97.38 269.96 83.40 268.04 70.01 C 266.90 56.59 252.69 45.64 239.42 49.53 M 268.23 59.03 C 272.68 67.21 272.89 77.34 268.76 85.69 C 274.47 89.00 278.80 94.06 283.82 98.23 C 291.97 96.09 298.07 88.44 298.80 80.12 C 299.92 70.53 294.09 60.37 284.85 57.18 C 279.37 55.12 273.21 56.15 268.23 59.03 M 216.56 62.54 C 213.63 64.45 214.38 68.39 213.32 71.31 C 212.23 75.90 208.65 79.20 204.91 81.78 C 197.57 105.88 205.79 130.66 206.35 155.04 C 206.69 161.87 206.26 169.84 200.68 174.64 C 194.98 179.35 187.35 180.51 180.95 183.98 C 177.67 181.32 174.88 178.14 171.85 175.21 C 165.75 169.12 158.99 163.60 153.94 156.55 C 154.12 156.31 154.50 155.84 154.68 155.61 C 150.17 146.50 149.72 136.03 150.16 126.07 C 148.36 123.29 147.34 119.91 144.59 117.85 C 143.88 123.79 143.49 129.79 143.22 135.77 C 142.86 135.72 142.13 135.63 141.77 135.59 C 138.83 130.76 137.29 125.12 133.78 120.68 C 132.31 126.34 133.27 132.32 131.69 137.97 C 131.41 138.88 131.03 140.24 129.78 139.81 C 125.78 133.16 125.70 125.17 123.22 117.99 C 119.19 122.94 117.42 129.33 115.26 135.24 C 115.44 142.28 117.06 149.54 115.63 156.51 C 113.55 151.00 114.31 145.10 113.95 139.37 C 113.48 139.19 112.55 138.83 112.09 138.65 C 109.04 133.15 112.61 126.90 111.72 121.13 C 111.67 119.26 109.63 119.16 108.30 118.61 C 108.29 124.44 107.86 130.26 107.59 136.08 C 107.17 135.84 106.34 135.34 105.92 135.10 C 103.09 130.96 101.63 126.08 99.10 121.78 L 97.36 121.28 C 96.94 127.39 97.58 133.80 95.21 139.60 C 94.95 139.64 94.41 139.73 94.14 139.77 C 89.95 133.15 90.20 124.99 87.18 117.95 C 83.63 123.47 81.42 129.74 79.03 135.81 C 80.59 138.81 79.88 142.28 80.51 145.49 C 82.50 154.99 84.31 164.88 82.41 174.54 C 81.73 178.81 78.15 181.51 75.69 184.76 C 72.57 188.89 70.26 193.66 68.97 198.68 C 66.82 212.62 66.20 227.81 73.37 240.52 C 76.81 245.48 82.38 249.58 82.89 256.05 C 83.13 261.11 84.95 265.95 85.08 270.99 C 83.29 273.86 80.25 276.26 80.27 279.93 C 79.63 284.54 81.25 290.71 86.47 291.76 C 88.75 301.69 90.28 311.85 91.10 322.01 C 89.28 331.11 86.88 340.27 87.91 349.64 C 94.35 349.39 100.64 347.80 107.07 347.41 C 115.75 346.80 124.27 344.79 132.96 344.35 C 138.79 343.96 144.51 342.22 150.40 342.58 C 143.64 340.65 137.96 336.38 131.63 333.50 C 127.60 331.36 123.08 330.25 119.25 327.74 C 117.69 327.05 117.47 325.34 117.51 323.84 C 117.28 324.33 116.80 325.32 116.56 325.81 C 111.65 325.42 106.56 326.01 101.86 324.21 C 100.50 314.15 98.67 304.14 97.98 294.00 C 97.29 290.30 101.17 288.56 102.85 285.88 C 104.64 283.65 104.89 280.67 103.92 278.04 C 103.41 274.81 100.24 273.17 98.75 270.52 C 97.48 265.96 97.54 261.18 96.70 256.54 C 102.34 258.54 108.01 255.73 112.70 252.73 C 114.14 251.58 115.98 252.28 117.61 252.47 C 129.87 255.01 142.53 255.73 154.98 254.32 C 156.72 254.10 158.50 253.90 160.15 253.24 C 161.97 251.69 162.86 249.35 164.11 247.37 C 166.58 251.01 162.84 254.93 161.47 258.30 C 154.03 258.74 148.21 266.00 149.47 273.36 C 150.30 274.71 151.83 276.16 150.80 277.86 C 147.12 286.34 143.45 294.86 138.98 302.96 C 134.75 308.34 128.81 312.24 125.18 318.14 C 123.78 320.67 120.69 322.87 121.43 326.07 C 128.58 328.72 135.32 332.34 141.98 336.04 C 148.39 339.45 155.24 341.98 161.48 345.71 C 167.58 348.87 173.81 351.80 180.07 354.64 C 181.23 353.29 182.72 351.93 182.32 349.95 C 182.11 343.24 175.47 339.84 172.26 334.67 C 165.56 325.06 154.61 319.96 146.32 312.05 C 148.04 307.08 150.67 302.51 152.84 297.73 C 155.49 292.48 157.54 286.77 161.28 282.19 C 165.29 280.68 171.07 280.63 172.85 275.81 C 175.41 271.59 171.84 266.58 174.30 262.41 C 177.50 256.10 180.21 249.44 184.58 243.82 C 188.01 242.06 191.66 240.01 193.42 236.40 C 195.83 231.96 196.18 226.81 196.31 221.86 C 196.18 220.38 197.47 219.15 198.94 219.34 C 208.64 218.97 218.26 215.90 226.23 210.31 C 237.96 202.37 245.55 188.96 247.25 174.99 C 247.68 166.96 245.51 159.05 243.46 151.36 C 244.46 151.26 245.47 151.16 246.49 151.07 C 247.44 157.53 253.19 161.75 258.82 164.14 C 260.22 164.95 262.37 165.21 262.74 167.08 C 266.98 179.02 271.99 190.99 280.16 200.83 C 284.41 205.81 290.08 210.57 297.00 210.51 C 305.19 210.58 311.88 204.74 316.81 198.77 C 324.72 188.63 329.73 175.96 329.82 163.02 C 329.92 155.21 326.40 148.02 322.84 141.28 C 320.52 137.32 318.34 132.96 314.39 130.38 C 314.29 129.85 314.11 128.79 314.02 128.26 C 316.92 123.67 311.89 119.82 308.78 117.12 C 304.39 112.81 297.74 113.38 292.77 110.13 C 282.99 104.27 276.76 94.07 266.88 88.29 C 261.42 96.20 251.83 101.56 242.07 100.19 C 230.74 98.99 221.75 89.03 220.05 78.02 C 218.75 71.72 220.32 65.36 222.36 59.40 C 220.35 60.29 218.26 61.12 216.56 62.54 M 119.09 79.04 C 112.50 85.60 108.88 94.50 106.17 103.24 C 104.90 108.05 103.23 113.19 104.85 118.13 C 109.71 116.80 110.96 111.46 114.69 108.74 C 114.70 117.35 111.75 125.70 112.11 134.36 C 113.16 134.00 113.91 133.34 114.37 132.37 C 117.53 126.22 119.62 119.54 123.34 113.69 C 125.74 120.08 126.12 127.01 128.41 133.42 C 128.75 134.88 129.84 135.89 131.05 136.67 C 132.19 129.61 131.06 122.12 133.88 115.40 C 136.87 120.70 137.36 127.70 142.34 131.66 C 142.92 125.35 142.68 118.96 143.78 112.70 C 146.66 116.48 148.70 120.90 152.31 124.10 C 152.01 118.79 151.01 113.53 149.62 108.41 C 148.68 104.64 145.57 101.81 144.99 97.93 C 151.48 100.53 153.76 108.51 160.08 111.43 C 158.42 102.62 157.13 93.41 152.22 85.68 C 148.82 79.43 142.17 74.95 134.99 74.74 C 129.49 74.56 123.14 74.75 119.09 79.04 M 112.56 118.98 C 113.31 117.80 113.37 116.59 112.74 115.35 C 111.42 115.38 111.19 118.94 112.56 118.98 M 109.94 116.33 C 108.45 119.34 113.28 116.40 109.94 116.33 M 55.71 183.68 C 50.07 186.95 44.93 192.19 44.19 198.96 C 42.77 212.01 50.30 224.03 49.72 237.03 C 49.65 240.21 48.67 243.25 47.68 246.24 C 50.08 247.39 52.46 248.56 54.86 249.70 C 58.40 235.86 50.62 222.91 48.70 209.51 C 47.87 203.63 47.71 196.69 52.06 192.07 C 56.77 187.38 63.91 187.48 70.08 187.20 C 71.62 185.15 73.07 183.05 74.37 180.85 C 68.15 178.55 61.23 180.47 55.71 183.68 M 55.53 193.57 C 52.31 195.95 51.56 200.22 51.68 203.99 C 51.91 217.38 59.57 229.49 59.20 242.96 C 59.29 247.42 56.40 251.81 58.90 256.05 C 61.32 254.12 63.83 252.01 66.96 251.44 C 70.10 250.74 73.24 252.20 76.39 251.66 C 76.48 251.08 76.68 249.93 76.78 249.35 C 75.92 249.78 75.17 250.47 74.24 250.74 C 74.04 249.54 73.89 248.34 73.79 247.14 C 65.95 235.83 63.09 221.58 64.86 208.03 C 65.09 202.06 66.05 196.10 68.50 190.61 C 64.12 190.99 59.26 190.86 55.53 193.57 M 39.42 250.35 C 33.74 253.33 33.98 260.55 33.99 266.05 C 33.72 270.71 36.00 274.84 38.16 278.78 C 38.81 278.91 40.12 279.18 40.77 279.31 C 45.77 274.49 52.15 270.72 55.01 264.08 C 57.17 260.78 56.31 256.13 53.66 253.40 C 49.52 250.91 44.17 247.04 39.42 250.35 M 176.23 264.82 C 177.27 267.13 179.05 269.27 179.30 271.83 C 177.76 276.31 176.45 281.47 179.20 285.80 C 180.80 289.38 184.42 291.18 188.13 291.73 C 192.56 300.35 197.46 308.78 201.08 317.77 C 202.69 327.24 202.56 337.48 207.71 345.95 C 213.44 342.87 219.20 339.82 225.20 337.30 C 232.46 334.40 239.13 330.23 246.40 327.35 C 252.25 325.11 257.58 321.78 263.31 319.26 C 264.77 318.39 266.81 317.89 267.47 316.16 C 267.62 312.96 264.43 310.99 261.73 310.21 C 256.88 308.41 251.93 310.97 246.98 310.42 C 238.38 309.84 229.96 312.11 221.87 314.79 C 219.12 315.48 216.33 316.88 213.44 316.34 C 211.95 315.25 211.23 313.45 210.40 311.87 C 206.98 304.29 202.79 297.07 199.76 289.32 C 199.15 287.85 198.80 286.13 199.83 284.76 C 202.31 280.78 202.91 275.06 199.81 271.24 C 197.81 268.45 193.58 268.24 192.06 265.01 C 189.11 259.81 187.20 254.10 184.22 248.91 C 181.39 254.12 178.59 259.37 176.23 264.82 M 76.02 253.84 C 70.71 253.12 64.61 253.57 60.89 257.95 C 58.25 260.21 58.11 263.79 58.28 267.00 C 53.95 271.10 49.33 274.86 44.93 278.88 C 40.64 282.36 36.59 286.56 31.08 288.00 C 23.57 290.41 16.11 293.61 10.12 298.86 C 15.96 305.40 21.41 312.26 26.76 319.19 C 35.60 329.08 42.98 340.23 52.25 349.72 C 56.09 350.52 57.84 346.04 57.66 342.94 C 58.21 338.30 55.20 334.43 54.36 330.06 C 53.70 326.49 52.72 322.99 51.35 319.63 C 48.68 312.46 43.88 306.36 40.62 299.49 C 39.53 296.96 42.02 295.13 43.73 293.74 C 51.01 288.05 57.64 281.46 65.48 276.52 C 69.40 277.19 73.33 278.01 77.31 277.11 C 77.39 277.66 77.56 278.74 77.64 279.28 C 78.11 275.64 80.91 273.12 82.34 269.95 C 80.89 263.89 81.12 257.50 78.71 251.66 C 77.81 252.38 76.92 253.11 76.02 253.84 M 113.02 256.10 C 109.17 258.65 104.69 259.87 100.17 260.56 C 100.50 263.58 100.51 266.68 101.53 269.58 C 102.97 272.14 105.84 273.87 106.45 276.88 C 107.05 279.86 108.70 283.64 105.55 285.76 C 104.66 288.41 102.63 290.31 100.75 292.26 C 100.96 302.42 102.97 312.51 104.47 322.56 C 106.64 322.65 108.81 322.79 110.98 322.97 C 113.71 322.38 117.40 324.70 119.14 321.73 C 122.89 315.78 127.32 310.24 132.64 305.61 C 135.81 302.97 137.74 299.27 139.57 295.65 C 139.59 295.62 139.61 295.56 139.63 295.54 C 142.17 290.09 144.68 284.63 147.11 279.14 C 148.65 276.50 146.28 273.82 146.39 271.08 C 146.37 265.98 149.28 261.04 153.39 258.11 C 155.28 256.68 158.13 257.23 159.75 255.36 C 156.51 256.15 153.46 257.81 150.07 257.88 C 139.40 258.60 128.65 257.79 118.18 255.68 C 116.45 255.39 114.52 254.82 113.02 256.10 M 176.27 270.47 C 175.43 271.33 175.43 273.45 176.84 273.72 C 178.70 273.47 178.19 269.43 176.27 270.47 Z" />
<path fill="#000000" opacity="1.00" d=" M 252.10 73.92 C 254.53 73.83 257.45 73.94 258.65 76.48 C 260.78 80.43 255.16 84.96 251.68 82.35 C 248.86 80.29 249.56 75.92 252.10 73.92 Z" />
<path fill="#000000" opacity="1.00" d=" M 276.26 78.21 C 278.80 77.22 281.92 79.29 282.01 82.00 C 282.17 85.31 277.35 87.54 275.16 84.88 C 272.99 83.03 273.95 79.48 276.26 78.21 Z" />
<path fill="#000000" opacity="1.00" d=" M 299.86 149.41 C 299.97 145.47 302.54 142.03 306.21 140.67 C 303.23 142.91 301.18 145.96 299.86 149.41 Z" />
</g>
<g id="#73685cff">
<path fill="#73685c" opacity="1.00" d=" M 216.72 31.68 C 222.98 25.95 231.16 23.10 238.27 18.64 C 236.74 27.71 239.18 36.71 239.55 45.75 C 236.26 46.78 232.93 47.97 230.23 50.18 C 227.94 51.92 226.14 54.41 223.32 55.35 C 220.15 56.55 217.13 58.13 214.38 60.11 C 213.70 56.05 211.41 52.63 209.48 49.09 C 210.19 42.82 212.38 36.38 216.72 31.68 Z" />
</g>
<g id="#9e846aff">
<path fill="#9e846a" opacity="1.00" d=" M 172.83 37.84 C 181.72 43.75 192.86 44.02 202.23 48.78 C 212.03 53.53 214.05 68.16 207.06 76.08 C 203.26 80.03 197.06 79.47 192.41 77.48 C 186.08 74.72 180.44 69.96 177.06 63.90 C 173.55 55.68 174.35 46.50 172.83 37.84 M 177.88 52.09 C 177.98 62.15 184.96 71.25 194.09 75.03 C 196.82 76.11 201.00 76.76 202.63 73.64 C 204.34 68.94 201.65 63.95 198.68 60.39 C 193.46 54.39 184.86 54.59 177.88 52.09 Z" />
<path fill="#9e846a" opacity="1.00" d=" M 216.56 62.54 C 218.26 61.12 220.35 60.29 222.36 59.40 C 220.32 65.36 218.75 71.72 220.05 78.02 C 221.75 89.03 230.74 98.99 242.07 100.19 C 251.83 101.56 261.42 96.20 266.88 88.29 C 276.76 94.07 282.99 104.27 292.77 110.13 C 297.74 113.38 304.39 112.81 308.78 117.12 C 311.89 119.82 316.92 123.67 314.02 128.26 C 314.11 128.79 314.29 129.85 314.39 130.38 C 318.34 132.96 320.52 137.32 322.84 141.28 C 326.40 148.02 329.92 155.21 329.82 163.02 C 329.73 175.96 324.72 188.63 316.81 198.77 C 311.88 204.74 305.19 210.58 297.00 210.51 C 290.08 210.57 284.41 205.81 280.16 200.83 C 271.99 190.99 266.98 179.02 262.74 167.08 C 262.37 165.21 260.22 164.95 258.82 164.14 C 253.19 161.75 247.44 157.53 246.49 151.07 C 245.47 151.16 244.46 151.26 243.46 151.36 C 245.51 159.05 247.68 166.96 247.25 174.99 C 245.55 188.96 237.96 202.37 226.23 210.31 C 218.26 215.90 208.64 218.97 198.94 219.34 C 197.47 219.15 196.18 220.38 196.31 221.86 C 196.18 226.81 195.83 231.96 193.42 236.40 C 191.66 240.01 188.01 242.06 184.58 243.82 C 180.21 249.44 177.50 256.10 174.30 262.41 C 171.84 266.58 175.41 271.59 172.85 275.81 C 171.07 280.63 165.29 280.68 161.28 282.19 C 157.54 286.77 155.49 292.48 152.84 297.73 C 150.67 302.51 148.04 307.08 146.32 312.05 C 154.61 319.96 165.56 325.06 172.26 334.67 C 175.47 339.84 182.11 343.24 182.32 349.95 C 182.72 351.93 181.23 353.29 180.07 354.64 C 173.81 351.80 167.58 348.87 161.48 345.71 C 155.24 341.98 148.39 339.45 141.98 336.04 C 135.32 332.34 128.58 328.72 121.43 326.07 C 120.69 322.87 123.78 320.67 125.18 318.14 C 128.81 312.24 134.75 308.34 138.98 302.96 C 143.45 294.86 147.12 286.34 150.80 277.86 C 151.83 276.16 150.30 274.71 149.47 273.36 C 148.21 266.00 154.03 258.74 161.47 258.30 C 162.84 254.93 166.58 251.01 164.11 247.37 C 162.86 249.35 161.97 251.69 160.15 253.24 C 158.50 253.90 156.72 254.10 154.98 254.32 C 142.53 255.73 129.87 255.01 117.61 252.47 C 115.98 252.28 114.14 251.58 112.70 252.73 C 108.01 255.73 102.34 258.54 96.70 256.54 C 97.54 261.18 97.48 265.96 98.75 270.52 C 100.24 273.17 103.41 274.81 103.92 278.04 C 104.89 280.67 104.64 283.65 102.85 285.88 C 101.17 288.56 97.29 290.30 97.98 294.00 C 98.67 304.14 100.50 314.15 101.86 324.21 C 106.56 326.01 111.65 325.42 116.56 325.81 C 116.80 325.32 117.28 324.33 117.51 323.84 C 117.47 325.34 117.69 327.05 119.25 327.74 C 123.08 330.25 127.60 331.36 131.63 333.50 C 137.96 336.38 143.64 340.65 150.40 342.58 C 144.51 342.22 138.79 343.96 132.96 344.35 C 124.27 344.79 115.75 346.80 107.07 347.41 C 100.64 347.80 94.35 349.39 87.91 349.64 C 86.88 340.27 89.28 331.11 91.10 322.01 C 90.28 311.85 88.75 301.69 86.47 291.76 C 81.25 290.71 79.63 284.54 80.27 279.93 C 80.25 276.26 83.29 273.86 85.08 270.99 C 84.95 265.95 83.13 261.11 82.89 256.05 C 82.38 249.58 76.81 245.48 73.37 240.52 C 66.20 227.81 66.82 212.62 68.97 198.68 C 70.26 193.66 72.57 188.89 75.69 184.76 C 78.15 181.51 81.73 178.81 82.41 174.54 C 84.31 164.88 82.50 154.99 80.51 145.49 C 79.88 142.28 80.59 138.81 79.03 135.81 C 81.42 129.74 83.63 123.47 87.18 117.95 C 90.20 124.99 89.95 133.15 94.14 139.77 C 94.41 139.73 94.95 139.64 95.21 139.60 C 97.58 133.80 96.94 127.39 97.36 121.28 L 99.10 121.78 C 101.63 126.08 103.09 130.96 105.92 135.10 C 106.34 135.34 107.17 135.84 107.59 136.08 C 107.86 130.26 108.29 124.44 108.30 118.61 C 109.63 119.16 111.67 119.26 111.72 121.13 C 112.61 126.90 109.04 133.15 112.09 138.65 C 112.55 138.83 113.48 139.19 113.95 139.37 C 114.31 145.10 113.55 151.00 115.63 156.51 C 117.06 149.54 115.44 142.28 115.26 135.24 C 117.42 129.33 119.19 122.94 123.22 117.99 C 125.70 125.17 125.78 133.16 129.78 139.81 C 131.03 140.24 131.41 138.88 131.69 137.97 C 133.27 132.32 132.31 126.34 133.78 120.68 C 137.29 125.12 138.83 130.76 141.77 135.59 C 142.13 135.63 142.86 135.72 143.22 135.77 C 143.49 129.79 143.88 123.79 144.59 117.85 C 147.34 119.91 148.36 123.29 150.16 126.07 C 149.72 136.03 150.17 146.50 154.68 155.61 C 154.50 155.84 154.12 156.31 153.94 156.55 C 158.99 163.60 165.75 169.12 171.85 175.21 C 174.88 178.14 177.67 181.32 180.95 183.98 C 187.35 180.51 194.98 179.35 200.68 174.64 C 206.26 169.84 206.69 161.87 206.35 155.04 C 205.79 130.66 197.57 105.88 204.91 81.78 C 208.65 79.20 212.23 75.90 213.32 71.31 C 214.38 68.39 213.63 64.45 216.56 62.54 M 299.86 149.41 C 301.18 145.96 303.23 142.91 306.21 140.67 C 302.54 142.03 299.97 145.47 299.86 149.41 M 308.78 149.40 C 308.53 155.74 310.66 164.10 317.24 166.52 C 317.47 160.12 315.26 152.01 308.78 149.40 Z" />
<path fill="#9e846a" opacity="1.00" d=" M 55.71 183.68 C 61.23 180.47 68.15 178.55 74.37 180.85 C 73.07 183.05 71.62 185.15 70.08 187.20 C 63.91 187.48 56.77 187.38 52.06 192.07 C 47.71 196.69 47.87 203.63 48.70 209.51 C 50.62 222.91 58.40 235.86 54.86 249.70 C 52.46 248.56 50.08 247.39 47.68 246.24 C 48.67 243.25 49.65 240.21 49.72 237.03 C 50.30 224.03 42.77 212.01 44.19 198.96 C 44.93 192.19 50.07 186.95 55.71 183.68 Z" />
</g>
<g id="#fefefeff">
<path fill="#fefefe" opacity="1.00" d=" M 239.42 49.53 C 252.69 45.64 266.90 56.59 268.04 70.01 C 269.96 83.40 258.79 97.38 245.00 97.20 C 232.75 97.44 222.97 85.79 222.83 74.03 C 222.09 63.41 228.90 52.32 239.42 49.53 M 252.10 73.92 C 249.56 75.92 248.86 80.29 251.68 82.35 C 255.16 84.96 260.78 80.43 258.65 76.48 C 257.45 73.94 254.53 73.83 252.10 73.92 Z" />
<path fill="#fefefe" opacity="1.00" d=" M 268.23 59.03 C 273.21 56.15 279.37 55.12 284.85 57.18 C 294.09 60.37 299.92 70.53 298.80 80.12 C 298.07 88.44 291.97 96.09 283.82 98.23 C 278.80 94.06 274.47 89.00 268.76 85.69 C 272.89 77.34 272.68 67.21 268.23 59.03 M 276.26 78.21 C 273.95 79.48 272.99 83.03 275.16 84.88 C 277.35 87.54 282.17 85.31 282.01 82.00 C 281.92 79.29 278.80 77.22 276.26 78.21 Z" />
</g>
<g id="#6c533aff">
<path fill="#6c533a" opacity="1.00" d=" M 177.88 52.09 C 184.86 54.59 193.46 54.39 198.68 60.39 C 201.65 63.95 204.34 68.94 202.63 73.64 C 201.00 76.76 196.82 76.11 194.09 75.03 C 184.96 71.25 177.98 62.15 177.88 52.09 Z" />
</g>
<g id="#7a4d28ff">
<path fill="#7a4d28" opacity="1.00" d=" M 83.58 78.62 C 88.27 74.35 95.14 74.43 101.07 74.92 C 106.24 75.36 110.59 78.41 114.33 81.77 C 110.80 86.97 107.53 92.45 105.53 98.44 C 103.36 105.59 101.31 113.56 104.20 120.80 C 104.96 120.73 106.47 120.58 107.22 120.51 C 107.17 124.16 106.99 127.83 106.36 131.43 C 101.76 127.25 100.75 120.87 98.24 115.46 C 95.34 122.21 96.41 129.75 95.25 136.85 C 94.29 135.79 92.93 134.95 92.51 133.50 C 90.24 127.02 89.83 120.06 87.43 113.62 C 83.00 120.62 81.28 129.05 76.37 135.73 C 75.39 126.51 79.26 117.64 78.57 108.45 C 75.55 111.97 73.63 117.45 68.49 118.24 C 68.20 115.71 67.91 113.19 67.64 110.66 C 69.75 106.55 70.34 101.91 72.10 97.67 C 73.16 95.15 74.09 92.57 74.98 89.99 C 77.67 86.08 80.02 81.82 83.58 78.62 Z" />
<path fill="#7a4d28" opacity="1.00" d=" M 119.09 79.04 C 123.14 74.75 129.49 74.56 134.99 74.74 C 142.17 74.95 148.82 79.43 152.22 85.68 C 157.13 93.41 158.42 102.62 160.08 111.43 C 153.76 108.51 151.48 100.53 144.99 97.93 C 145.57 101.81 148.68 104.64 149.62 108.41 C 151.01 113.53 152.01 118.79 152.31 124.10 C 148.70 120.90 146.66 116.48 143.78 112.70 C 142.68 118.96 142.92 125.35 142.34 131.66 C 137.36 127.70 136.87 120.70 133.88 115.40 C 131.06 122.12 132.19 129.61 131.05 136.67 C 129.84 135.89 128.75 134.88 128.41 133.42 C 126.12 127.01 125.74 120.08 123.34 113.69 C 119.62 119.54 117.53 126.22 114.37 132.37 C 113.91 133.34 113.16 134.00 112.11 134.36 C 111.75 125.70 114.70 117.35 114.69 108.74 C 110.96 111.46 109.71 116.80 104.85 118.13 C 103.23 113.19 104.90 108.05 106.17 103.24 C 108.88 94.50 112.50 85.60 119.09 79.04 Z" />
<path fill="#7a4d28" opacity="1.00" d=" M 39.42 250.35 C 44.17 247.04 49.52 250.91 53.66 253.40 C 56.31 256.13 57.17 260.78 55.01 264.08 C 52.15 270.72 45.77 274.49 40.77 279.31 C 40.12 279.18 38.81 278.91 38.16 278.78 C 36.00 274.84 33.72 270.71 33.99 266.05 C 33.98 260.55 33.74 253.33 39.42 250.35 Z" />
</g>
<g id="#2e2c2e50">
<path fill="#2e2c2e" opacity="0.31" d=" M 146.41 75.51 C 146.43 75.53 146.48 75.55 146.50 75.57 C 146.48 75.55 146.43 75.53 146.41 75.51 Z" />
</g>
<g id="#2c2c2c4e">
<path fill="#2c2c2c" opacity="0.31" d=" M 186.55 78.35 C 186.58 78.37 186.64 78.41 186.67 78.43 C 186.64 78.41 186.58 78.37 186.55 78.35 Z" />
</g>
<g id="#0a0705ff">
<path fill="#0a0705" opacity="1.00" d=" M 67.17 111.66 C 68.21 103.39 70.77 95.16 74.83 87.86 L 74.98 89.99 C 74.09 92.57 73.16 95.15 72.10 97.67 C 70.34 101.91 69.75 106.55 67.64 110.66 L 67.17 111.66 Z" />
</g>
<g id="#1919192a">
<path fill="#191919" opacity="0.16" d=" M 154.32 109.94 C 155.86 110.84 156.90 112.33 158.08 113.64 C 156.10 114.76 153.31 111.91 154.32 109.94 Z" />
</g>
<g id="#606165ff">
<path fill="#606165" opacity="1.00" d=" M 112.56 118.98 C 111.19 118.94 111.42 115.38 112.74 115.35 C 113.37 116.59 113.31 117.80 112.56 118.98 Z" />
</g>
<g id="#2b3130ff">
<path fill="#2b3130" opacity="1.00" d=" M 109.94 116.33 C 113.28 116.40 108.45 119.34 109.94 116.33 Z" />
</g>
<g id="#634f3aff">
<path fill="#634f3a" opacity="1.00" d=" M 308.78 149.40 C 315.26 152.01 317.47 160.12 317.24 166.52 C 310.66 164.10 308.53 155.74 308.78 149.40 Z" />
</g>
<g id="#5e4d3dff">
<path fill="#5e4d3d" opacity="1.00" d=" M 176.23 264.82 C 178.59 259.37 181.39 254.12 184.22 248.91 C 187.20 254.10 189.11 259.81 192.06 265.01 C 193.58 268.24 197.81 268.45 199.81 271.24 C 202.91 275.06 202.31 280.78 199.83 284.76 C 198.80 286.13 199.15 287.85 199.76 289.32 C 202.79 297.07 206.98 304.29 210.40 311.87 C 211.23 313.45 211.95 315.25 213.44 316.34 C 216.33 316.88 219.12 315.48 221.87 314.79 C 229.96 312.11 238.38 309.84 246.98 310.42 C 251.93 310.97 256.88 308.41 261.73 310.21 C 264.43 310.99 267.62 312.96 267.47 316.16 C 266.81 317.89 264.77 318.39 263.31 319.26 C 257.58 321.78 252.25 325.11 246.40 327.35 C 239.13 330.23 232.46 334.40 225.20 337.30 C 219.20 339.82 213.44 342.87 207.71 345.95 C 202.56 337.48 202.69 327.24 201.08 317.77 C 197.46 308.78 192.56 300.35 188.13 291.73 C 184.42 291.18 180.80 289.38 179.20 285.80 C 176.45 281.47 177.76 276.31 179.30 271.83 C 179.05 269.27 177.27 267.13 176.23 264.82 Z" />
<path fill="#5e4d3d" opacity="1.00" d=" M 76.02 253.84 C 76.92 253.11 77.81 252.38 78.71 251.66 C 81.12 257.50 80.89 263.89 82.34 269.95 C 80.91 273.12 78.11 275.64 77.64 279.28 C 77.56 278.74 77.39 277.66 77.31 277.11 C 73.33 278.01 69.40 277.19 65.48 276.52 C 57.64 281.46 51.01 288.05 43.73 293.74 C 42.02 295.13 39.53 296.96 40.62 299.49 C 43.88 306.36 48.68 312.46 51.35 319.63 C 52.72 322.99 53.70 326.49 54.36 330.06 C 55.20 334.43 58.21 338.30 57.66 342.94 C 57.84 346.04 56.09 350.52 52.25 349.72 C 42.98 340.23 35.60 329.08 26.76 319.19 C 21.41 312.26 15.96 305.40 10.12 298.86 C 16.11 293.61 23.57 290.41 31.08 288.00 C 36.59 286.56 40.64 282.36 44.93 278.88 C 49.33 274.86 53.95 271.10 58.28 267.00 C 58.11 263.79 58.25 260.21 60.89 257.95 C 64.61 253.57 70.71 253.12 76.02 253.84 Z" />
</g>
<g id="#181817d7">
<path fill="#181817" opacity="0.84" d=" M 176.27 270.47 C 178.19 269.43 178.70 273.47 176.84 273.72 C 175.43 273.45 175.43 271.33 176.27 270.47 Z" />
</g>
<g id="#3434345d">
<path fill="#343434" opacity="0.36" d=" M 139.57 295.65 C 139.59 295.62 139.61 295.56 139.63 295.54 C 139.61 295.56 139.59 295.62 139.57 295.65 Z" />
</g>
</svg>
