<?xml version="1.0" encoding="UTF-8" ?>
<!DOCTYPE svg PUBLIC "-//W3C//DTD SVG 1.1//EN" "http://www.w3.org/Graphics/SVG/1.1/DTD/svg11.dtd">
<svg width="350pt" height="374pt" viewBox="0 0 350 374" version="1.1" xmlns="http://www.w3.org/2000/svg">
<g id="#000000ff">
<path fill="#000000" opacity="1.00" d=" M 237.69 14.72 C 239.06 13.80 240.79 12.29 242.46 13.54 C 243.38 14.56 242.42 15.95 242.33 17.09 C 239.51 26.38 242.73 35.94 242.94 45.34 C 252.01 44.82 261.07 49.09 266.33 56.52 C 269.99 54.77 273.84 53.04 277.98 53.09 C 287.31 52.70 296.04 58.98 299.71 67.37 C 303.36 75.36 302.47 85.25 297.27 92.35 C 294.57 96.35 290.36 98.99 286.00 100.85 C 290.15 104.94 294.95 108.84 300.81 110.03 C 307.22 111.17 312.60 115.54 316.44 120.62 C 318.38 122.93 317.95 126.02 317.67 128.78 C 323.46 134.66 327.05 142.26 330.23 149.76 C 334.84 160.69 332.87 173.10 328.78 183.85 C 325.19 193.04 319.70 201.74 311.94 207.96 C 306.46 212.29 299.08 214.97 292.14 212.95 C 284.53 210.79 278.89 204.71 274.46 198.46 C 268.03 189.16 263.49 178.69 259.88 168.02 C 256.08 166.43 252.48 164.41 249.18 161.95 C 252.71 175.50 248.17 189.96 240.13 201.03 C 230.80 213.98 215.23 221.66 199.42 222.46 C 199.10 228.21 198.64 234.37 195.22 239.23 C 194.21 240.85 192.64 242.33 192.77 244.39 C 192.47 253.32 191.58 262.25 191.85 271.19 C 193.32 274.41 196.00 277.28 195.89 281.06 C 196.19 286.83 191.72 291.31 187.16 294.13 C 186.57 304.08 186.08 314.04 186.06 324.01 C 196.60 326.68 207.94 327.72 217.33 333.65 C 221.41 336.53 226.87 336.70 230.57 340.25 C 234.01 342.86 236.89 347.99 234.03 352.04 C 232.26 354.96 228.38 353.58 225.59 353.86 C 226.25 357.21 225.28 362.24 221.02 362.30 C 198.73 361.93 176.47 360.19 154.17 359.80 C 153.43 358.69 152.19 357.64 152.74 356.14 C 153.54 349.52 154.96 342.92 157.58 336.76 C 158.74 333.88 160.29 331.07 160.56 327.93 C 161.52 319.12 161.14 310.25 161.19 301.42 C 152.99 295.62 155.17 282.18 163.15 277.19 C 163.30 270.17 162.77 263.18 162.53 256.17 C 146.66 259.43 130.30 258.26 114.51 255.12 C 111.26 257.43 107.57 259.03 103.76 260.15 C 103.65 262.97 103.33 265.81 103.63 268.63 C 105.40 271.89 107.97 275.06 107.66 279.01 C 107.55 284.50 103.33 288.63 98.94 291.31 C 98.37 301.26 97.78 311.22 97.76 321.20 C 108.78 324.05 120.75 325.05 130.37 331.67 C 134.32 333.83 139.11 334.40 142.52 337.58 C 145.76 340.14 148.37 344.92 146.06 348.89 C 144.36 352.11 140.33 351.14 137.37 351.12 C 138.13 354.70 136.63 360.17 132.03 359.58 C 111.35 358.99 90.69 357.80 70.01 357.04 C 68.06 356.71 65.21 357.50 64.38 355.07 C 64.95 345.68 67.96 336.66 71.76 328.12 C 73.44 318.48 72.86 308.58 73.16 298.82 C 64.83 293.21 66.74 279.52 74.84 274.59 C 74.92 265.44 74.60 256.20 73.71 247.14 C 69.60 240.59 66.29 233.45 65.19 225.73 C 63.65 217.72 64.70 209.59 65.42 201.56 C 65.80 197.76 67.13 194.15 68.51 190.61 C 63.91 191.01 58.66 190.83 54.96 194.05 C 51.71 196.94 51.51 201.64 51.73 205.68 C 52.56 218.10 59.17 229.43 59.21 241.97 C 59.32 245.37 58.28 248.64 57.71 251.95 C 58.35 254.93 59.70 257.88 59.17 261.00 C 58.48 266.12 55.19 270.30 52.82 274.74 C 50.00 279.77 49.26 285.61 47.00 290.86 C 46.62 292.19 45.53 293.20 44.11 293.30 C 41.26 291.56 40.11 288.24 38.48 285.50 C 35.85 280.40 31.62 275.90 30.90 270.00 C 30.27 264.96 30.50 259.76 31.63 254.81 C 33.28 249.22 38.88 245.98 44.37 245.16 C 46.57 240.11 46.76 234.43 45.73 229.07 C 43.92 218.78 39.37 208.66 40.89 198.03 C 41.96 189.99 48.20 183.80 55.08 180.13 C 61.75 176.40 70.04 175.10 77.22 178.18 C 80.87 173.67 80.15 167.38 80.04 161.96 C 79.01 154.51 78.50 147.00 77.88 139.50 C 74.49 138.48 75.15 134.67 75.09 131.93 C 74.97 126.42 76.54 121.06 76.70 115.56 C 73.91 117.63 72.05 121.50 68.05 121.01 C 65.75 115.59 67.17 109.68 68.33 104.17 C 71.46 94.51 74.94 84.52 81.92 76.90 C 86.43 71.91 93.70 71.27 100.00 71.80 C 105.99 72.15 111.35 75.41 115.35 79.73 C 117.75 76.54 120.76 73.50 124.78 72.53 C 131.99 70.82 140.16 71.18 146.42 75.53 C 146.44 75.54 146.49 75.57 146.51 75.59 C 154.75 81.28 157.50 91.57 159.73 100.78 C 160.80 105.43 161.74 110.14 161.74 114.94 C 158.23 115.21 156.08 111.96 154.32 109.43 C 153.39 108.93 152.49 108.31 151.42 108.18 C 153.81 115.50 154.85 123.14 154.92 130.82 C 154.21 130.83 152.80 130.85 152.09 130.85 C 152.73 135.94 152.67 141.13 153.98 146.11 C 155.41 152.12 158.35 157.82 162.74 162.20 C 168.83 168.32 175.36 174.00 181.19 180.38 C 187.10 177.53 193.99 176.39 199.03 171.95 C 203.92 167.39 203.40 160.13 203.24 154.03 C 202.44 130.22 194.85 106.05 201.59 82.46 C 193.58 82.90 186.07 78.95 180.39 73.58 C 177.23 70.57 174.30 67.10 172.96 62.87 C 170.17 54.47 171.05 45.44 169.02 36.89 C 168.68 35.04 167.70 32.55 170.11 31.70 C 172.73 33.01 174.76 35.24 177.40 36.53 C 186.54 41.24 197.38 41.50 206.16 47.06 C 207.43 41.11 209.35 35.03 213.33 30.31 C 220.01 23.07 229.91 20.44 237.69 14.72 M 216.70 31.70 C 212.38 36.41 210.16 42.86 209.48 49.14 C 211.44 52.64 213.69 56.05 214.37 60.10 C 218.68 56.49 224.80 55.90 228.58 51.59 C 231.63 48.54 235.73 46.99 239.70 45.53 C 238.95 36.60 236.85 27.64 238.26 18.66 C 231.14 23.09 222.97 25.97 216.70 31.70 M 172.84 37.84 C 174.34 46.48 173.56 55.64 177.03 63.85 C 180.41 69.94 186.07 74.72 192.44 77.49 C 197.07 79.46 203.25 80.03 207.05 76.09 C 214.07 68.16 212.02 53.49 202.19 48.75 C 192.82 44.02 181.71 43.74 172.84 37.84 M 239.44 49.53 C 228.55 52.39 221.71 64.11 222.89 75.03 C 223.49 86.43 233.11 97.42 244.98 97.19 C 258.78 97.40 269.97 83.39 268.04 69.99 C 266.88 56.58 252.69 45.65 239.44 49.53 M 268.23 59.03 C 272.68 67.21 272.89 77.34 268.76 85.69 C 274.52 88.96 278.77 94.20 283.91 98.20 C 292.07 96.03 298.14 88.31 298.81 79.96 C 299.90 70.16 293.70 59.83 284.13 56.94 C 278.82 55.18 273.00 56.30 268.23 59.03 M 214.92 64.18 C 213.76 67.74 213.82 71.70 211.79 74.98 C 210.32 78.00 207.21 79.59 205.05 82.00 C 203.73 85.18 203.29 88.64 202.71 92.01 C 199.31 115.40 207.39 138.52 206.28 161.93 C 205.96 166.66 204.33 171.56 200.61 174.70 C 194.91 179.35 187.33 180.52 180.96 183.98 C 177.12 180.87 173.92 177.08 170.32 173.71 C 164.78 168.21 158.57 163.23 154.20 156.69 C 154.82 154.69 153.26 152.96 152.79 151.11 C 150.12 143.06 149.72 134.49 150.16 126.08 C 148.18 123.43 147.65 119.42 144.21 118.18 C 144.18 124.35 143.39 130.47 143.03 136.62 C 139.18 132.28 137.59 126.57 134.85 121.57 C 134.46 121.57 133.68 121.58 133.29 121.58 C 132.38 127.89 133.82 135.00 130.17 140.61 C 125.93 133.72 125.73 125.44 123.18 117.95 C 119.98 121.67 118.68 126.49 116.75 130.90 C 116.08 132.85 114.95 134.81 115.24 136.94 C 116.07 143.42 116.32 150.00 116.06 156.53 C 113.11 151.26 114.50 145.08 113.95 139.36 C 112.60 139.10 111.39 138.39 111.30 136.88 C 109.67 131.08 112.99 125.30 111.44 119.52 C 110.38 119.27 109.32 119.02 108.27 118.77 C 108.23 124.11 108.18 129.48 107.60 134.79 C 107.35 135.17 106.84 135.94 106.59 136.32 C 103.71 131.85 101.79 126.88 99.37 122.18 C 98.89 121.92 97.92 121.41 97.44 121.15 C 97.01 127.37 97.37 133.74 95.33 139.74 C 94.96 139.71 94.21 139.64 93.83 139.61 C 90.53 133.16 89.79 125.93 87.84 119.06 C 87.41 119.09 86.56 119.13 86.13 119.15 C 84.47 122.31 83.28 125.68 81.77 128.91 C 80.64 131.83 78.41 134.79 79.74 138.04 C 80.31 147.41 83.37 156.48 83.22 165.93 C 83.08 170.89 83.04 176.54 79.43 180.38 C 75.93 184.11 72.85 188.27 70.90 193.03 C 67.94 199.23 68.17 206.25 67.58 212.94 C 66.81 224.42 69.83 236.11 76.46 245.55 C 77.95 253.55 77.50 261.88 78.04 270.02 C 77.98 272.69 78.72 276.28 75.84 277.78 C 69.92 281.61 68.30 292.90 75.50 296.17 C 76.82 305.02 75.87 314.05 75.63 322.96 C 75.73 328.71 72.50 333.62 70.76 338.90 C 69.05 343.71 68.17 348.77 67.59 353.83 C 89.81 354.53 112.00 356.28 134.23 356.28 C 134.27 354.80 134.30 353.32 134.33 351.85 C 131.79 348.43 128.31 345.69 124.11 344.68 C 120.18 343.79 117.25 340.87 113.60 339.37 C 106.32 336.27 98.46 334.95 90.77 333.30 C 88.76 332.92 86.91 332.04 85.17 331.00 C 85.21 321.33 85.81 311.68 86.22 302.03 C 86.44 300.29 86.05 297.96 87.92 296.99 C 91.35 294.68 95.34 291.63 95.03 286.99 C 95.40 283.41 92.46 280.94 91.21 277.91 C 90.65 272.62 91.41 267.28 91.32 261.97 C 91.56 260.37 90.95 257.77 93.12 257.33 C 96.94 257.24 100.85 257.88 104.57 256.67 C 108.05 255.83 110.88 253.55 114.06 252.07 C 117.05 252.15 119.93 253.02 122.88 253.44 C 136.41 255.60 150.41 255.80 163.82 252.68 C 164.24 253.08 165.10 253.89 165.52 254.29 C 165.57 262.68 166.95 271.14 165.69 279.49 C 159.91 282.24 157.73 289.65 159.89 295.43 C 161.02 297.24 162.92 298.41 164.22 300.09 C 164.40 309.38 164.37 318.71 163.69 327.99 C 163.50 331.70 161.52 334.96 160.25 338.37 C 157.80 344.18 156.44 350.39 155.91 356.67 C 178.01 357.33 200.09 358.84 222.20 359.26 C 222.64 357.31 222.97 355.14 221.61 353.45 C 218.73 348.73 213.00 347.72 208.40 345.52 C 200.55 340.23 191.06 338.53 181.96 336.67 C 179.16 336.03 176.12 335.75 173.74 334.01 C 173.14 328.69 173.85 323.33 173.87 317.99 C 174.29 312.30 173.95 306.50 175.00 300.88 C 178.32 297.82 183.59 295.29 183.31 289.98 C 184.08 285.26 178.45 282.65 179.18 278.02 C 179.31 267.70 180.24 257.40 180.21 247.07 C 183.80 243.93 188.53 242.32 191.82 238.81 C 195.60 234.10 196.18 227.81 196.31 221.99 C 196.14 220.43 197.43 219.11 199.00 219.34 C 208.69 218.96 218.29 215.88 226.24 210.30 C 237.96 202.37 245.54 188.98 247.25 175.03 C 247.69 166.98 245.52 159.06 243.46 151.35 C 244.47 151.26 245.48 151.17 246.50 151.08 C 247.65 159.08 255.63 162.78 262.13 165.81 C 266.97 178.49 271.94 191.59 281.10 201.89 C 285.17 206.43 290.59 210.58 296.99 210.51 C 305.20 210.60 311.90 204.71 316.84 198.74 C 324.74 188.59 329.75 175.92 329.82 162.98 C 329.91 155.17 326.38 147.98 322.82 141.24 C 320.51 137.29 318.33 132.96 314.39 130.38 C 314.29 129.84 314.11 128.78 314.01 128.24 C 314.61 126.80 315.48 125.16 314.61 123.62 C 312.92 120.37 309.94 118.00 307.06 115.83 C 303.24 112.91 298.10 113.17 294.01 110.82 C 283.50 105.17 277.17 94.27 266.88 88.29 C 261.40 96.24 251.76 101.58 241.97 100.18 C 230.30 98.89 221.21 88.35 219.89 76.97 C 218.87 70.99 220.47 65.04 222.36 59.41 C 219.64 60.55 216.79 61.80 214.92 64.18 M 83.60 78.60 C 76.79 84.91 73.43 93.84 70.24 102.32 C 68.58 104.88 69.30 108.17 67.62 110.72 C 67.93 113.20 68.23 115.68 68.51 118.16 C 73.74 117.76 75.25 111.76 78.67 108.69 C 79.14 117.73 75.49 126.45 76.30 135.53 C 76.73 135.16 77.59 134.43 78.01 134.06 C 81.11 127.25 83.48 120.03 87.64 113.76 C 89.71 120.25 90.33 127.11 92.52 133.56 C 92.83 135.06 94.10 135.93 95.32 136.68 C 96.35 129.66 95.48 122.28 98.05 115.55 C 100.61 120.10 101.48 125.46 104.54 129.74 C 105.20 129.98 106.52 130.46 107.18 130.70 C 107.11 127.26 107.06 123.81 107.18 120.37 C 106.48 120.50 105.08 120.76 104.38 120.89 C 102.15 116.90 102.78 112.34 103.19 108.01 C 104.59 98.49 108.73 89.59 114.34 81.83 C 110.42 78.10 105.58 75.03 100.02 74.80 C 94.42 74.55 87.97 74.50 83.60 78.60 M 124.72 75.64 C 119.99 77.02 116.83 81.19 114.17 85.07 C 109.29 93.00 105.93 101.90 104.38 111.08 C 103.90 113.44 104.17 115.83 104.84 118.12 C 109.44 116.65 111.39 111.99 114.18 108.49 C 114.59 110.20 114.86 111.95 114.53 113.70 C 113.49 120.63 111.85 127.55 112.20 134.61 C 112.63 134.24 113.49 133.49 113.92 133.12 C 117.43 126.83 119.39 119.74 123.39 113.70 C 125.73 120.13 126.11 127.07 128.45 133.49 C 128.80 134.89 129.84 135.88 130.98 136.69 C 131.81 131.49 132.09 126.23 132.31 120.98 C 132.33 119.00 133.10 117.16 134.26 115.57 C 136.61 121.06 137.60 127.69 142.31 131.75 C 142.98 125.40 142.60 118.94 143.84 112.65 C 146.61 116.51 148.71 120.88 152.30 124.11 C 151.50 115.93 150.63 107.06 145.35 100.38 C 145.36 99.74 145.38 98.45 145.39 97.81 C 151.38 101.11 153.94 108.35 160.04 111.47 C 158.24 100.61 156.20 88.91 148.36 80.59 C 142.31 74.35 132.74 73.60 124.72 75.64 M 112.27 115.40 C 111.53 116.51 111.51 117.61 112.23 118.71 C 113.68 118.78 113.74 115.22 112.27 115.40 M 109.92 116.32 C 108.38 119.30 113.26 116.43 109.92 116.32 M 47.60 190.64 C 42.35 197.39 43.83 206.57 45.71 214.27 C 48.30 224.61 52.12 235.81 47.68 246.23 C 50.06 247.37 52.42 248.54 54.78 249.74 C 58.45 236.21 50.89 223.44 48.83 210.35 C 47.87 204.22 47.52 196.93 52.06 192.07 C 56.77 187.38 63.92 187.47 70.10 187.21 C 71.60 185.04 73.10 182.89 74.59 180.72 C 64.63 177.81 53.89 182.89 47.60 190.64 M 183.51 248.44 C 183.28 258.66 182.46 268.89 182.54 279.11 C 184.09 282.80 186.70 286.11 186.86 290.32 C 189.73 288.03 192.78 285.03 192.44 281.01 C 192.58 276.78 187.77 274.29 188.29 270.04 C 188.49 261.66 188.93 253.30 189.29 244.93 C 187.36 246.09 185.43 247.26 183.51 248.44 M 34.51 257.49 C 33.79 263.51 33.17 270.22 36.52 275.62 C 39.20 279.90 41.68 284.31 44.32 288.62 C 46.32 282.43 47.73 275.92 51.37 270.41 C 54.28 265.73 57.79 259.76 54.63 254.32 C 51.68 251.64 47.82 249.94 43.99 248.93 C 39.40 249.17 35.06 252.82 34.51 257.49 M 94.33 276.82 C 96.31 280.21 98.30 283.64 98.74 287.64 C 101.20 285.29 104.16 282.72 104.21 279.03 C 104.52 275.44 101.76 272.82 100.27 269.86 C 99.84 266.87 100.19 263.84 100.22 260.83 C 98.42 260.71 96.61 260.60 94.81 260.48 C 94.54 265.92 94.04 271.38 94.33 276.82 M 89.69 299.72 C 88.89 309.57 88.73 319.45 88.42 329.32 C 98.74 332.18 109.92 333.01 119.22 338.77 C 123.50 341.88 129.24 342.12 133.14 345.88 C 135.73 348.59 139.67 347.63 143.01 347.83 C 144.44 344.49 142.08 341.32 139.41 339.51 C 136.16 336.92 131.74 336.78 128.34 334.46 C 119.43 328.36 108.37 327.40 98.17 324.82 C 96.36 324.39 94.01 323.40 94.35 321.10 C 94.36 312.57 94.84 304.05 95.24 295.53 C 93.40 296.95 91.56 298.35 89.69 299.72 M 178.01 302.38 C 177.06 312.25 176.98 322.19 176.68 332.09 C 187.29 335.00 198.78 335.81 208.34 341.73 C 210.91 343.37 213.85 344.21 216.63 345.40 C 219.39 346.51 221.35 348.89 223.93 350.31 C 226.36 350.66 228.83 350.59 231.28 350.65 C 232.71 347.29 230.33 344.09 227.64 342.28 C 224.23 339.57 219.56 339.49 216.08 336.93 C 209.24 332.29 200.92 330.83 192.99 329.07 C 189.61 328.24 185.86 328.05 182.96 325.93 C 182.11 316.77 183.24 307.49 183.48 298.30 C 181.68 299.69 179.86 301.05 178.01 302.38 Z" />
<path fill="#000000" opacity="1.00" d=" M 252.29 74.16 C 254.83 73.31 257.95 74.39 258.89 77.03 C 260.11 80.70 255.75 84.19 252.34 82.80 C 249.10 81.19 248.92 75.72 252.29 74.16 Z" />
<path fill="#000000" opacity="1.00" d=" M 276.27 78.21 C 279.10 77.08 282.63 79.86 281.92 82.90 C 281.30 85.75 277.07 87.26 275.14 84.84 C 273.01 83.00 273.97 79.46 276.27 78.21 Z" />
<path fill="#000000" opacity="1.00" d=" M 299.70 149.63 C 300.00 145.54 302.55 141.77 306.58 140.59 C 303.25 142.73 301.13 146.00 299.70 149.63 Z" />
</g>
<g id="#73685cff">
<path fill="#73685c" opacity="1.00" d=" M 216.70 31.70 C 222.97 25.97 231.14 23.09 238.26 18.66 C 236.85 27.64 238.95 36.60 239.70 45.53 C 235.73 46.99 231.63 48.54 228.58 51.59 C 224.80 55.90 218.68 56.49 214.37 60.10 C 213.69 56.05 211.44 52.64 209.48 49.14 C 210.16 42.86 212.38 36.41 216.70 31.70 Z" />
<path fill="#73685c" opacity="1.00" d=" M 112.27 115.40 C 113.74 115.22 113.68 118.78 112.23 118.71 C 111.51 117.61 111.53 116.51 112.27 115.40 Z" />
</g>
<g id="#9e846aff">
<path fill="#9e846a" opacity="1.00" d=" M 172.84 37.84 C 181.71 43.74 192.82 44.02 202.19 48.75 C 212.02 53.49 214.07 68.16 207.05 76.09 C 203.25 80.03 197.07 79.46 192.44 77.49 C 186.07 74.72 180.41 69.94 177.03 63.85 C 173.56 55.64 174.34 46.48 172.84 37.84 M 177.91 52.16 C 178.21 58.12 180.35 64.05 184.66 68.30 C 188.60 72.33 193.83 76.42 199.81 75.72 C 202.85 75.27 203.58 71.57 203.00 69.04 C 201.80 63.25 197.72 57.88 192.02 55.95 C 187.39 54.41 182.56 53.60 177.91 52.16 Z" />
<path fill="#9e846a" opacity="1.00" d=" M 214.92 64.18 C 216.79 61.80 219.64 60.55 222.36 59.41 C 220.47 65.04 218.87 70.99 219.89 76.97 C 221.21 88.35 230.30 98.89 241.97 100.18 C 251.76 101.58 261.40 96.24 266.88 88.29 C 277.17 94.27 283.50 105.17 294.01 110.82 C 298.10 113.17 303.24 112.91 307.06 115.83 C 309.94 118.00 312.92 120.37 314.61 123.62 C 315.48 125.16 314.61 126.80 314.01 128.24 C 314.11 128.78 314.29 129.84 314.39 130.38 C 318.33 132.96 320.51 137.29 322.82 141.24 C 326.38 147.98 329.91 155.17 329.82 162.98 C 329.75 175.92 324.74 188.59 316.84 198.74 C 311.90 204.71 305.20 210.60 296.99 210.51 C 290.59 210.58 285.17 206.43 281.10 201.89 C 271.94 191.59 266.97 178.49 262.13 165.81 C 255.63 162.78 247.65 159.08 246.50 151.08 C 245.48 151.17 244.47 151.26 243.46 151.35 C 245.52 159.06 247.69 166.98 247.25 175.03 C 245.54 188.98 237.96 202.37 226.24 210.30 C 218.29 215.88 208.69 218.96 199.00 219.34 C 197.43 219.11 196.14 220.43 196.31 221.99 C 196.18 227.81 195.60 234.10 191.82 238.81 C 188.53 242.32 183.80 243.93 180.21 247.07 C 180.24 257.40 179.31 267.70 179.18 278.02 C 178.45 282.65 184.08 285.26 183.31 289.98 C 183.59 295.29 178.32 297.82 175.00 300.88 C 173.95 306.50 174.29 312.30 173.87 317.99 C 173.85 323.33 173.14 328.69 173.74 334.01 C 176.12 335.75 179.16 336.03 181.96 336.67 C 191.06 338.53 200.55 340.23 208.40 345.52 C 213.00 347.72 218.73 348.73 221.61 353.45 C 222.97 355.14 222.64 357.31 222.20 359.26 C 200.09 358.84 178.01 357.33 155.91 356.67 C 156.44 350.39 157.80 344.18 160.25 338.37 C 161.52 334.96 163.50 331.70 163.69 327.99 C 164.37 318.71 164.40 309.38 164.22 300.09 C 162.92 298.41 161.02 297.24 159.89 295.43 C 157.73 289.65 159.91 282.24 165.69 279.49 C 166.95 271.14 165.57 262.68 165.52 254.29 C 165.10 253.89 164.24 253.08 163.82 252.68 C 150.41 255.80 136.41 255.60 122.88 253.44 C 119.93 253.02 117.05 252.15 114.06 252.07 C 110.88 253.55 108.05 255.83 104.57 256.67 C 100.85 257.88 96.94 257.24 93.12 257.33 C 90.95 257.77 91.56 260.37 91.32 261.97 C 91.41 267.28 90.65 272.62 91.21 277.91 C 92.46 280.94 95.40 283.41 95.03 286.99 C 95.34 291.63 91.35 294.68 87.92 296.99 C 86.05 297.96 86.44 300.29 86.22 302.03 C 85.81 311.68 85.21 321.33 85.17 331.00 C 86.91 332.04 88.76 332.92 90.77 333.30 C 98.46 334.95 106.32 336.27 113.60 339.37 C 117.25 340.87 120.18 343.79 124.11 344.68 C 128.31 345.69 131.79 348.43 134.33 351.85 C 134.30 353.32 134.27 354.80 134.23 356.28 C 112.00 356.28 89.81 354.53 67.59 353.83 C 68.17 348.77 69.05 343.71 70.76 338.90 C 72.50 333.62 75.73 328.71 75.63 322.96 C 75.87 314.05 76.82 305.02 75.50 296.17 C 68.30 292.90 69.92 281.61 75.84 277.78 C 78.72 276.28 77.98 272.69 78.04 270.02 C 77.50 261.88 77.95 253.55 76.46 245.55 C 69.83 236.11 66.81 224.42 67.58 212.94 C 68.17 206.25 67.94 199.23 70.90 193.03 C 72.85 188.27 75.93 184.11 79.43 180.38 C 83.04 176.54 83.08 170.89 83.22 165.93 C 83.37 156.48 80.31 147.41 79.74 138.04 C 78.41 134.79 80.64 131.83 81.77 128.91 C 83.28 125.68 84.47 122.31 86.13 119.15 C 86.56 119.13 87.41 119.09 87.84 119.06 C 89.79 125.93 90.53 133.16 93.83 139.61 C 94.21 139.64 94.96 139.71 95.33 139.74 C 97.37 133.74 97.01 127.37 97.44 121.15 C 97.92 121.41 98.89 121.92 99.37 122.18 C 101.79 126.88 103.71 131.85 106.59 136.32 C 106.84 135.94 107.35 135.17 107.60 134.79 C 108.18 129.48 108.23 124.11 108.27 118.77 C 109.32 119.02 110.38 119.27 111.44 119.52 C 112.99 125.30 109.67 131.08 111.30 136.88 C 111.39 138.39 112.60 139.10 113.95 139.36 C 114.50 145.08 113.11 151.26 116.06 156.53 C 116.32 150.00 116.07 143.42 115.24 136.94 C 114.95 134.81 116.08 132.85 116.75 130.90 C 118.68 126.49 119.98 121.67 123.18 117.95 C 125.73 125.44 125.93 133.72 130.17 140.61 C 133.82 135.00 132.38 127.89 133.29 121.58 C 133.68 121.58 134.46 121.57 134.85 121.57 C 137.59 126.57 139.18 132.28 143.03 136.62 C 143.39 130.47 144.18 124.35 144.21 118.18 C 147.65 119.42 148.18 123.43 150.16 126.08 C 149.72 134.49 150.12 143.06 152.79 151.11 C 153.26 152.96 154.82 154.69 154.20 156.69 C 158.57 163.23 164.78 168.21 170.32 173.71 C 173.92 177.08 177.12 180.87 180.96 183.98 C 187.33 180.52 194.91 179.35 200.61 174.70 C 204.33 171.56 205.96 166.66 206.28 161.93 C 207.39 138.52 199.31 115.40 202.71 92.01 C 203.29 88.64 203.73 85.18 205.05 82.00 C 207.21 79.59 210.32 78.00 211.79 74.98 C 213.82 71.70 213.76 67.74 214.92 64.18 M 299.70 149.63 C 301.13 146.00 303.25 142.73 306.58 140.59 C 302.55 141.77 300.00 145.54 299.70 149.63 M 308.78 149.49 C 308.68 152.58 308.88 155.75 310.23 158.59 C 311.60 161.83 313.43 165.68 317.24 166.47 C 317.42 160.16 315.30 151.91 308.78 149.49 Z" />
<path fill="#9e846a" opacity="1.00" d=" M 47.60 190.64 C 53.89 182.89 64.63 177.81 74.59 180.72 C 73.10 182.89 71.60 185.04 70.10 187.21 C 63.92 187.47 56.77 187.38 52.06 192.07 C 47.52 196.93 47.87 204.22 48.83 210.35 C 50.89 223.44 58.45 236.21 54.78 249.74 C 52.42 248.54 50.06 247.37 47.68 246.23 C 52.12 235.81 48.30 224.61 45.71 214.27 C 43.83 206.57 42.35 197.39 47.60 190.64 Z" />
</g>
<g id="#fefefeff">
<path fill="#fefefe" opacity="1.00" d=" M 239.44 49.53 C 252.69 45.65 266.88 56.58 268.04 69.99 C 269.97 83.39 258.78 97.40 244.98 97.19 C 233.11 97.42 223.49 86.43 222.89 75.03 C 221.71 64.11 228.55 52.39 239.44 49.53 M 252.29 74.16 C 248.92 75.72 249.10 81.19 252.34 82.80 C 255.75 84.19 260.11 80.70 258.89 77.03 C 257.95 74.39 254.83 73.31 252.29 74.16 Z" />
<path fill="#fefefe" opacity="1.00" d=" M 268.23 59.03 C 273.00 56.30 278.82 55.18 284.13 56.94 C 293.70 59.83 299.90 70.16 298.81 79.96 C 298.14 88.31 292.07 96.03 283.91 98.20 C 278.77 94.20 274.52 88.96 268.76 85.69 C 272.89 77.34 272.68 67.21 268.23 59.03 M 276.27 78.21 C 273.97 79.46 273.01 83.00 275.14 84.84 C 277.07 87.26 281.30 85.75 281.92 82.90 C 282.63 79.86 279.10 77.08 276.27 78.21 Z" />
</g>
<g id="#614e3cff">
<path fill="#614e3c" opacity="1.00" d=" M 177.91 52.16 C 182.56 53.60 187.39 54.41 192.02 55.95 C 197.72 57.88 201.80 63.25 203.00 69.04 C 203.58 71.57 202.85 75.27 199.81 75.72 C 193.83 76.42 188.60 72.33 184.66 68.30 C 180.35 64.05 178.21 58.12 177.91 52.16 Z" />
<path fill="#614e3c" opacity="1.00" d=" M 109.92 116.32 C 113.26 116.43 108.38 119.30 109.92 116.32 Z" />
<path fill="#614e3c" opacity="1.00" d=" M 308.78 149.49 C 315.30 151.91 317.42 160.16 317.24 166.47 C 313.43 165.68 311.60 161.83 310.23 158.59 C 308.88 155.75 308.68 152.58 308.78 149.49 Z" />
<path fill="#614e3c" opacity="1.00" d=" M 183.51 248.44 C 185.43 247.26 187.36 246.09 189.29 244.93 C 188.93 253.30 188.49 261.66 188.29 270.04 C 187.77 274.29 192.58 276.78 192.44 281.01 C 192.78 285.03 189.73 288.03 186.86 290.32 C 186.70 286.11 184.09 282.80 182.54 279.11 C 182.46 268.89 183.28 258.66 183.51 248.44 Z" />
<path fill="#614e3c" opacity="1.00" d=" M 94.33 276.82 C 94.04 271.38 94.54 265.92 94.81 260.48 C 96.61 260.60 98.42 260.71 100.22 260.83 C 100.19 263.84 99.84 266.87 100.27 269.86 C 101.76 272.82 104.52 275.44 104.21 279.03 C 104.16 282.72 101.20 285.29 98.74 287.64 C 98.30 283.64 96.31 280.21 94.33 276.82 Z" />
<path fill="#614e3c" opacity="1.00" d=" M 89.69 299.72 C 91.56 298.35 93.40 296.95 95.24 295.53 C 94.84 304.05 94.36 312.57 94.35 321.10 C 94.01 323.40 96.36 324.39 98.17 324.82 C 108.37 327.40 119.43 328.36 128.34 334.46 C 131.74 336.78 136.16 336.92 139.41 339.51 C 142.08 341.32 144.44 344.49 143.01 347.83 C 139.67 347.63 135.73 348.59 133.14 345.88 C 129.24 342.12 123.50 341.88 119.22 338.77 C 109.92 333.01 98.74 332.18 88.42 329.32 C 88.73 319.45 88.89 309.57 89.69 299.72 Z" />
<path fill="#614e3c" opacity="1.00" d=" M 178.01 302.38 C 179.86 301.05 181.68 299.69 183.48 298.30 C 183.24 307.49 182.11 316.77 182.96 325.93 C 185.86 328.05 189.61 328.24 192.99 329.07 C 200.92 330.83 209.24 332.29 216.08 336.93 C 219.56 339.49 224.23 339.57 227.64 342.28 C 230.33 344.09 232.71 347.29 231.28 350.65 C 228.83 350.59 226.36 350.66 223.93 350.31 C 221.35 348.89 219.39 346.51 216.63 345.40 C 213.85 344.21 210.91 343.37 208.34 341.73 C 198.78 335.81 187.29 335.00 176.68 332.09 C 176.98 322.19 177.06 312.25 178.01 302.38 Z" />
</g>
<g id="#7a4d28ff">
<path fill="#7a4d28" opacity="1.00" d=" M 83.60 78.60 C 87.97 74.50 94.42 74.55 100.02 74.80 C 105.58 75.03 110.42 78.10 114.34 81.83 C 108.73 89.59 104.59 98.49 103.19 108.01 C 102.78 112.34 102.15 116.90 104.38 120.89 C 105.08 120.76 106.48 120.50 107.18 120.37 C 107.06 123.81 107.11 127.26 107.18 130.70 C 106.52 130.46 105.20 129.98 104.54 129.74 C 101.48 125.46 100.61 120.10 98.05 115.55 C 95.48 122.28 96.35 129.66 95.32 136.68 C 94.10 135.93 92.83 135.06 92.52 133.56 C 90.33 127.11 89.71 120.25 87.64 113.76 C 83.48 120.03 81.11 127.25 78.01 134.06 C 77.59 134.43 76.73 135.16 76.30 135.53 C 75.49 126.45 79.14 117.73 78.67 108.69 C 75.25 111.76 73.74 117.76 68.51 118.16 C 68.23 115.68 67.93 113.20 67.62 110.72 C 69.30 108.17 68.58 104.88 70.24 102.32 C 73.43 93.84 76.79 84.91 83.60 78.60 Z" />
<path fill="#7a4d28" opacity="1.00" d=" M 124.72 75.64 C 132.74 73.60 142.31 74.35 148.36 80.59 C 156.20 88.91 158.24 100.61 160.04 111.47 C 153.94 108.35 151.38 101.11 145.39 97.81 C 145.38 98.45 145.36 99.74 145.35 100.38 C 150.63 107.06 151.50 115.93 152.30 124.11 C 148.71 120.88 146.61 116.51 143.84 112.65 C 142.60 118.94 142.98 125.40 142.31 131.75 C 137.60 127.69 136.61 121.06 134.26 115.57 C 133.10 117.16 132.33 119.00 132.31 120.98 C 132.09 126.23 131.81 131.49 130.98 136.69 C 129.84 135.88 128.80 134.89 128.45 133.49 C 126.11 127.07 125.73 120.13 123.39 113.70 C 119.39 119.74 117.43 126.83 113.92 133.12 C 113.49 133.49 112.63 134.24 112.20 134.61 C 111.85 127.55 113.49 120.63 114.53 113.70 C 114.86 111.95 114.59 110.20 114.18 108.49 C 111.39 111.99 109.44 116.65 104.84 118.12 C 104.17 115.83 103.90 113.44 104.38 111.08 C 105.93 101.90 109.29 93.00 114.17 85.07 C 116.83 81.19 119.99 77.02 124.72 75.64 Z" />
<path fill="#7a4d28" opacity="1.00" d=" M 34.51 257.49 C 35.06 252.82 39.40 249.17 43.99 248.93 C 47.82 249.94 51.68 251.64 54.63 254.32 C 57.79 259.76 54.28 265.73 51.37 270.41 C 47.73 275.92 46.32 282.43 44.32 288.62 C 41.68 284.31 39.20 279.90 36.52 275.62 C 33.17 270.22 33.79 263.51 34.51 257.49 Z" />
</g>
<g id="#29292977">
<path fill="#292929" opacity="0.47" d=" M 146.42 75.53 C 146.44 75.54 146.49 75.57 146.51 75.59 C 146.49 75.57 146.44 75.54 146.42 75.53 Z" />
</g>
</svg>
