<?xml version="1.0" encoding="UTF-8" ?>
<!DOCTYPE svg PUBLIC "-//W3C//DTD SVG 1.1//EN" "http://www.w3.org/Graphics/SVG/1.1/DTD/svg11.dtd">
<svg width="350pt" height="374pt" viewBox="0 0 350 374" version="1.1" xmlns="http://www.w3.org/2000/svg">
<g id="#020202fe">
<path fill="#020202" opacity="1.00" d=" M 144.27 50.29 C 148.15 47.14 153.57 46.26 158.30 47.76 C 162.59 49.15 165.57 53.08 170.05 54.01 C 179.62 56.26 189.35 51.86 198.92 54.12 C 201.36 54.74 203.97 55.33 205.98 56.94 C 212.94 67.68 213.54 81.09 212.21 93.47 C 219.61 93.34 229.26 93.25 233.53 100.53 C 237.66 107.56 240.40 115.80 239.74 124.03 C 239.60 125.96 239.10 128.29 237.02 129.03 C 231.92 131.27 226.27 131.77 220.76 131.95 C 218.23 141.53 208.86 148.79 199.03 149.35 C 200.79 156.39 201.66 163.79 200.59 171.00 C 200.36 183.66 196.48 196.16 197.84 208.85 C 198.80 216.62 207.79 217.70 213.56 220.40 C 218.81 214.96 224.18 209.63 229.61 204.37 C 231.32 202.64 232.28 200.37 232.92 198.07 C 234.17 193.89 234.26 189.43 234.35 185.09 C 233.63 184.56 232.90 184.04 232.19 183.51 C 233.39 178.75 232.26 173.34 235.20 169.12 C 235.81 168.43 235.61 167.50 235.35 166.72 C 233.74 169.81 231.17 172.18 228.11 173.78 C 226.97 168.06 228.86 162.36 230.35 156.90 C 231.45 152.58 233.74 148.72 236.48 145.24 C 243.46 139.03 255.77 138.35 261.85 146.18 C 268.69 139.04 282.56 137.82 288.51 146.68 C 293.71 154.54 297.70 163.59 298.28 173.10 C 298.77 175.22 297.05 176.67 295.93 178.20 C 294.10 176.78 292.35 175.28 290.70 173.66 C 291.27 179.10 292.62 184.86 291.03 190.20 C 290.63 190.39 289.82 190.78 289.41 190.97 C 289.81 198.40 287.97 205.71 287.91 213.12 C 288.60 215.02 289.24 216.95 289.90 218.86 C 296.51 215.95 304.20 218.09 309.67 222.41 C 315.73 226.29 318.48 234.15 317.06 241.08 C 315.57 249.89 311.08 258.73 313.95 267.75 C 317.26 269.00 321.33 269.91 322.89 273.51 C 325.79 279.26 325.67 286.48 322.41 292.07 C 320.03 296.01 317.83 300.07 315.14 303.80 C 314.51 303.78 313.24 303.73 312.61 303.71 C 310.58 299.57 310.03 294.89 307.93 290.79 C 306.09 287.28 303.78 283.95 302.75 280.08 C 302.46 277.22 304.50 274.52 303.67 271.64 C 300.20 259.34 309.32 248.07 308.53 235.85 C 308.06 233.32 306.64 230.45 304.00 229.66 C 301.70 228.98 299.32 228.71 296.97 228.34 C 299.76 237.24 300.65 246.98 298.82 256.18 C 297.84 261.61 294.71 266.22 292.52 271.18 C 291.79 276.85 293.31 282.72 291.54 288.27 C 294.28 292.02 298.03 296.00 297.38 301.02 C 297.16 304.13 294.81 306.29 293.23 308.76 C 292.91 312.13 293.12 315.52 293.19 318.90 C 293.26 321.85 293.46 324.80 293.88 327.72 C 296.19 334.97 300.07 342.12 299.63 349.95 C 292.20 352.45 284.26 350.52 276.65 351.80 C 271.74 352.46 266.77 351.70 261.86 352.31 C 257.25 352.94 252.56 353.06 247.93 352.65 C 245.79 351.64 245.52 349.09 245.05 347.06 C 242.57 347.21 240.34 346.37 238.55 344.64 C 238.13 340.58 239.92 336.41 243.84 334.78 C 249.61 332.50 254.77 328.85 260.80 327.24 C 265.42 325.92 270.21 325.25 274.81 323.84 C 274.98 316.75 273.45 309.75 273.99 302.65 C 271.20 300.38 267.63 298.08 267.35 294.11 C 266.65 291.03 268.86 288.59 270.00 285.97 C 270.55 283.93 270.27 281.78 270.37 279.70 C 266.51 278.90 263.24 275.19 259.08 276.59 C 253.47 277.79 247.73 278.02 242.03 278.52 C 237.25 278.26 232.50 277.57 227.76 276.95 C 227.86 281.68 226.39 286.34 227.06 291.06 C 228.36 293.10 230.39 294.64 231.42 296.87 C 233.03 301.32 232.56 306.84 228.47 309.82 C 228.55 318.59 227.41 327.94 231.44 336.08 C 233.56 340.53 233.92 345.49 234.98 350.24 C 234.75 350.87 234.30 352.14 234.08 352.78 C 231.02 352.73 227.95 352.84 224.92 353.28 C 219.38 353.96 213.77 353.05 208.24 353.92 C 202.70 354.75 197.07 353.78 191.52 354.54 C 188.74 355.00 185.92 355.01 183.11 354.98 C 182.50 354.37 181.28 353.15 180.66 352.54 C 180.66 351.15 180.67 349.76 180.68 348.37 C 178.99 348.39 177.31 348.40 175.63 348.44 C 174.74 347.14 173.87 345.83 173.05 344.50 C 173.34 343.68 173.92 342.05 174.22 341.24 C 176.39 338.90 178.64 336.43 181.79 335.45 C 187.01 333.61 191.52 330.07 197.02 328.98 C 201.22 327.78 205.70 327.44 209.71 325.68 C 209.36 319.84 209.19 313.88 209.30 307.97 C 209.58 302.76 202.29 301.25 202.64 296.02 C 202.18 292.83 203.70 289.92 205.60 287.50 C 205.96 280.52 204.42 273.61 204.86 266.62 C 201.05 262.76 200.09 257.33 199.68 252.14 C 190.50 251.08 181.34 247.93 174.64 241.34 C 167.29 234.62 162.99 224.88 162.21 215.02 C 161.91 212.31 162.85 209.73 163.88 207.29 C 161.31 209.00 158.67 210.61 155.93 212.04 C 151.92 223.00 147.25 234.53 137.94 242.10 C 132.72 246.32 124.81 246.76 119.38 242.65 C 107.17 234.09 100.45 218.37 102.22 203.62 C 103.81 195.80 108.00 188.63 113.02 182.50 C 112.77 181.92 112.25 180.77 111.99 180.19 C 113.81 176.80 116.21 173.70 119.32 171.40 C 122.44 168.99 126.64 169.02 130.02 167.14 C 132.17 165.91 134.06 164.29 136.04 162.80 C 132.87 160.74 129.48 158.71 127.41 155.43 C 125.72 153.09 125.29 150.17 124.55 147.45 C 117.70 149.42 110.79 146.52 105.04 142.94 C 98.56 138.82 93.13 132.44 91.65 124.76 C 90.03 115.09 92.65 105.30 96.69 96.55 C 101.37 84.02 115.39 75.97 128.55 78.33 C 130.81 67.73 135.54 57.11 144.27 50.29 M 138.01 59.08 C 131.50 67.80 130.12 78.86 127.52 89.12 C 145.42 95.44 164.17 99.09 183.01 101.23 C 185.16 101.48 187.45 101.70 189.43 100.62 C 196.11 97.45 203.16 94.87 210.54 94.04 C 212.55 81.73 211.23 68.70 205.06 57.70 C 196.63 53.43 187.09 55.19 178.14 56.18 C 170.91 56.97 163.85 58.81 156.86 60.79 C 161.21 58.74 165.83 57.45 170.41 56.05 C 164.32 54.11 159.89 47.83 153.02 48.50 C 146.39 48.62 141.63 54.13 138.01 59.08 M 99.26 94.27 C 93.99 104.94 89.81 117.84 94.54 129.44 C 100.21 140.90 114.08 149.47 126.93 145.57 C 131.53 144.67 134.63 140.95 138.02 138.05 C 145.41 131.65 152.61 125.00 160.52 119.22 C 160.59 118.86 160.73 118.14 160.80 117.78 C 148.59 116.49 136.43 113.75 125.17 108.76 C 123.70 108.23 122.17 107.37 120.57 107.88 C 114.57 109.41 108.81 111.71 103.03 113.92 C 109.16 110.56 115.75 108.13 122.48 106.30 C 122.11 100.46 122.70 94.67 124.93 89.22 C 127.97 87.04 127.65 82.89 128.56 79.65 C 117.01 77.73 104.43 83.62 99.26 94.27 M 126.05 90.14 C 125.02 93.69 124.01 97.26 123.50 100.93 C 137.15 107.95 152.41 110.68 167.39 113.30 C 172.94 109.66 178.46 105.97 184.28 102.77 C 164.49 100.80 144.78 96.89 126.05 90.14 M 191.78 100.71 C 174.48 108.68 159.46 120.70 145.14 133.09 C 141.67 136.36 137.70 139.10 134.69 142.83 C 140.36 142.06 145.75 140.01 151.27 138.57 C 166.03 134.60 180.83 130.51 196.03 128.59 C 205.05 127.36 214.14 124.97 223.28 126.22 C 217.14 126.30 211.07 127.19 205.01 128.02 C 205.52 128.41 206.56 129.19 207.08 129.59 C 215.57 130.89 224.39 131.06 232.80 129.07 C 235.00 128.43 238.03 127.82 238.39 125.08 C 239.26 118.60 237.25 112.13 234.91 106.16 C 233.15 102.31 231.02 97.84 226.65 96.48 C 215.06 92.68 202.56 95.89 191.78 100.71 M 123.72 103.05 C 123.62 104.04 123.43 106.04 123.33 107.03 C 135.31 112.11 148.01 115.56 160.99 116.72 C 163.03 117.14 164.56 116.40 165.58 114.50 C 151.25 112.25 137.06 108.84 123.72 103.05 M 192.35 130.20 C 191.24 134.70 191.04 139.97 194.24 143.71 C 196.71 146.73 201.14 146.73 204.52 145.45 C 210.77 143.04 216.26 137.98 218.05 131.37 L 215.92 131.80 C 211.48 131.26 207.01 130.96 202.61 130.11 C 199.19 130.10 195.77 130.11 192.35 130.20 M 183.40 131.56 C 184.79 136.48 186.22 141.70 184.75 146.79 C 182.94 155.31 174.97 162.56 165.99 161.90 C 159.51 162.01 154.27 157.61 150.17 153.07 C 143.69 157.54 139.02 164.08 132.54 168.52 C 128.60 171.38 123.17 171.10 119.52 174.46 C 116.95 176.55 113.80 179.65 116.04 183.14 C 111.30 187.75 108.21 193.74 105.84 199.83 C 102.74 208.28 104.90 217.61 108.47 225.54 C 111.72 232.16 116.28 238.78 123.23 241.88 C 128.41 244.12 134.53 242.40 138.38 238.44 C 146.19 230.70 150.37 220.21 153.98 210.04 C 157.10 208.60 160.38 207.24 162.83 204.75 C 164.70 202.89 164.82 199.49 167.68 198.70 C 166.66 205.10 164.35 211.44 165.25 218.01 C 166.68 228.58 173.06 238.36 182.17 243.92 C 188.11 247.87 195.27 248.85 202.17 249.83 C 202.96 254.39 202.47 259.57 205.51 263.42 C 208.00 266.09 211.40 267.63 214.33 269.73 C 214.34 277.16 214.77 284.59 215.14 292.01 C 215.45 295.70 211.41 298.20 212.13 301.98 C 212.25 305.47 215.63 307.33 218.16 309.10 C 218.90 315.71 218.96 322.38 219.29 329.02 C 219.20 330.90 219.93 333.79 217.51 334.49 C 212.55 336.12 207.28 336.55 202.30 338.15 C 197.59 339.40 193.60 342.32 189.07 344.02 C 185.64 345.27 182.25 348.33 183.41 352.33 C 199.65 351.85 215.87 350.77 232.12 350.42 C 231.75 346.91 231.29 343.38 230.14 340.03 C 228.75 335.72 226.13 331.68 226.27 326.99 C 226.20 321.02 225.47 315.02 226.08 309.08 C 227.40 307.09 229.84 305.61 229.78 302.95 C 230.41 298.82 227.86 295.26 224.67 292.98 C 224.60 286.69 224.55 280.38 225.35 274.13 C 228.19 274.30 231.01 274.77 233.83 275.19 C 243.58 276.42 253.40 275.12 263.01 273.39 C 267.70 277.04 273.61 277.84 279.39 277.45 C 279.67 281.64 279.84 285.83 279.88 290.02 C 280.36 293.96 275.63 296.73 276.98 300.72 C 277.79 303.81 280.88 305.26 282.98 307.36 C 283.79 310.81 283.46 314.42 283.69 317.95 C 283.74 322.31 284.54 326.66 284.09 331.01 C 283.27 332.65 281.21 332.80 279.66 333.29 C 272.58 334.75 265.21 335.94 259.02 339.93 C 254.59 342.14 247.47 343.50 247.95 349.90 C 264.34 350.20 280.67 348.64 297.04 348.29 C 296.62 344.54 296.00 340.78 294.71 337.22 C 293.43 333.50 291.33 329.97 291.23 325.94 C 290.88 319.63 290.51 313.28 291.02 306.98 C 292.55 304.82 295.08 302.94 294.71 299.97 C 294.97 296.13 292.39 293.06 289.49 290.92 C 289.57 283.52 289.13 275.92 290.68 268.67 C 295.19 261.80 297.58 253.61 297.16 245.38 C 296.73 239.82 296.75 233.99 294.14 228.90 C 292.47 225.09 289.40 222.20 287.08 218.82 C 285.52 215.80 285.63 212.28 285.60 208.98 C 285.77 206.63 285.24 203.75 287.55 202.26 C 288.19 197.22 288.88 192.06 288.27 187.02 C 286.49 182.92 285.49 178.05 282.02 175.00 C 281.09 180.71 280.34 186.71 277.02 191.62 C 275.02 186.94 275.48 181.82 275.23 176.87 C 271.68 180.08 271.15 185.28 267.83 188.72 C 267.30 184.20 267.34 179.65 267.26 175.11 C 266.57 175.50 265.21 176.29 264.53 176.68 C 264.19 180.15 265.35 183.55 265.24 187.02 C 264.76 189.48 262.58 191.32 262.45 193.90 C 262.15 197.11 262.34 200.34 261.95 203.55 C 260.70 198.40 261.99 193.18 262.26 188.02 C 260.90 183.40 259.02 178.76 256.05 174.92 C 254.65 180.63 254.02 186.68 250.90 191.81 C 248.66 186.98 249.42 181.53 248.54 176.41 C 245.96 180.34 244.58 184.94 241.75 188.72 C 241.32 184.01 241.06 179.28 240.33 174.61 C 237.87 177.75 235.34 181.34 235.57 185.54 C 236.01 191.76 234.50 197.88 232.63 203.76 C 231.53 206.40 229.31 208.34 227.35 210.35 C 222.83 214.63 218.39 219.00 213.99 223.41 C 209.95 221.55 205.66 220.28 201.71 218.24 C 197.93 216.26 195.39 212.23 195.27 207.97 C 193.98 188.03 202.17 167.90 196.10 148.22 C 194.19 146.75 192.08 145.32 190.96 143.11 C 189.73 140.67 189.57 137.88 188.68 135.32 C 187.38 133.56 185.18 132.74 183.40 131.56 M 149.50 140.53 C 149.13 149.46 155.68 158.52 164.81 159.52 C 171.61 160.52 178.29 156.20 181.09 150.11 C 183.87 144.62 183.27 138.06 180.95 132.52 C 170.33 134.59 159.94 137.69 149.50 140.53 M 126.98 146.73 C 127.64 153.10 132.08 158.58 138.15 160.57 C 141.63 157.22 145.07 153.80 149.14 151.15 C 147.80 148.03 147.09 144.70 147.00 141.31 C 140.28 142.95 133.74 145.24 126.98 146.73 M 236.25 149.34 C 231.94 155.36 230.40 162.87 229.42 170.08 C 233.30 166.72 236.11 162.24 240.45 159.42 C 239.89 161.45 239.10 163.41 238.13 165.28 C 235.77 169.84 234.89 175.00 234.60 180.08 C 236.90 176.95 238.72 173.47 241.33 170.57 C 241.88 175.19 242.10 179.85 242.68 184.47 C 245.07 180.68 246.17 176.23 248.68 172.50 C 250.60 177.53 249.50 183.11 251.41 188.12 C 253.07 183.76 253.70 179.12 254.86 174.63 C 255.21 173.58 255.37 172.25 256.49 171.72 C 259.47 176.26 260.70 181.70 263.84 186.16 C 264.03 179.94 262.12 173.91 262.30 167.70 C 264.95 170.08 266.70 173.41 269.93 175.14 C 270.25 167.63 267.99 160.28 264.44 153.74 C 262.42 150.19 260.13 146.37 256.33 144.52 C 249.55 141.95 240.70 143.17 236.25 149.34 M 262.79 148.02 C 267.01 156.11 270.48 164.79 271.03 173.97 C 270.90 175.74 269.35 176.74 268.16 177.82 C 268.21 180.14 268.37 182.45 268.60 184.77 C 271.72 181.39 272.76 176.82 274.82 172.83 C 276.45 177.99 276.39 183.41 276.64 188.75 C 281.15 184.29 280.02 177.21 282.32 171.67 C 285.91 176.53 286.77 182.92 290.79 187.46 C 290.97 180.86 288.76 174.51 288.72 167.94 C 291.02 170.67 293.14 173.65 296.22 175.58 C 297.58 168.46 294.47 161.71 291.74 155.33 C 289.62 151.08 287.04 146.55 282.67 144.28 C 275.99 141.89 268.06 143.09 262.79 148.02 M 264.15 173.21 C 262.42 176.09 267.49 173.56 264.15 173.21 M 291.88 220.80 C 292.97 222.44 294.08 224.06 295.21 225.68 C 299.78 226.03 305.17 225.86 308.58 229.47 C 312.13 233.36 311.65 239.15 310.69 243.95 C 308.95 253.15 303.90 262.22 306.49 271.78 C 308.19 270.91 309.91 270.05 311.63 269.19 C 308.73 261.61 311.03 253.58 313.06 246.11 C 314.44 240.52 315.69 233.95 312.17 228.88 C 307.65 222.65 299.51 219.14 291.88 220.80 M 208.02 268.51 C 208.01 274.33 208.39 280.14 208.46 285.96 C 208.85 289.60 204.99 292.12 205.42 295.75 C 205.56 298.15 207.63 299.69 209.09 301.36 C 210.26 297.99 212.13 294.71 211.99 291.03 C 211.98 284.23 211.98 277.42 211.65 270.62 C 210.44 269.92 209.23 269.21 208.02 268.51 M 306.83 274.93 C 304.31 278.30 306.36 282.55 308.27 285.67 C 311.17 290.11 312.62 295.23 314.33 300.19 C 316.23 296.77 318.39 293.51 320.26 290.08 C 322.34 286.24 322.00 281.66 321.41 277.50 C 320.97 274.07 317.76 271.13 314.29 271.22 C 311.57 271.85 308.95 273.12 306.83 274.93 M 273.29 280.09 C 273.63 283.64 273.21 287.18 271.08 290.14 C 268.89 293.47 271.29 297.17 274.02 299.24 C 274.93 296.48 276.36 293.86 276.86 290.98 C 277.14 287.34 276.85 283.69 276.87 280.04 C 275.67 280.06 274.48 280.07 273.29 280.09 M 276.80 305.57 C 277.30 312.40 277.57 319.24 277.41 326.09 C 272.07 327.89 266.45 328.60 261.05 330.17 C 255.90 331.58 251.57 334.89 246.54 336.63 C 243.41 337.63 241.37 340.42 241.04 343.64 C 243.56 343.60 246.42 344.28 248.54 342.52 C 251.97 340.10 256.02 338.86 259.67 336.83 C 266.37 332.99 274.17 332.02 281.60 330.37 C 281.51 323.04 281.44 315.70 280.65 308.40 C 279.36 307.46 278.08 306.52 276.80 305.57 M 212.13 307.73 C 212.30 314.54 212.63 321.35 212.48 328.16 C 204.57 330.79 195.84 331.05 188.59 335.50 C 185.39 337.47 181.51 338.16 178.56 340.53 C 176.95 341.74 176.62 343.81 176.12 345.62 C 178.20 345.65 180.28 345.64 182.36 345.60 C 186.05 342.16 190.98 340.77 195.31 338.38 C 201.94 334.91 209.49 334.05 216.70 332.40 C 216.64 325.07 216.68 317.72 215.84 310.42 C 214.60 309.52 213.36 308.63 212.13 307.73 Z" />
<path fill="#020202" opacity="1.00" d=" M 157.43 141.40 C 161.71 138.97 167.06 144.36 164.70 148.63 C 163.29 152.37 157.50 152.85 155.36 149.55 C 153.20 146.99 154.40 142.69 157.43 141.40 Z" />
<path fill="#020202" opacity="1.00" d=" M 139.34 144.16 C 142.84 141.55 147.73 145.90 146.21 149.73 C 145.33 152.69 141.38 153.87 138.96 152.04 C 136.30 150.26 136.41 145.62 139.34 144.16 Z" />
</g>
<g id="#0cb2efff">
<path fill="#0cb2ef" opacity="1.00" d=" M 138.01 59.08 C 141.63 54.13 146.39 48.62 153.02 48.50 C 159.89 47.83 164.32 54.11 170.41 56.05 C 165.83 57.45 161.21 58.74 156.86 60.79 C 163.85 58.81 170.91 56.97 178.14 56.18 C 187.09 55.19 196.63 53.43 205.06 57.70 C 211.23 68.70 212.55 81.73 210.54 94.04 C 203.16 94.87 196.11 97.45 189.43 100.62 C 187.45 101.70 185.16 101.48 183.01 101.23 C 164.17 99.09 145.42 95.44 127.52 89.12 C 130.12 78.86 131.50 67.80 138.01 59.08 Z" />
<path fill="#0cb2ef" opacity="1.00" d=" M 99.26 94.27 C 104.43 83.62 117.01 77.73 128.56 79.65 C 127.65 82.89 127.97 87.04 124.93 89.22 C 122.70 94.67 122.11 100.46 122.48 106.30 C 115.75 108.13 109.16 110.56 103.03 113.92 C 108.81 111.71 114.57 109.41 120.57 107.88 C 122.17 107.37 123.70 108.23 125.17 108.76 C 136.43 113.75 148.59 116.49 160.80 117.78 C 160.73 118.14 160.59 118.86 160.52 119.22 C 152.61 125.00 145.41 131.65 138.02 138.05 C 134.63 140.95 131.53 144.67 126.93 145.57 C 114.08 149.47 100.21 140.90 94.54 129.44 C 89.81 117.84 93.99 104.94 99.26 94.27 Z" />
<path fill="#0cb2ef" opacity="1.00" d=" M 191.78 100.71 C 202.56 95.89 215.06 92.68 226.65 96.48 C 231.02 97.84 233.15 102.31 234.91 106.16 C 237.25 112.13 239.26 118.60 238.39 125.08 C 238.03 127.82 235.00 128.43 232.80 129.07 C 224.39 131.06 215.57 130.89 207.08 129.59 C 206.56 129.19 205.52 128.41 205.01 128.02 C 211.07 127.19 217.14 126.30 223.28 126.22 C 214.14 124.97 205.05 127.36 196.03 128.59 C 180.83 130.51 166.03 134.60 151.27 138.57 C 145.75 140.01 140.36 142.06 134.69 142.83 C 137.70 139.10 141.67 136.36 145.14 133.09 C 159.46 120.70 174.48 108.68 191.78 100.71 Z" />
<path fill="#0cb2ef" opacity="1.00" d=" M 123.72 103.05 C 137.06 108.84 151.25 112.25 165.58 114.50 C 164.56 116.40 163.03 117.14 160.99 116.72 C 148.01 115.56 135.31 112.11 123.33 107.03 C 123.43 106.04 123.62 104.04 123.72 103.05 Z" />
</g>
<g id="#f6ddbcff">
<path fill="#f6ddbc" opacity="1.00" d=" M 126.05 90.14 C 144.78 96.89 164.49 100.80 184.28 102.77 C 178.46 105.97 172.94 109.66 167.39 113.30 C 152.41 110.68 137.15 107.95 123.50 100.93 C 124.01 97.26 125.02 93.69 126.05 90.14 Z" />
</g>
<g id="#9e846aff">
<path fill="#9e846a" opacity="1.00" d=" M 192.35 130.20 C 195.77 130.11 199.19 130.10 202.61 130.11 C 200.08 133.57 196.32 137.54 197.76 142.21 C 199.41 145.07 203.27 143.85 205.61 142.63 C 210.32 140.43 212.88 135.74 215.92 131.80 L 218.05 131.37 C 216.26 137.98 210.77 143.04 204.52 145.45 C 201.14 146.73 196.71 146.73 194.24 143.71 C 191.04 139.97 191.24 134.70 192.35 130.20 Z" />
<path fill="#9e846a" opacity="1.00" d=" M 183.40 131.56 C 185.18 132.74 187.38 133.56 188.68 135.32 C 189.57 137.88 189.73 140.67 190.96 143.11 C 192.08 145.32 194.19 146.75 196.10 148.22 C 202.17 167.90 193.98 188.03 195.27 207.97 C 195.39 212.23 197.93 216.26 201.71 218.24 C 205.66 220.28 209.95 221.55 213.99 223.41 C 218.39 219.00 222.83 214.63 227.35 210.35 C 229.31 208.34 231.53 206.40 232.63 203.76 C 234.50 197.88 236.01 191.76 235.57 185.54 C 235.34 181.34 237.87 177.75 240.33 174.61 C 241.06 179.28 241.32 184.01 241.75 188.72 C 244.58 184.94 245.96 180.34 248.54 176.41 C 249.42 181.53 248.66 186.98 250.90 191.81 C 254.02 186.68 254.65 180.63 256.05 174.92 C 259.02 178.76 260.90 183.40 262.26 188.02 C 261.99 193.18 260.70 198.40 261.95 203.55 C 262.34 200.34 262.15 197.11 262.45 193.90 C 262.58 191.32 264.76 189.48 265.24 187.02 C 265.35 183.55 264.19 180.15 264.53 176.68 C 265.21 176.29 266.57 175.50 267.26 175.11 C 267.34 179.65 267.30 184.20 267.83 188.72 C 271.15 185.28 271.68 180.08 275.23 176.87 C 275.48 181.82 275.02 186.94 277.02 191.62 C 280.34 186.71 281.09 180.71 282.02 175.00 C 285.49 178.05 286.49 182.92 288.27 187.02 C 288.88 192.06 288.19 197.22 287.55 202.26 C 285.24 203.75 285.77 206.63 285.60 208.98 C 285.63 212.28 285.52 215.80 287.08 218.82 C 289.40 222.20 292.47 225.09 294.14 228.90 C 296.75 233.99 296.73 239.82 297.16 245.38 C 297.58 253.61 295.19 261.80 290.68 268.67 C 289.13 275.92 289.57 283.52 289.49 290.92 C 292.39 293.06 294.97 296.13 294.71 299.97 C 295.08 302.94 292.55 304.82 291.02 306.98 C 290.51 313.28 290.88 319.63 291.23 325.94 C 291.33 329.97 293.43 333.50 294.71 337.22 C 296.00 340.78 296.62 344.54 297.04 348.29 C 280.67 348.64 264.34 350.20 247.95 349.90 C 247.47 343.50 254.59 342.14 259.02 339.93 C 265.21 335.94 272.58 334.75 279.66 333.29 C 281.21 332.80 283.27 332.65 284.09 331.01 C 284.54 326.66 283.74 322.31 283.69 317.95 C 283.46 314.42 283.79 310.81 282.98 307.36 C 280.88 305.26 277.79 303.81 276.98 300.72 C 275.63 296.73 280.36 293.96 279.88 290.02 C 279.84 285.83 279.67 281.64 279.39 277.45 C 273.61 277.84 267.70 277.04 263.01 273.39 C 253.40 275.12 243.58 276.42 233.83 275.19 C 231.01 274.77 228.19 274.30 225.35 274.13 C 224.55 280.38 224.60 286.69 224.67 292.98 C 227.86 295.26 230.41 298.82 229.78 302.95 C 229.84 305.61 227.40 307.09 226.08 309.08 C 225.47 315.02 226.20 321.02 226.27 326.99 C 226.13 331.68 228.75 335.72 230.14 340.03 C 231.29 343.38 231.75 346.91 232.12 350.42 C 215.87 350.77 199.65 351.85 183.41 352.33 C 182.25 348.33 185.64 345.27 189.07 344.02 C 193.60 342.32 197.59 339.40 202.30 338.15 C 207.28 336.55 212.55 336.12 217.51 334.49 C 219.93 333.79 219.20 330.90 219.29 329.02 C 218.96 322.38 218.90 315.71 218.16 309.10 C 215.63 307.33 212.25 305.47 212.13 301.98 C 211.41 298.20 215.45 295.70 215.14 292.01 C 214.77 284.59 214.34 277.16 214.33 269.73 C 211.40 267.63 208.00 266.09 205.51 263.42 C 202.47 259.57 202.96 254.39 202.17 249.83 C 195.27 248.85 188.11 247.87 182.17 243.92 C 173.06 238.36 166.68 228.58 165.25 218.01 C 164.35 211.44 166.66 205.10 167.68 198.70 C 164.82 199.49 164.70 202.89 162.83 204.75 C 160.38 207.24 157.10 208.60 153.98 210.04 C 150.37 220.21 146.19 230.70 138.38 238.44 C 134.53 242.40 128.41 244.12 123.23 241.88 C 116.28 238.78 111.72 232.16 108.47 225.54 C 104.90 217.61 102.74 208.28 105.84 199.83 C 108.21 193.74 111.30 187.75 116.04 183.14 C 113.80 179.65 116.95 176.55 119.52 174.46 C 123.17 171.10 128.60 171.38 132.54 168.52 C 139.02 164.08 143.69 157.54 150.17 153.07 C 154.27 157.61 159.51 162.01 165.99 161.90 C 174.97 162.56 182.94 155.31 184.75 146.79 C 186.22 141.70 184.79 136.48 183.40 131.56 M 121.43 191.15 C 122.97 193.68 124.88 195.97 127.08 197.96 C 126.37 194.87 124.56 192.18 121.43 191.15 M 113.63 210.94 C 118.60 208.45 119.85 202.57 120.08 197.51 C 115.10 199.88 113.26 205.78 113.63 210.94 Z" />
<path fill="#9e846a" opacity="1.00" d=" M 291.88 220.80 C 299.51 219.14 307.65 222.65 312.17 228.88 C 315.69 233.95 314.44 240.52 313.06 246.11 C 311.03 253.58 308.73 261.61 311.63 269.19 C 309.91 270.05 308.19 270.91 306.49 271.78 C 303.90 262.22 308.95 253.15 310.69 243.95 C 311.65 239.15 312.13 233.36 308.58 229.47 C 305.17 225.86 299.78 226.03 295.21 225.68 C 294.08 224.06 292.97 222.44 291.88 220.80 Z" />
</g>
<g id="#754d2cff">
<path fill="#754d2c" opacity="1.00" d=" M 202.61 130.11 C 207.01 130.96 211.48 131.26 215.92 131.80 C 212.88 135.74 210.32 140.43 205.61 142.63 C 203.27 143.85 199.41 145.07 197.76 142.21 C 196.32 137.54 200.08 133.57 202.61 130.11 Z" />
<path fill="#754d2c" opacity="1.00" d=" M 236.25 149.34 C 240.70 143.17 249.55 141.95 256.33 144.52 C 260.13 146.37 262.42 150.19 264.44 153.74 C 267.99 160.28 270.25 167.63 269.93 175.14 C 266.70 173.41 264.95 170.08 262.30 167.70 C 262.12 173.91 264.03 179.94 263.84 186.16 C 260.70 181.70 259.47 176.26 256.49 171.72 C 255.37 172.25 255.21 173.58 254.86 174.63 C 253.70 179.12 253.07 183.76 251.41 188.12 C 249.50 183.11 250.60 177.53 248.68 172.50 C 246.17 176.23 245.07 180.68 242.68 184.47 C 242.10 179.85 241.88 175.19 241.33 170.57 C 238.72 173.47 236.90 176.95 234.60 180.08 C 234.89 175.00 235.77 169.84 238.13 165.28 C 239.10 163.41 239.89 161.45 240.45 159.42 C 236.11 162.24 233.30 166.72 229.42 170.08 C 230.40 162.87 231.94 155.36 236.25 149.34 Z" />
<path fill="#754d2c" opacity="1.00" d=" M 262.79 148.02 C 268.06 143.09 275.99 141.89 282.67 144.28 C 287.04 146.55 289.62 151.08 291.74 155.33 C 294.47 161.71 297.58 168.46 296.22 175.58 C 293.14 173.65 291.02 170.67 288.72 167.94 C 288.76 174.51 290.97 180.86 290.79 187.46 C 286.77 182.92 285.91 176.53 282.32 171.67 C 280.02 177.21 281.15 184.29 276.64 188.75 C 276.39 183.41 276.45 177.99 274.82 172.83 C 272.76 176.82 271.72 181.39 268.60 184.77 C 268.37 182.45 268.21 180.14 268.16 177.82 C 269.35 176.74 270.90 175.74 271.03 173.97 C 270.48 164.79 267.01 156.11 262.79 148.02 Z" />
<path fill="#754d2c" opacity="1.00" d=" M 264.15 173.21 C 267.49 173.56 262.42 176.09 264.15 173.21 Z" />
<path fill="#754d2c" opacity="1.00" d=" M 121.43 191.15 C 124.56 192.18 126.37 194.87 127.08 197.96 C 124.88 195.97 122.97 193.68 121.43 191.15 Z" />
<path fill="#754d2c" opacity="1.00" d=" M 113.63 210.94 C 113.26 205.78 115.10 199.88 120.08 197.51 C 119.85 202.57 118.60 208.45 113.63 210.94 Z" />
<path fill="#754d2c" opacity="1.00" d=" M 208.02 268.51 C 209.23 269.21 210.44 269.92 211.65 270.62 C 211.98 277.42 211.98 284.23 211.99 291.03 C 212.13 294.71 210.26 297.99 209.09 301.36 C 207.63 299.69 205.56 298.15 205.42 295.75 C 204.99 292.12 208.85 289.60 208.46 285.96 C 208.39 280.14 208.01 274.33 208.02 268.51 Z" />
<path fill="#754d2c" opacity="1.00" d=" M 306.83 274.93 C 308.95 273.12 311.57 271.85 314.29 271.22 C 317.76 271.13 320.97 274.07 321.41 277.50 C 322.00 281.66 322.34 286.24 320.26 290.08 C 318.39 293.51 316.23 296.77 314.33 300.19 C 312.62 295.23 311.17 290.11 308.27 285.67 C 306.36 282.55 304.31 278.30 306.83 274.93 Z" />
<path fill="#754d2c" opacity="1.00" d=" M 273.29 280.09 C 274.48 280.07 275.67 280.06 276.87 280.04 C 276.85 283.69 277.14 287.34 276.86 290.98 C 276.36 293.86 274.93 296.48 274.02 299.24 C 271.29 297.17 268.89 293.47 271.08 290.14 C 273.21 287.18 273.63 283.64 273.29 280.09 Z" />
<path fill="#754d2c" opacity="1.00" d=" M 276.80 305.57 C 278.08 306.52 279.36 307.46 280.65 308.40 C 281.44 315.70 281.51 323.04 281.60 330.37 C 274.17 332.02 266.37 332.99 259.67 336.83 C 256.02 338.86 251.97 340.10 248.54 342.52 C 246.42 344.28 243.56 343.60 241.04 343.64 C 241.37 340.42 243.41 337.63 246.54 336.63 C 251.57 334.89 255.90 331.58 261.05 330.17 C 266.45 328.60 272.07 327.89 277.41 326.09 C 277.57 319.24 277.30 312.40 276.80 305.57 Z" />
<path fill="#754d2c" opacity="1.00" d=" M 212.13 307.73 C 213.36 308.63 214.60 309.52 215.84 310.42 C 216.68 317.72 216.64 325.07 216.70 332.40 C 209.49 334.05 201.94 334.91 195.31 338.38 C 190.98 340.77 186.05 342.16 182.36 345.60 C 180.28 345.64 178.20 345.65 176.12 345.62 C 176.62 343.81 176.95 341.74 178.56 340.53 C 181.51 338.16 185.39 337.47 188.59 335.50 C 195.84 331.05 204.57 330.79 212.48 328.16 C 212.63 321.35 212.30 314.54 212.13 307.73 Z" />
</g>
<g id="#fefefeff">
<path fill="#fefefe" opacity="1.00" d=" M 149.50 140.53 C 159.94 137.69 170.33 134.59 180.95 132.52 C 183.27 138.06 183.87 144.62 181.09 150.11 C 178.29 156.20 171.61 160.52 164.81 159.52 C 155.68 158.52 149.13 149.46 149.50 140.53 M 157.43 141.40 C 154.40 142.69 153.20 146.99 155.36 149.55 C 157.50 152.85 163.29 152.37 164.70 148.63 C 167.06 144.36 161.71 138.97 157.43 141.40 Z" />
<path fill="#fefefe" opacity="1.00" d=" M 126.98 146.73 C 133.74 145.24 140.28 142.95 147.00 141.31 C 147.09 144.70 147.80 148.03 149.14 151.15 C 145.07 153.80 141.63 157.22 138.15 160.57 C 132.08 158.58 127.64 153.10 126.98 146.73 M 139.34 144.16 C 136.41 145.62 136.30 150.26 138.96 152.04 C 141.38 153.87 145.33 152.69 146.21 149.73 C 147.73 145.90 142.84 141.55 139.34 144.16 Z" />
<path fill="#fefefe" opacity="1.00" d=" M 232.35 198.37 L 232.92 198.07 C 232.28 200.37 231.32 202.64 229.61 204.37 C 230.79 202.49 231.79 200.52 232.35 198.37 Z" />
<path fill="#fefefe" opacity="1.00" d=" M 293.19 318.90 C 294.31 321.70 293.71 324.78 293.88 327.72 C 293.46 324.80 293.26 321.85 293.19 318.90 Z" />
</g>
</svg>
