<?xml version="1.0" encoding="UTF-8" ?>
<!DOCTYPE svg PUBLIC "-//W3C//DTD SVG 1.1//EN" "http://www.w3.org/Graphics/SVG/1.1/DTD/svg11.dtd">
<svg width="330pt" height="24pt" viewBox="0 0 330 24" version="1.1" xmlns="http://www.w3.org/2000/svg">
<g id="#f4c165ff">
<path fill="#f4c165" opacity="1.00" d=" M 135.61 8.66 C 146.45 7.96 157.87 9.20 168.24 8.34 C 176.54 4.96 172.40 8.29 171.04 10.11 C 172.86 10.13 175.45 10.66 174.44 8.02 C 192.22 7.72 209.98 8.62 227.76 8.63 C 243.39 11.28 259.78 7.35 275.00 12.96 C 293.34 15.82 311.61 9.89 330.00 9.92 L 330.00 24.00 L 0.00 24.00 L 0.00 8.86 C 1.65 9.01 4.95 9.31 6.61 9.46 C 26.37 17.44 48.67 10.70 69.48 11.59 C 84.78 15.32 99.63 8.16 115.00 8.94 C 121.94 7.36 129.02 12.19 135.61 8.66 Z" />
</g>
</svg>
