<?xml version="1.0" encoding="UTF-8" ?>
<!DOCTYPE svg PUBLIC "-//W3C//DTD SVG 1.1//EN" "http://www.w3.org/Graphics/SVG/1.1/DTD/svg11.dtd">
<svg width="350pt" height="374pt" viewBox="0 0 350 374" version="1.1" xmlns="http://www.w3.org/2000/svg">
<g id="#020201fe">
<path fill="#020201" opacity="1.00" d=" M 144.31 50.26 C 148.37 46.99 154.13 46.18 158.98 48.01 C 162.95 49.53 165.79 53.19 170.07 54.02 C 179.39 56.20 188.83 52.09 198.18 53.96 C 200.87 54.59 203.73 55.21 205.98 56.91 C 212.92 67.67 213.56 81.07 212.21 93.46 C 219.59 93.34 229.24 93.24 233.51 100.50 C 237.80 107.82 240.68 116.50 239.60 125.07 C 239.48 126.69 238.70 128.39 237.08 129.00 C 231.94 131.29 226.25 131.74 220.69 131.98 C 218.26 141.56 208.79 148.83 199.01 149.33 C 204.10 167.37 197.80 185.80 197.49 204.03 C 197.56 207.81 197.76 212.41 201.14 214.84 C 204.86 217.52 209.42 218.56 213.56 220.41 C 218.84 214.92 224.26 209.56 229.71 204.25 C 231.26 202.56 232.47 200.50 232.69 198.19 C 233.98 193.88 234.51 189.38 234.30 184.89 C 233.76 184.55 232.67 183.87 232.12 183.53 C 233.13 179.59 232.89 175.47 233.76 171.50 C 234.19 170.32 236.96 168.08 235.11 167.17 C 232.79 169.18 231.45 172.53 228.31 173.82 C 227.90 172.03 227.46 170.20 227.77 168.36 C 229.09 160.19 230.98 151.65 236.52 145.21 C 243.50 139.03 255.85 138.35 261.87 146.23 C 267.37 140.51 276.71 138.67 283.83 142.31 C 287.65 144.46 289.80 148.49 291.87 152.18 C 295.29 159.05 298.32 166.43 298.27 174.24 C 298.51 176.14 296.55 176.97 295.39 178.04 C 293.82 176.60 292.26 175.17 290.71 173.71 C 291.24 179.23 292.73 185.12 290.92 190.50 L 289.36 190.82 C 290.25 199.32 286.64 207.78 288.74 216.18 C 289.17 217.06 289.60 217.94 290.04 218.83 C 296.58 215.95 304.23 218.13 309.64 222.40 C 315.76 226.26 318.46 234.19 317.05 241.13 C 315.51 249.95 311.10 258.81 313.94 267.85 C 316.37 268.64 318.92 269.36 321.00 270.93 C 324.71 274.84 325.36 280.73 324.71 285.87 C 323.10 292.54 318.69 298.07 315.15 303.82 C 314.51 303.78 313.22 303.71 312.57 303.68 C 310.59 299.52 310.02 294.84 307.90 290.74 C 306.08 287.25 303.78 283.95 302.75 280.10 C 302.46 277.71 303.61 275.44 304.15 273.15 C 300.65 264.05 305.17 254.78 307.29 245.95 C 308.56 241.06 310.00 235.00 306.12 230.89 C 303.59 228.81 300.01 229.00 296.95 228.37 C 299.71 237.00 300.55 246.44 298.98 255.39 C 298.07 261.11 294.89 266.00 292.51 271.16 C 291.73 276.81 293.42 282.73 291.50 288.22 C 293.63 291.29 296.47 294.08 297.19 297.90 C 298.35 301.97 295.85 305.84 293.08 308.61 C 293.05 312.69 292.98 316.78 293.63 320.83 C 294.11 323.92 293.37 327.21 294.61 330.18 C 297.16 336.44 299.96 343.08 299.58 349.95 C 292.56 352.36 285.04 350.64 277.83 351.66 C 272.05 352.51 266.18 351.79 260.37 352.25 C 256.09 352.41 251.80 352.62 247.52 352.49 C 245.71 351.18 245.42 348.92 245.10 346.90 C 243.79 346.89 242.49 346.89 241.20 346.89 C 240.56 346.27 239.29 345.04 238.65 344.42 C 238.67 341.97 238.49 339.19 240.47 337.37 C 243.40 333.99 248.11 333.33 251.77 331.04 C 258.75 326.75 267.09 326.10 274.79 323.85 C 275.01 316.75 273.43 309.74 274.00 302.63 C 271.19 300.40 267.66 298.10 267.36 294.15 C 266.65 291.04 268.65 288.45 270.26 286.04 C 270.30 283.90 270.32 281.77 270.33 279.64 C 268.11 278.98 265.89 278.22 264.02 276.80 L 263.76 276.56 C 261.55 274.23 258.24 276.80 255.63 277.04 C 246.32 278.82 236.51 279.06 227.39 276.30 C 228.17 281.55 226.21 286.75 227.23 292.01 L 227.26 292.38 L 227.59 292.58 C 231.75 294.61 232.63 299.73 232.11 303.89 C 232.30 307.20 227.89 308.63 228.41 312.00 C 228.50 320.04 227.68 328.59 231.41 336.02 C 233.57 340.47 233.87 345.45 234.99 350.20 C 234.76 350.85 234.30 352.15 234.08 352.80 C 230.99 352.70 227.90 352.83 224.85 353.28 C 219.36 353.99 213.80 353.02 208.32 353.92 C 202.44 354.82 196.46 353.66 190.59 354.66 C 188.13 355.04 185.63 355.03 183.16 354.98 C 182.54 354.38 181.30 353.19 180.68 352.59 C 180.67 351.18 180.67 349.77 180.67 348.36 C 179.01 348.39 177.34 348.42 175.68 348.46 C 174.77 347.16 173.88 345.85 173.02 344.52 C 173.32 343.71 173.91 342.08 174.21 341.26 C 177.83 335.94 184.38 334.93 189.55 331.78 C 195.49 328.51 202.41 328.14 208.79 326.16 C 210.41 325.97 209.78 324.01 209.70 322.96 C 208.73 317.39 209.78 311.72 209.10 306.13 C 208.02 302.92 204.38 301.47 203.03 298.41 C 201.85 294.62 202.96 290.51 205.57 287.58 C 206.00 280.54 204.41 273.58 204.84 266.53 C 201.08 262.79 200.00 257.43 199.82 252.32 C 195.84 251.31 191.68 251.02 187.84 249.46 C 175.00 244.98 165.30 233.16 162.88 219.84 C 161.75 215.76 162.18 211.48 163.44 207.49 C 161.12 209.29 158.54 210.70 155.92 212.01 C 153.24 220.07 149.59 227.86 144.86 234.93 C 141.02 239.63 136.50 244.67 130.09 245.43 C 122.48 246.54 116.20 240.86 111.64 235.50 C 104.11 225.90 99.99 212.95 102.81 200.86 C 104.78 194.68 108.02 188.93 111.93 183.77 C 113.20 182.49 112.15 180.63 112.70 179.11 C 114.01 176.11 116.47 173.83 118.89 171.72 C 121.67 169.29 125.50 169.12 128.78 167.74 C 131.55 166.61 133.80 164.57 135.92 162.52 C 129.88 159.76 125.32 154.22 124.58 147.52 C 115.73 149.36 107.04 145.20 100.51 139.51 C 95.18 134.85 91.35 128.15 91.24 120.95 C 90.65 111.25 93.94 101.81 98.29 93.28 C 103.74 82.51 116.70 76.25 128.53 78.35 C 130.84 67.73 135.53 57.08 144.31 50.26 M 138.55 58.57 C 131.75 67.32 130.31 78.60 127.72 89.03 C 146.83 95.60 166.85 99.78 186.99 101.26 C 194.65 98.17 202.32 94.85 210.58 93.67 C 212.04 81.65 211.41 68.65 204.87 58.11 C 197.79 53.72 188.91 55.21 181.06 56.02 C 172.82 56.66 164.82 58.77 156.84 60.79 C 161.02 58.54 165.69 57.56 170.06 55.79 C 164.20 54.39 160.29 48.44 153.96 48.61 C 147.26 48.28 142.23 53.63 138.55 58.57 M 103.94 87.94 C 99.70 92.34 97.52 98.19 95.43 103.82 C 92.70 111.87 91.24 121.02 94.60 129.11 C 98.99 138.55 108.70 145.26 119.00 146.41 C 124.43 146.38 130.32 145.24 134.24 141.17 C 142.94 133.22 152.05 125.73 161.02 118.11 C 148.72 116.60 136.41 114.05 125.05 108.94 C 123.78 108.52 122.47 107.62 121.08 108.07 C 114.85 109.34 109.03 112.03 102.95 113.82 C 109.02 110.50 115.49 107.90 122.22 106.23 C 122.63 103.51 122.22 100.78 122.34 98.06 C 122.80 94.93 123.96 91.96 124.77 88.91 C 125.24 88.60 126.18 87.97 126.65 87.65 C 127.20 85.04 127.75 82.42 128.27 79.80 C 119.49 78.50 110.11 81.51 103.94 87.94 M 126.18 90.24 C 124.81 93.67 124.06 97.31 123.52 100.95 C 137.28 107.80 152.54 111.10 167.69 113.06 C 173.21 109.59 178.56 105.82 184.35 102.77 C 164.57 100.86 144.93 96.84 126.18 90.24 M 187.20 103.08 C 167.72 113.31 150.87 127.80 134.83 142.70 C 140.32 141.88 145.53 139.90 150.89 138.52 C 166.02 134.44 181.19 130.20 196.79 128.34 C 203.13 127.27 209.48 126.19 215.91 125.80 C 219.19 125.72 222.98 124.09 225.75 126.63 C 219.19 126.47 212.68 126.98 206.18 127.95 L 206.06 129.41 C 215.63 130.59 225.59 131.28 234.91 128.26 C 236.56 127.85 238.10 126.76 238.29 124.93 C 239.09 118.57 237.09 112.21 234.81 106.33 C 233.02 102.37 230.81 97.74 226.23 96.50 C 212.99 92.48 199.06 97.06 187.20 103.08 M 123.68 103.26 C 123.41 104.99 123.09 107.26 125.38 107.62 C 136.67 112.52 148.81 115.33 161.03 116.62 C 162.89 117.11 164.36 115.84 165.83 114.92 C 159.59 113.34 153.16 112.61 146.94 110.95 C 138.91 109.26 131.33 106.11 123.68 103.26 M 192.37 130.21 C 191.19 134.73 191.06 140.04 194.29 143.78 C 196.79 146.74 201.17 146.72 204.53 145.45 C 210.73 143.05 216.19 138.05 218.02 131.51 C 217.35 131.58 216.02 131.73 215.35 131.81 C 211.14 131.22 206.86 131.03 202.73 129.98 L 202.55 130.21 C 199.16 130.10 195.76 130.08 192.37 130.21 M 187.62 131.08 C 187.79 132.50 188.45 132.72 189.59 131.76 C 189.42 130.34 188.76 130.11 187.62 131.08 M 183.34 131.87 C 184.82 136.41 186.11 141.25 184.91 146.02 C 183.38 154.86 175.26 162.57 166.00 161.91 C 159.53 161.99 154.26 157.64 150.20 153.07 C 143.49 157.62 138.77 164.50 131.96 168.89 C 128.30 171.35 123.44 171.15 120.03 174.06 C 117.37 176.21 113.58 179.44 116.09 183.11 C 111.28 187.69 108.24 193.73 105.83 199.84 C 102.67 208.52 105.00 218.11 108.78 226.19 C 112.14 232.77 116.83 239.39 123.97 242.17 C 129.04 243.97 134.72 242.19 138.40 238.42 C 146.19 230.68 150.38 220.20 153.99 210.02 C 157.48 208.41 161.37 206.90 163.70 203.66 C 164.95 201.93 165.05 199.05 167.67 198.80 C 166.63 205.17 164.35 211.48 165.25 218.02 C 166.71 228.82 173.35 238.79 182.77 244.28 C 188.60 247.99 195.52 248.86 202.19 249.84 C 202.89 253.99 202.51 258.49 204.72 262.26 C 206.81 265.93 211.30 266.98 214.16 269.86 C 214.64 277.23 214.61 284.64 215.15 292.02 C 215.58 295.44 211.90 297.64 212.10 301.02 C 211.67 304.91 215.28 307.25 218.13 309.04 C 218.92 316.66 219.18 324.34 219.27 332.00 C 219.53 333.83 217.58 334.64 216.13 334.95 C 209.09 336.71 201.58 337.40 195.21 341.15 C 191.48 343.50 186.49 344.08 183.86 347.94 C 182.82 349.21 183.47 350.90 183.51 352.36 C 199.71 351.80 215.89 350.81 232.10 350.42 C 231.77 346.91 231.29 343.38 230.15 340.04 C 228.78 335.71 226.08 331.68 226.28 326.97 C 226.19 321.00 225.51 315.00 226.05 309.03 C 227.40 307.10 229.85 305.68 229.77 303.03 C 230.43 298.89 227.92 295.26 224.67 293.00 C 224.61 286.72 224.55 280.42 225.31 274.18 C 228.19 274.27 231.04 274.75 233.88 275.20 C 243.62 276.41 253.42 275.13 263.01 273.38 C 267.69 277.07 273.62 277.82 279.39 277.47 C 279.66 281.98 279.91 286.51 279.85 291.04 C 279.73 294.29 276.15 296.58 276.80 300.00 C 277.38 303.41 280.48 305.40 283.16 307.15 C 283.67 313.76 283.67 320.41 284.21 327.02 C 284.14 328.89 284.87 331.72 282.48 332.44 C 275.12 334.74 266.98 335.02 260.29 339.24 C 256.81 341.62 252.10 341.91 249.29 345.26 C 247.98 346.45 248.28 348.34 248.01 349.91 C 264.36 350.19 280.66 348.63 297.00 348.31 C 296.72 341.72 294.13 335.63 291.78 329.59 C 290.57 322.79 290.88 315.81 290.81 308.93 C 290.30 305.57 294.82 304.37 294.65 301.02 C 295.31 296.88 292.79 293.18 289.49 290.95 C 289.35 284.30 289.56 277.63 290.12 271.00 C 290.21 268.37 292.15 266.39 293.25 264.13 C 297.48 256.14 297.72 246.76 296.57 237.98 C 296.21 231.63 293.04 225.80 288.83 221.18 C 285.31 217.74 285.58 212.48 285.63 207.95 C 285.79 205.94 285.36 203.41 287.58 202.37 C 288.09 197.55 288.68 192.71 288.47 187.87 C 287.82 185.05 286.42 182.49 285.33 179.83 C 284.46 178.09 283.96 175.89 281.93 175.13 C 281.24 180.75 280.15 186.46 277.33 191.45 C 274.57 187.12 275.69 181.77 275.27 176.94 C 271.52 179.92 271.33 185.40 267.79 188.65 C 267.31 184.17 267.34 179.67 267.28 175.17 C 266.59 175.54 265.21 176.27 264.52 176.64 C 263.81 181.43 267.47 187.46 262.91 191.14 C 262.09 195.22 262.39 199.39 261.98 203.51 C 260.62 198.37 262.01 193.11 262.28 187.93 C 260.74 183.44 259.17 178.63 255.98 175.01 C 254.67 180.68 254.03 186.68 250.92 191.75 C 248.57 187.00 249.47 181.57 248.59 176.50 C 245.76 180.24 244.75 185.01 241.74 188.65 C 241.24 184.00 241.17 179.29 240.28 174.68 C 237.47 178.06 235.04 182.20 235.55 186.77 C 235.99 192.03 234.48 197.13 233.15 202.15 C 232.36 205.82 229.33 208.30 226.83 210.85 C 222.47 214.96 218.22 219.19 213.98 223.42 C 209.95 221.53 205.65 220.27 201.69 218.23 C 197.90 216.25 195.41 212.19 195.24 207.93 C 194.01 187.99 202.17 167.86 196.09 148.18 C 194.35 146.88 192.47 145.63 191.33 143.73 C 189.72 141.20 189.64 138.11 188.72 135.33 C 187.48 133.48 185.25 132.78 183.34 131.87 M 177.45 133.01 L 178.61 133.15 C 168.75 134.86 159.19 137.98 149.52 140.52 C 149.13 149.49 155.73 158.60 164.93 159.53 C 171.72 160.48 178.37 156.11 181.14 150.03 C 183.86 144.57 183.26 138.09 180.99 132.60 C 180.10 132.70 178.33 132.91 177.45 133.01 M 127.03 146.71 C 127.60 153.09 132.08 158.59 138.15 160.57 C 141.63 157.21 145.08 153.79 149.15 151.14 C 147.81 148.00 147.18 144.64 146.72 141.27 C 140.17 143.11 133.68 145.21 127.03 146.71 M 235.82 149.92 C 232.18 155.72 229.87 162.67 230.21 169.57 C 233.57 166.16 236.33 162.12 240.36 159.43 C 240.01 162.61 237.86 165.12 236.85 168.08 C 235.55 171.90 234.74 175.90 234.67 179.95 C 237.13 177.03 238.44 173.23 241.40 170.73 C 241.97 175.24 242.17 179.78 242.52 184.31 C 245.46 180.96 245.75 176.14 248.59 172.80 C 250.85 177.66 249.60 183.20 251.18 188.24 C 253.55 182.91 253.97 177.01 255.76 171.50 C 259.83 175.41 260.12 181.58 263.85 185.76 C 263.94 179.75 262.24 173.91 262.16 167.92 C 265.39 169.61 266.32 173.86 270.00 174.94 C 270.21 166.52 267.34 158.30 262.95 151.20 C 261.09 148.38 258.92 145.42 255.63 144.23 C 248.72 141.99 239.99 143.50 235.82 149.92 M 262.83 147.99 C 265.17 153.31 268.19 158.42 269.35 164.19 C 270.09 168.23 271.85 172.37 270.38 176.46 C 269.81 176.69 268.67 177.15 268.09 177.37 C 268.20 179.81 268.34 182.24 268.57 184.68 C 271.88 181.49 272.64 176.78 274.79 172.89 C 276.56 178.04 276.29 183.52 276.73 188.87 C 281.08 184.20 279.93 177.25 282.41 171.71 C 285.97 176.53 286.67 183.03 290.82 187.37 C 290.98 180.82 288.69 174.52 288.75 167.98 C 291.13 170.58 292.99 173.81 296.24 175.48 C 296.50 172.23 296.81 168.85 295.67 165.73 C 293.32 158.60 290.76 151.04 285.07 145.84 C 281.80 142.87 277.06 143.09 272.95 143.28 C 269.07 143.44 265.79 145.70 262.83 147.99 M 264.16 173.21 C 262.39 176.06 267.49 173.60 264.16 173.21 M 291.90 220.82 C 292.98 222.44 294.07 224.06 295.17 225.67 C 298.94 225.95 302.96 225.90 306.39 227.75 C 309.40 229.37 311.04 232.72 311.30 236.04 C 312.22 248.28 303.22 259.49 306.49 271.78 C 308.21 270.91 309.93 270.05 311.65 269.18 C 308.70 261.63 311.05 253.59 313.05 246.13 C 314.45 240.54 315.70 233.94 312.16 228.86 C 307.63 222.67 299.51 219.10 291.90 220.82 M 208.02 268.52 C 208.02 274.37 208.37 280.20 208.46 286.05 C 208.92 289.70 204.84 292.11 205.43 295.78 C 205.54 298.17 207.55 299.72 209.13 301.24 C 210.25 297.88 212.23 294.65 211.99 290.99 C 211.96 284.20 212.00 277.41 211.66 270.63 C 210.44 269.93 209.23 269.22 208.02 268.52 M 306.81 274.92 C 304.18 278.58 306.61 282.98 308.62 286.28 C 311.41 290.52 312.60 295.48 314.34 300.17 C 316.22 296.78 318.36 293.53 320.24 290.14 C 322.35 286.31 321.97 281.71 321.42 277.54 C 321.03 274.25 318.18 271.66 314.98 271.16 C 311.97 271.50 309.16 273.08 306.81 274.92 M 273.26 280.09 C 273.28 282.06 273.41 284.05 273.18 286.02 C 272.27 288.64 269.80 290.86 270.30 293.84 C 270.44 296.22 272.44 297.74 274.09 299.18 C 274.60 297.66 275.13 296.16 275.72 294.69 C 277.95 290.13 276.58 284.92 276.89 280.06 C 275.67 280.07 274.46 280.08 273.26 280.09 M 276.83 305.63 C 277.04 312.36 278.03 319.20 277.13 325.89 C 272.39 328.26 266.90 328.30 261.90 329.93 C 256.37 331.16 251.89 334.85 246.56 336.60 C 243.50 337.64 241.15 340.35 241.19 343.67 C 243.64 343.58 246.45 344.32 248.50 342.58 C 251.66 340.10 255.61 339.13 259.05 337.17 C 265.88 333.06 273.93 332.07 281.57 330.39 C 281.55 323.05 281.42 315.70 280.65 308.40 C 279.37 307.48 278.10 306.55 276.83 305.63 M 212.13 307.72 C 212.28 314.54 212.66 321.35 212.46 328.17 C 204.54 330.83 195.76 331.02 188.53 335.55 C 185.74 337.27 182.49 338.01 179.68 339.67 C 177.92 340.92 175.85 342.98 176.56 345.35 C 178.43 346.02 180.46 345.61 182.40 345.60 C 185.82 342.21 190.57 341.00 194.67 338.71 C 201.43 334.98 209.23 334.10 216.66 332.43 C 216.67 325.09 216.68 317.72 215.82 310.42 C 214.59 309.52 213.35 308.62 212.13 307.72 Z" />
<path fill="#020201" opacity="1.00" d=" M 157.41 141.41 C 161.71 138.95 167.11 144.41 164.67 148.68 C 163.24 152.37 157.51 152.83 155.37 149.56 C 153.20 147.02 154.38 142.71 157.41 141.41 Z" />
<path fill="#020201" opacity="1.00" d=" M 139.33 144.16 C 142.87 141.53 147.81 145.98 146.17 149.82 C 145.19 153.03 140.53 154.00 138.35 151.48 C 136.29 149.51 136.70 145.47 139.33 144.16 Z" />
</g>
<g id="#ef0909ff">
<path fill="#ef0909" opacity="1.00" d=" M 138.55 58.57 C 142.23 53.63 147.26 48.28 153.96 48.61 C 160.29 48.44 164.20 54.39 170.06 55.79 C 165.69 57.56 161.02 58.54 156.84 60.79 C 164.82 58.77 172.82 56.66 181.06 56.02 C 188.91 55.21 197.79 53.72 204.87 58.11 C 211.41 68.65 212.04 81.65 210.58 93.67 C 202.32 94.85 194.65 98.17 186.99 101.26 C 166.85 99.78 146.83 95.60 127.72 89.03 C 130.31 78.60 131.75 67.32 138.55 58.57 Z" />
<path fill="#ef0909" opacity="1.00" d=" M 103.94 87.94 C 110.11 81.51 119.49 78.50 128.27 79.80 C 127.75 82.42 127.20 85.04 126.65 87.65 C 126.18 87.97 125.24 88.60 124.77 88.91 C 123.96 91.96 122.80 94.93 122.34 98.06 C 122.22 100.78 122.63 103.51 122.22 106.23 C 115.49 107.90 109.02 110.50 102.95 113.82 C 109.03 112.03 114.85 109.34 121.08 108.07 C 122.47 107.62 123.78 108.52 125.05 108.94 C 136.41 114.05 148.72 116.60 161.02 118.11 C 152.05 125.73 142.94 133.22 134.24 141.17 C 130.32 145.24 124.43 146.38 119.00 146.41 C 108.70 145.26 98.99 138.55 94.60 129.11 C 91.24 121.02 92.70 111.87 95.43 103.82 C 97.52 98.19 99.70 92.34 103.94 87.94 Z" />
<path fill="#ef0909" opacity="1.00" d=" M 187.20 103.08 C 199.06 97.06 212.99 92.48 226.23 96.50 C 230.81 97.74 233.02 102.37 234.81 106.33 C 237.09 112.21 239.09 118.57 238.29 124.93 C 238.10 126.76 236.56 127.85 234.91 128.26 C 225.59 131.28 215.63 130.59 206.06 129.41 L 206.18 127.95 C 212.68 126.98 219.19 126.47 225.75 126.63 C 222.98 124.09 219.19 125.72 215.91 125.80 C 209.48 126.19 203.13 127.27 196.79 128.34 C 181.19 130.20 166.02 134.44 150.89 138.52 C 145.53 139.90 140.32 141.88 134.83 142.70 C 150.87 127.80 167.72 113.31 187.20 103.08 Z" />
<path fill="#ef0909" opacity="1.00" d=" M 123.68 103.26 C 131.33 106.11 138.91 109.26 146.94 110.95 C 153.16 112.61 159.59 113.34 165.83 114.92 C 164.36 115.84 162.89 117.11 161.03 116.62 C 148.81 115.33 136.67 112.52 125.38 107.62 C 123.09 107.26 123.41 104.99 123.68 103.26 Z" />
</g>
<g id="#f6ddbcff">
<path fill="#f6ddbc" opacity="1.00" d=" M 126.18 90.24 C 144.93 96.84 164.57 100.86 184.35 102.77 C 178.56 105.82 173.21 109.59 167.69 113.06 C 152.54 111.10 137.28 107.80 123.52 100.95 C 124.06 97.31 124.81 93.67 126.18 90.24 Z" />
</g>
<g id="#9e846aff">
<path fill="#9e846a" opacity="1.00" d=" M 192.37 130.21 C 195.76 130.08 199.16 130.10 202.55 130.21 C 200.01 133.57 196.28 137.57 197.78 142.13 C 198.96 145.20 202.73 143.88 204.99 142.94 C 209.90 140.87 212.95 136.34 215.35 131.81 C 216.02 131.73 217.35 131.58 218.02 131.51 C 216.19 138.05 210.73 143.05 204.53 145.45 C 201.17 146.72 196.79 146.74 194.29 143.78 C 191.06 140.04 191.19 134.73 192.37 130.21 Z" />
<path fill="#9e846a" opacity="1.00" d=" M 183.34 131.87 C 185.25 132.78 187.48 133.48 188.72 135.33 C 189.64 138.11 189.72 141.20 191.33 143.73 C 192.47 145.63 194.35 146.88 196.09 148.18 C 202.17 167.86 194.01 187.99 195.24 207.93 C 195.41 212.19 197.90 216.25 201.69 218.23 C 205.65 220.27 209.95 221.53 213.98 223.42 C 218.22 219.19 222.47 214.96 226.83 210.85 C 229.33 208.30 232.36 205.82 233.15 202.15 C 234.48 197.13 235.99 192.03 235.55 186.77 C 235.04 182.20 237.47 178.06 240.28 174.68 C 241.17 179.29 241.24 184.00 241.74 188.65 C 244.75 185.01 245.76 180.24 248.59 176.50 C 249.47 181.57 248.57 187.00 250.92 191.75 C 254.03 186.68 254.67 180.68 255.98 175.01 C 259.17 178.63 260.74 183.44 262.28 187.93 C 262.01 193.11 260.62 198.37 261.98 203.51 C 262.39 199.39 262.09 195.22 262.91 191.14 C 267.47 187.46 263.81 181.43 264.52 176.64 C 265.21 176.27 266.59 175.54 267.28 175.17 C 267.34 179.67 267.31 184.17 267.79 188.65 C 271.33 185.40 271.52 179.92 275.27 176.94 C 275.69 181.77 274.57 187.12 277.33 191.45 C 280.15 186.46 281.24 180.75 281.93 175.13 C 283.96 175.89 284.46 178.09 285.33 179.83 C 286.42 182.49 287.82 185.05 288.47 187.87 C 288.68 192.71 288.09 197.55 287.58 202.37 C 285.36 203.41 285.79 205.94 285.63 207.95 C 285.58 212.48 285.31 217.74 288.83 221.18 C 293.04 225.80 296.21 231.63 296.57 237.98 C 297.72 246.76 297.48 256.14 293.25 264.13 C 292.15 266.39 290.21 268.37 290.12 271.00 C 289.56 277.63 289.35 284.30 289.49 290.95 C 292.79 293.18 295.31 296.88 294.65 301.02 C 294.82 304.37 290.30 305.57 290.81 308.93 C 290.88 315.81 290.57 322.79 291.78 329.59 C 294.13 335.63 296.72 341.72 297.00 348.31 C 280.66 348.63 264.36 350.19 248.01 349.91 C 248.28 348.34 247.98 346.45 249.29 345.26 C 252.10 341.91 256.81 341.62 260.29 339.24 C 266.98 335.02 275.12 334.74 282.48 332.44 C 284.87 331.72 284.14 328.89 284.21 327.02 C 283.67 320.41 283.67 313.76 283.16 307.15 C 280.48 305.40 277.38 303.41 276.80 300.00 C 276.15 296.58 279.73 294.29 279.85 291.04 C 279.91 286.51 279.66 281.98 279.39 277.47 C 273.62 277.82 267.69 277.07 263.01 273.38 C 253.42 275.13 243.62 276.41 233.88 275.20 C 231.04 274.75 228.19 274.27 225.31 274.18 C 224.55 280.42 224.61 286.72 224.67 293.00 C 227.92 295.26 230.43 298.89 229.77 303.03 C 229.85 305.68 227.40 307.10 226.05 309.03 C 225.51 315.00 226.19 321.00 226.28 326.97 C 226.08 331.68 228.78 335.71 230.15 340.04 C 231.29 343.38 231.77 346.91 232.10 350.42 C 215.89 350.81 199.71 351.80 183.51 352.36 C 183.47 350.90 182.82 349.21 183.86 347.94 C 186.49 344.08 191.48 343.50 195.21 341.15 C 201.58 337.40 209.09 336.71 216.13 334.95 C 217.58 334.64 219.53 333.83 219.27 332.00 C 219.18 324.34 218.92 316.66 218.13 309.04 C 215.28 307.25 211.67 304.91 212.10 301.02 C 211.90 297.64 215.58 295.44 215.15 292.02 C 214.61 284.64 214.64 277.23 214.16 269.86 C 211.30 266.98 206.81 265.93 204.72 262.26 C 202.51 258.49 202.89 253.99 202.19 249.84 C 195.52 248.86 188.60 247.99 182.77 244.28 C 173.35 238.79 166.71 228.82 165.25 218.02 C 164.35 211.48 166.63 205.17 167.67 198.80 C 165.05 199.05 164.95 201.93 163.70 203.66 C 161.37 206.90 157.48 208.41 153.99 210.02 C 150.38 220.20 146.19 230.68 138.40 238.42 C 134.72 242.19 129.04 243.97 123.97 242.17 C 116.83 239.39 112.14 232.77 108.78 226.19 C 105.00 218.11 102.67 208.52 105.83 199.84 C 108.24 193.73 111.28 187.69 116.09 183.11 C 113.58 179.44 117.37 176.21 120.03 174.06 C 123.44 171.15 128.30 171.35 131.96 168.89 C 138.77 164.50 143.49 157.62 150.20 153.07 C 154.26 157.64 159.53 161.99 166.00 161.91 C 175.26 162.57 183.38 154.86 184.91 146.02 C 186.11 141.25 184.82 136.41 183.34 131.87 M 121.51 191.24 C 123.12 193.63 124.67 196.19 127.09 197.87 C 126.31 194.92 124.67 192.07 121.51 191.24 M 113.62 210.82 C 118.76 208.66 119.81 202.43 120.13 197.50 C 115.08 199.65 113.31 205.75 113.62 210.82 Z" />
<path fill="#9e846a" opacity="1.00" d=" M 291.90 220.82 C 299.51 219.10 307.63 222.67 312.16 228.86 C 315.70 233.94 314.45 240.54 313.05 246.13 C 311.05 253.59 308.70 261.63 311.65 269.18 C 309.93 270.05 308.21 270.91 306.49 271.78 C 303.22 259.49 312.22 248.28 311.30 236.04 C 311.04 232.72 309.40 229.37 306.39 227.75 C 302.96 225.90 298.94 225.95 295.17 225.67 C 294.07 224.06 292.98 222.44 291.90 220.82 Z" />
</g>
<g id="#754d2cff">
<path fill="#754d2c" opacity="1.00" d=" M 202.55 130.21 L 202.73 129.98 C 206.86 131.03 211.14 131.22 215.35 131.81 C 212.95 136.34 209.90 140.87 204.99 142.94 C 202.73 143.88 198.96 145.20 197.78 142.13 C 196.28 137.57 200.01 133.57 202.55 130.21 Z" />
<path fill="#754d2c" opacity="1.00" d=" M 187.62 131.08 C 188.76 130.11 189.42 130.34 189.59 131.76 C 188.45 132.72 187.79 132.50 187.62 131.08 Z" />
<path fill="#754d2c" opacity="1.00" d=" M 235.82 149.92 C 239.99 143.50 248.72 141.99 255.63 144.23 C 258.92 145.42 261.09 148.38 262.95 151.20 C 267.34 158.30 270.21 166.52 270.00 174.94 C 266.32 173.86 265.39 169.61 262.16 167.92 C 262.24 173.91 263.94 179.75 263.85 185.76 C 260.12 181.58 259.83 175.41 255.76 171.50 C 253.97 177.01 253.55 182.91 251.18 188.24 C 249.60 183.20 250.85 177.66 248.59 172.80 C 245.75 176.14 245.46 180.96 242.52 184.31 C 242.17 179.78 241.97 175.24 241.40 170.73 C 238.44 173.23 237.13 177.03 234.67 179.95 C 234.74 175.90 235.55 171.90 236.85 168.08 C 237.86 165.12 240.01 162.61 240.36 159.43 C 236.33 162.12 233.57 166.16 230.21 169.57 C 229.87 162.67 232.18 155.72 235.82 149.92 Z" />
<path fill="#754d2c" opacity="1.00" d=" M 262.83 147.99 C 265.79 145.70 269.07 143.44 272.95 143.28 C 277.06 143.09 281.80 142.87 285.07 145.84 C 290.76 151.04 293.32 158.60 295.67 165.73 C 296.81 168.85 296.50 172.23 296.24 175.48 C 292.99 173.81 291.13 170.58 288.75 167.98 C 288.69 174.52 290.98 180.82 290.82 187.37 C 286.67 183.03 285.97 176.53 282.41 171.71 C 279.93 177.25 281.08 184.20 276.73 188.87 C 276.29 183.52 276.56 178.04 274.79 172.89 C 272.64 176.78 271.88 181.49 268.57 184.68 C 268.34 182.24 268.20 179.81 268.09 177.37 C 268.67 177.15 269.81 176.69 270.38 176.46 C 271.85 172.37 270.09 168.23 269.35 164.19 C 268.19 158.42 265.17 153.31 262.83 147.99 Z" />
<path fill="#754d2c" opacity="1.00" d=" M 264.16 173.21 C 267.49 173.60 262.39 176.06 264.16 173.21 Z" />
<path fill="#754d2c" opacity="1.00" d=" M 121.51 191.24 C 124.67 192.07 126.31 194.92 127.09 197.87 C 124.67 196.19 123.12 193.63 121.51 191.24 Z" />
<path fill="#754d2c" opacity="1.00" d=" M 113.62 210.82 C 113.31 205.75 115.08 199.65 120.13 197.50 C 119.81 202.43 118.76 208.66 113.62 210.82 Z" />
<path fill="#754d2c" opacity="1.00" d=" M 208.02 268.52 C 209.23 269.22 210.44 269.93 211.66 270.63 C 212.00 277.41 211.96 284.20 211.99 290.99 C 212.23 294.65 210.25 297.88 209.13 301.24 C 207.55 299.72 205.54 298.17 205.43 295.78 C 204.84 292.11 208.92 289.70 208.46 286.05 C 208.37 280.20 208.02 274.37 208.02 268.52 Z" />
<path fill="#754d2c" opacity="1.00" d=" M 306.81 274.92 C 309.16 273.08 311.97 271.50 314.98 271.16 C 318.18 271.66 321.03 274.25 321.42 277.54 C 321.97 281.71 322.35 286.31 320.24 290.14 C 318.36 293.53 316.22 296.78 314.34 300.17 C 312.60 295.48 311.41 290.52 308.62 286.28 C 306.61 282.98 304.18 278.58 306.81 274.92 Z" />
<path fill="#754d2c" opacity="1.00" d=" M 273.26 280.09 C 274.46 280.08 275.67 280.07 276.89 280.06 C 276.58 284.92 277.95 290.13 275.72 294.69 C 275.13 296.16 274.60 297.66 274.09 299.18 C 272.44 297.74 270.44 296.22 270.30 293.84 C 269.80 290.86 272.27 288.64 273.18 286.02 C 273.41 284.05 273.28 282.06 273.26 280.09 Z" />
<path fill="#754d2c" opacity="1.00" d=" M 227.23 292.01 C 227.32 292.15 227.50 292.44 227.59 292.58 L 227.26 292.38 L 227.23 292.01 Z" />
<path fill="#754d2c" opacity="1.00" d=" M 276.83 305.63 C 278.10 306.55 279.37 307.48 280.65 308.40 C 281.42 315.70 281.55 323.05 281.57 330.39 C 273.93 332.07 265.88 333.06 259.05 337.17 C 255.61 339.13 251.66 340.10 248.50 342.58 C 246.45 344.32 243.64 343.58 241.19 343.67 C 241.15 340.35 243.50 337.64 246.56 336.60 C 251.89 334.85 256.37 331.16 261.90 329.93 C 266.90 328.30 272.39 328.26 277.13 325.89 C 278.03 319.20 277.04 312.36 276.83 305.63 Z" />
<path fill="#754d2c" opacity="1.00" d=" M 212.13 307.72 C 213.35 308.62 214.59 309.52 215.82 310.42 C 216.68 317.72 216.67 325.09 216.66 332.43 C 209.23 334.10 201.43 334.98 194.67 338.71 C 190.57 341.00 185.82 342.21 182.40 345.60 C 180.46 345.61 178.43 346.02 176.56 345.35 C 175.85 342.98 177.92 340.92 179.68 339.67 C 182.49 338.01 185.74 337.27 188.53 335.55 C 195.76 331.02 204.54 330.83 212.46 328.17 C 212.66 321.35 212.28 314.54 212.13 307.72 Z" />
</g>
<g id="#fefefeff">
<path fill="#fefefe" opacity="1.00" d=" M 177.45 133.01 C 178.33 132.91 180.10 132.70 180.99 132.60 C 183.26 138.09 183.86 144.57 181.14 150.03 C 178.37 156.11 171.72 160.48 164.93 159.53 C 155.73 158.60 149.13 149.49 149.52 140.52 C 159.19 137.98 168.75 134.86 178.61 133.15 L 177.45 133.01 M 157.41 141.41 C 154.38 142.71 153.20 147.02 155.37 149.56 C 157.51 152.83 163.24 152.37 164.67 148.68 C 167.11 144.41 161.71 138.95 157.41 141.41 Z" />
<path fill="#fefefe" opacity="1.00" d=" M 127.03 146.71 C 133.68 145.21 140.17 143.11 146.72 141.27 C 147.18 144.64 147.81 148.00 149.15 151.14 C 145.08 153.79 141.63 157.21 138.15 160.57 C 132.08 158.59 127.60 153.09 127.03 146.71 M 139.33 144.16 C 136.70 145.47 136.29 149.51 138.35 151.48 C 140.53 154.00 145.19 153.03 146.17 149.82 C 147.81 145.98 142.87 141.53 139.33 144.16 Z" />
<path fill="#fefefe" opacity="1.00" d=" M 232.69 198.19 L 232.69 198.19 C 232.47 200.50 231.26 202.56 229.71 204.25 C 230.87 202.31 231.79 200.25 232.69 198.19 Z" />
<path fill="#fefefe" opacity="1.00" d=" M 255.63 277.04 C 258.24 276.80 261.55 274.23 263.76 276.56 C 261.03 276.46 258.32 276.69 255.63 277.04 Z" />
<path fill="#fefefe" opacity="1.00" d=" M 247.52 352.49 C 251.80 352.62 256.09 352.41 260.37 352.25 L 261.40 352.25 C 256.65 353.33 251.66 352.80 246.85 352.49 L 247.52 352.49 Z" />
</g>
</svg>
