<?xml version="1.0" encoding="UTF-8" ?>
<!DOCTYPE svg PUBLIC "-//W3C//DTD SVG 1.1//EN" "http://www.w3.org/Graphics/SVG/1.1/DTD/svg11.dtd">
<svg width="350pt" height="374pt" viewBox="0 0 350 374" version="1.1" xmlns="http://www.w3.org/2000/svg">
<g id="#020201fe">
<path fill="#020201" opacity="1.00" d=" M 144.26 50.30 C 148.14 47.16 153.55 46.27 158.28 47.75 C 162.54 49.19 165.58 52.99 170.01 54.01 C 179.81 56.30 189.82 51.69 199.60 54.28 C 201.97 55.01 204.84 55.45 206.43 57.55 C 212.92 68.27 213.53 81.30 212.21 93.45 C 219.61 93.35 229.22 93.25 233.51 100.50 C 237.89 108.05 240.92 117.05 239.45 125.85 C 239.26 127.47 238.04 128.74 236.53 129.25 C 231.56 131.31 226.13 131.74 220.82 131.96 C 218.14 141.51 208.94 148.70 199.11 149.38 C 203.66 166.42 198.55 183.82 197.56 200.96 C 197.50 205.31 197.03 210.38 200.09 213.91 C 203.84 217.33 209.00 218.38 213.53 220.40 C 218.35 215.36 223.41 210.56 228.27 205.56 C 233.92 199.90 233.89 191.44 235.06 184.07 L 234.52 185.71 C 233.97 185.15 232.86 184.01 232.30 183.45 C 233.27 177.89 232.37 171.55 236.43 167.04 C 234.20 166.85 233.50 169.15 232.25 170.51 C 231.18 171.99 229.50 172.84 228.05 173.88 C 227.03 167.59 229.01 161.36 230.82 155.41 C 231.92 151.64 234.15 148.37 236.44 145.23 C 243.49 139.08 255.63 138.36 261.83 146.10 C 267.14 141.04 275.31 138.91 282.26 141.59 C 287.02 143.33 289.58 148.05 291.89 152.23 C 295.29 159.05 298.28 166.38 298.27 174.12 C 298.51 175.97 296.54 176.90 295.55 178.13 C 293.91 176.67 292.29 175.19 290.68 173.70 C 291.64 179.39 292.11 185.20 291.20 190.93 L 289.43 190.36 C 289.73 196.61 288.70 202.79 288.05 208.98 C 287.52 212.39 288.86 215.63 289.79 218.84 C 302.10 213.84 318.31 224.42 317.39 238.05 C 316.68 247.93 310.93 257.45 313.81 267.50 C 316.26 268.53 318.81 269.44 321.03 270.96 C 324.86 275.12 325.53 281.41 324.51 286.76 C 322.61 293.01 318.63 298.38 315.12 303.80 C 314.49 303.77 313.24 303.72 312.61 303.70 C 310.48 299.31 309.94 294.30 307.53 290.03 C 305.67 286.48 303.15 283.06 302.65 278.99 C 303.01 277.02 303.59 275.12 304.06 273.18 C 300.61 263.58 305.49 253.99 307.64 244.70 C 308.73 240.14 309.69 234.59 306.09 230.86 C 303.55 228.82 300.01 229.01 296.99 228.30 C 300.14 239.03 301.28 251.06 297.11 261.69 C 295.88 264.99 293.79 267.88 292.55 271.17 C 291.86 276.87 293.15 282.73 291.61 288.35 C 294.01 291.58 296.88 294.80 297.42 298.96 C 297.91 302.71 295.62 306.01 293.12 308.56 C 292.90 315.33 293.60 322.09 294.23 328.81 C 296.59 335.68 300.06 342.58 299.61 350.04 C 292.16 352.32 284.31 350.63 276.71 351.78 C 271.76 352.39 266.76 351.77 261.80 352.33 C 257.21 352.85 252.54 353.16 247.94 352.61 C 245.70 351.66 245.62 348.92 244.95 346.93 C 243.72 346.92 242.50 346.91 241.28 346.91 C 240.60 346.27 239.24 345.00 238.56 344.36 C 238.53 341.31 239.01 337.96 241.75 336.12 C 245.49 333.58 249.92 332.29 253.80 329.96 C 260.34 326.54 267.81 325.88 274.82 323.88 C 274.94 316.80 273.50 309.79 273.98 302.71 C 271.25 300.35 267.66 298.13 267.34 294.15 C 266.61 290.73 269.40 288.16 270.18 285.08 C 270.38 283.25 270.36 281.42 270.42 279.59 C 269.12 279.19 267.84 278.78 266.56 278.37 C 264.83 277.46 263.09 275.96 261.01 276.34 C 256.34 277.06 251.68 277.86 246.95 278.15 C 240.55 279.09 234.17 277.67 227.83 276.99 C 227.72 281.70 226.45 286.41 227.12 291.11 C 228.44 293.13 230.36 294.73 231.43 296.92 C 232.40 299.13 232.19 301.63 232.11 303.98 C 232.04 307.12 228.17 308.73 228.43 311.94 C 228.46 319.71 227.72 327.92 231.06 335.18 C 233.33 339.91 234.01 345.16 234.92 350.27 C 234.72 350.89 234.31 352.12 234.11 352.73 C 228.40 352.66 222.75 353.80 217.04 353.53 C 211.32 353.24 205.67 354.53 199.95 354.26 C 194.33 353.97 188.78 355.08 183.16 355.06 C 182.30 354.16 181.45 353.26 180.59 352.36 C 180.63 351.03 180.68 349.70 180.72 348.38 C 179.01 348.39 177.30 348.40 175.60 348.41 C 174.74 347.14 173.89 345.87 173.06 344.59 C 173.35 343.74 173.93 342.04 174.22 341.20 C 176.39 338.88 178.65 336.50 181.75 335.47 C 186.07 333.83 189.99 331.27 194.35 329.72 C 199.42 328.12 204.78 327.58 209.78 325.76 C 209.28 319.84 209.25 313.90 209.30 307.96 C 209.46 303.66 204.68 301.92 203.07 298.44 C 201.72 294.58 203.14 290.46 205.62 287.40 C 205.89 280.47 204.48 273.62 204.86 266.69 C 201.12 262.77 200.14 257.43 199.67 252.24 C 192.22 250.97 184.48 249.27 178.44 244.44 C 168.89 237.77 163.06 226.50 162.21 214.98 C 162.04 212.35 162.95 209.83 163.69 207.35 C 161.22 209.09 158.63 210.63 155.96 212.03 C 151.96 222.78 147.45 234.11 138.44 241.68 C 133.99 245.48 127.19 246.88 121.87 244.07 C 115.41 240.75 110.53 234.93 107.12 228.62 C 102.47 219.60 100.12 208.71 103.45 198.87 C 105.80 192.95 108.92 187.31 113.03 182.43 C 112.76 181.87 112.23 180.74 111.96 180.17 C 114.24 176.24 117.11 172.36 121.25 170.25 C 124.32 168.89 127.77 168.51 130.69 166.78 C 132.55 165.56 134.22 164.08 135.98 162.73 C 133.04 160.81 129.89 158.98 127.83 156.04 C 125.89 153.58 125.35 150.43 124.52 147.49 C 117.20 149.45 109.86 146.19 103.88 142.17 C 97.20 137.59 91.82 130.35 91.31 122.05 C 90.44 112.23 93.62 102.59 97.96 93.91 C 103.27 82.60 116.41 76.51 128.57 78.25 C 130.85 67.67 135.55 57.10 144.26 50.30 M 138.43 58.40 C 131.56 67.23 130.03 78.61 127.46 89.16 C 145.65 95.60 164.73 99.29 183.88 101.38 C 185.54 101.50 187.33 101.77 188.87 100.94 C 195.78 97.71 203.04 95.00 210.65 94.02 C 212.55 81.68 211.32 68.62 205.09 57.61 C 200.38 55.55 195.19 54.44 190.05 54.95 C 181.03 55.68 171.94 56.53 163.20 59.02 C 161.20 59.50 159.44 60.98 157.29 60.65 C 158.33 60.02 159.41 59.44 160.60 59.13 C 163.93 58.08 167.29 57.16 170.59 56.04 C 164.44 54.09 159.94 47.79 153.02 48.42 C 146.66 48.51 141.96 53.67 138.43 58.40 M 103.27 88.29 C 98.85 93.31 96.51 99.74 94.46 106.00 C 91.87 114.61 91.04 124.75 96.21 132.60 C 101.36 140.20 109.84 145.86 119.10 146.64 C 124.56 146.69 130.43 145.43 134.41 141.42 C 143.18 133.27 152.62 125.91 161.54 117.96 C 149.38 116.41 137.19 113.99 125.93 108.98 C 124.31 108.44 122.66 107.31 120.88 107.80 C 115.28 109.03 109.99 111.31 104.58 113.17 C 110.24 110.15 116.35 108.07 122.52 106.35 C 122.60 104.49 122.63 102.63 122.53 100.78 C 122.24 96.82 123.85 93.08 124.99 89.38 C 127.87 87.01 127.80 82.97 128.64 79.64 C 119.44 78.10 109.55 81.37 103.27 88.29 M 126.06 90.13 C 125.03 93.68 124.01 97.24 123.48 100.90 C 137.14 107.97 152.42 110.68 167.42 113.30 C 172.97 109.63 178.51 105.91 184.38 102.75 C 164.56 100.84 144.82 96.90 126.06 90.13 M 192.51 100.30 C 175.13 108.19 160.01 120.15 145.63 132.53 C 141.96 136.06 137.56 138.79 134.52 142.96 C 136.31 142.71 138.07 142.36 139.82 141.90 C 158.80 136.55 177.84 130.93 197.46 128.45 C 205.98 127.07 214.58 125.39 223.25 126.03 C 217.11 126.38 211.00 127.05 204.93 128.04 C 205.45 128.44 206.48 129.23 207.00 129.62 C 216.33 131.04 226.16 131.28 235.24 128.37 C 237.31 127.94 238.62 126.05 238.63 123.98 C 239.01 117.86 237.22 111.81 234.99 106.17 C 233.18 102.23 230.99 97.65 226.47 96.35 C 215.19 92.82 203.03 95.65 192.51 100.30 M 123.80 102.90 C 123.64 103.95 123.31 106.04 123.15 107.09 C 135.54 112.24 148.66 115.89 162.07 116.84 C 163.81 117.18 164.94 115.85 165.64 114.44 C 151.34 112.11 137.05 108.93 123.80 102.90 M 192.32 130.20 C 191.32 134.71 191.00 139.96 194.23 143.69 C 196.50 146.50 200.57 146.76 203.79 145.68 C 210.45 143.49 216.12 138.13 218.13 131.33 C 217.49 131.48 216.22 131.79 215.58 131.95 C 211.25 131.26 206.89 130.77 202.55 130.14 C 199.14 130.13 195.73 130.07 192.32 130.20 M 183.42 131.53 C 184.76 136.48 186.22 141.70 184.75 146.80 C 182.93 155.31 174.98 162.56 166.00 161.89 C 159.52 162.01 154.27 157.62 150.19 153.07 C 143.92 157.41 139.30 163.63 133.16 168.11 C 128.91 171.38 122.86 171.07 118.97 174.92 C 116.48 176.92 114.13 179.92 115.94 183.18 C 111.33 187.86 108.17 193.72 105.85 199.81 C 102.74 208.25 104.89 217.58 108.45 225.51 C 111.70 232.11 116.23 238.74 123.15 241.84 C 128.35 244.14 134.54 242.41 138.40 238.42 C 146.20 230.70 150.35 220.21 153.99 210.06 C 156.66 208.81 159.40 207.62 161.73 205.78 C 164.34 203.90 164.61 199.98 167.70 198.60 C 166.74 204.74 164.54 210.77 165.16 217.07 C 166.46 230.25 175.75 242.25 188.16 246.87 C 192.60 248.74 197.47 248.91 202.15 249.82 C 202.93 254.18 202.51 259.01 205.09 262.85 C 207.37 266.01 211.39 267.14 214.09 269.85 C 214.79 275.21 214.34 280.66 214.84 286.05 C 214.91 289.35 215.87 292.99 214.00 295.98 C 213.06 297.85 211.74 299.74 212.12 301.96 C 212.24 305.49 215.69 307.31 218.18 309.16 C 218.84 315.73 219.00 322.34 219.29 328.94 C 219.19 330.84 219.92 333.75 217.49 334.48 C 213.28 335.93 208.79 336.34 204.51 337.53 C 198.51 338.90 193.31 342.31 187.71 344.69 C 184.64 345.96 182.66 348.96 183.29 352.31 C 199.60 351.86 215.89 350.80 232.21 350.39 C 231.64 346.39 231.12 342.33 229.61 338.56 C 228.35 335.11 226.44 331.79 226.34 328.04 C 226.04 321.70 225.83 315.35 225.89 309.00 C 227.82 307.09 230.22 305.05 229.82 302.01 C 230.13 298.15 227.47 295.16 224.67 292.92 C 224.56 286.64 224.63 280.34 225.34 274.09 C 230.89 274.64 236.39 275.82 241.99 275.64 C 249.06 275.83 256.03 274.51 262.98 273.39 C 267.71 276.98 273.62 277.88 279.41 277.46 C 279.67 281.64 279.84 285.84 279.87 290.04 C 280.05 293.36 277.22 295.80 276.71 298.95 C 276.69 302.91 280.32 305.24 283.20 307.25 C 283.64 315.34 283.93 323.43 284.35 331.52 C 279.46 333.84 274.00 334.21 268.86 335.69 C 263.11 337.10 258.27 340.69 252.76 342.71 C 249.72 343.81 247.93 346.69 247.82 349.85 C 264.26 350.26 280.66 348.62 297.08 348.28 C 296.58 341.95 294.36 336.01 292.01 330.19 C 290.41 323.25 290.91 316.01 290.83 308.94 C 290.63 305.36 295.33 303.71 294.71 299.97 C 295.00 296.11 292.31 293.08 289.49 290.86 C 289.38 284.59 289.53 278.32 290.01 272.07 C 290.03 268.28 292.84 265.46 294.20 262.13 C 298.02 253.49 297.56 243.74 296.09 234.62 C 295.09 229.24 291.90 224.68 288.39 220.63 C 285.75 217.78 285.65 213.68 285.58 210.03 C 285.70 207.31 285.23 204.10 287.58 202.14 C 288.10 199.13 288.46 196.10 288.46 193.05 C 289.13 186.44 286.06 179.93 282.11 174.81 C 281.11 180.64 280.26 186.68 277.01 191.77 C 275.10 186.96 275.46 181.75 275.18 176.69 C 271.98 180.26 270.88 185.13 267.84 188.83 C 267.36 184.44 267.28 180.03 267.33 175.62 C 266.60 175.62 265.13 175.62 264.40 175.62 C 263.96 180.82 267.32 187.14 262.88 191.27 C 262.24 195.38 262.30 199.55 261.89 203.68 C 260.83 198.44 261.95 193.18 262.21 187.95 C 261.05 183.21 258.70 178.84 256.14 174.72 C 254.69 180.53 253.96 186.65 250.88 191.91 C 248.82 186.94 249.30 181.48 248.50 176.26 C 246.25 180.43 244.35 184.80 241.80 188.80 C 241.32 184.10 241.01 179.39 240.47 174.70 C 238.34 177.06 236.63 179.76 235.70 182.82 C 236.34 184.43 236.89 186.07 237.45 187.71 L 235.97 185.89 C 235.49 191.95 234.55 198.00 232.63 203.78 C 231.35 206.61 228.98 208.72 226.81 210.87 C 222.47 214.97 218.22 219.17 214.00 223.40 C 209.94 221.58 205.65 220.27 201.70 218.22 C 197.93 216.26 195.41 212.24 195.27 208.00 C 193.96 188.06 202.17 167.94 196.11 148.26 C 193.86 146.47 191.22 144.68 190.42 141.74 C 189.57 139.48 189.44 136.95 188.31 134.80 C 186.82 133.50 185.08 132.56 183.42 131.53 M 149.48 140.55 C 149.17 149.47 155.67 158.52 164.81 159.52 C 171.61 160.52 178.29 156.20 181.10 150.11 C 183.88 144.61 183.27 138.04 180.94 132.50 C 170.32 134.62 159.91 137.66 149.48 140.55 M 126.95 146.76 C 127.72 153.09 132.04 158.59 138.14 160.58 C 141.61 157.23 145.06 153.82 149.11 151.17 C 147.82 148.03 147.11 144.70 146.99 141.31 C 140.27 142.98 133.70 145.22 126.95 146.76 M 235.83 149.90 C 231.82 155.90 230.38 163.18 229.35 170.21 C 233.17 166.68 236.19 162.30 240.54 159.36 C 237.78 166.07 234.53 172.75 234.52 180.20 C 236.66 176.87 238.96 173.65 241.30 170.46 C 241.80 175.18 242.10 179.92 242.67 184.64 C 244.81 180.67 246.54 176.51 248.28 172.35 C 250.65 177.40 249.86 183.10 251.10 188.43 C 253.85 183.12 253.25 176.64 256.40 171.57 C 259.44 176.44 261.11 182.01 263.98 186.98 C 263.94 180.46 262.31 174.09 262.26 167.58 C 264.65 170.32 267.01 173.16 270.00 175.26 C 270.14 166.02 267.02 156.93 261.74 149.41 C 256.16 140.55 241.39 141.51 235.83 149.90 M 262.77 148.15 C 265.16 153.09 267.94 157.95 269.11 163.37 C 269.80 166.70 270.49 170.02 271.48 173.28 C 270.61 175.01 269.57 176.64 268.17 177.99 C 268.26 180.31 268.43 182.62 268.65 184.94 C 271.44 181.28 272.95 176.92 274.85 172.78 C 276.40 178.09 276.38 183.63 276.77 189.09 C 280.72 184.08 280.32 177.38 282.32 171.58 C 285.73 176.64 286.99 182.81 290.75 187.65 C 290.94 180.97 288.89 174.51 288.68 167.86 C 290.85 170.79 293.34 173.46 296.20 175.71 C 297.75 168.02 294.17 160.81 291.09 154.01 C 288.57 149.24 284.95 143.74 279.01 143.35 C 273.14 142.38 267.09 143.99 262.77 148.15 M 264.08 173.27 C 262.72 176.34 267.43 173.20 264.08 173.27 M 291.90 220.74 C 292.98 222.35 294.03 223.98 295.08 225.62 C 299.07 226.04 303.42 225.86 306.95 228.09 C 309.94 229.98 311.27 233.60 311.36 237.02 C 311.68 248.90 303.42 259.79 306.43 271.79 C 308.14 270.92 309.87 270.07 311.59 269.22 C 307.60 258.76 313.64 248.45 314.42 238.05 C 315.55 226.46 302.30 218.50 291.90 220.74 M 208.01 268.48 C 207.99 274.32 208.43 280.15 208.45 286.00 C 208.64 289.82 204.57 292.69 205.55 296.58 C 206.20 298.51 207.78 299.93 209.02 301.50 C 210.58 297.86 212.16 294.08 212.03 290.04 C 211.98 283.58 211.93 277.12 211.68 270.67 C 210.45 269.94 209.23 269.21 208.01 268.48 M 306.46 275.43 C 304.36 279.13 306.80 283.12 308.65 286.34 C 311.32 290.60 312.79 295.43 314.15 300.23 C 316.16 296.86 318.43 293.64 320.22 290.14 C 322.30 286.28 322.05 281.68 321.41 277.49 C 320.98 274.24 318.18 271.60 314.97 271.18 C 311.81 271.60 308.63 273.08 306.46 275.43 M 273.34 280.08 C 273.76 283.91 272.76 287.55 270.82 290.83 C 268.96 294.09 271.72 297.13 273.91 299.30 C 277.29 293.42 277.25 286.62 276.87 280.06 C 275.69 280.06 274.51 280.07 273.34 280.08 M 276.78 305.49 C 277.31 312.35 277.55 319.24 277.42 326.12 C 269.70 328.65 261.24 328.97 254.09 333.12 C 250.83 334.96 247.20 336.08 244.00 338.03 C 242.00 339.21 241.63 341.66 240.92 343.67 C 243.44 343.62 246.27 344.21 248.44 342.56 C 252.24 340.20 256.38 338.51 260.35 336.48 C 266.91 332.90 274.44 331.98 281.62 330.35 C 281.48 323.04 281.46 315.71 280.67 308.43 C 279.37 307.45 278.07 306.46 276.78 305.49 M 212.14 307.61 C 212.31 314.48 212.60 321.34 212.48 328.21 C 205.21 330.53 197.32 330.94 190.48 334.52 C 187.00 336.45 183.25 337.82 179.75 339.68 C 177.41 340.76 176.80 343.39 175.94 345.57 C 178.06 345.58 180.17 345.62 182.29 345.61 C 186.09 342.34 190.87 340.66 195.28 338.40 C 201.93 334.93 209.48 334.03 216.71 332.40 C 216.64 325.09 216.64 317.77 215.87 310.49 C 214.62 309.53 213.38 308.57 212.14 307.61 Z" />
<path fill="#020201" opacity="1.00" d=" M 157.42 141.40 C 161.68 138.97 167.04 144.34 164.71 148.60 C 163.33 152.33 157.56 152.87 155.39 149.59 C 153.19 147.05 154.37 142.71 157.42 141.40 Z" />
<path fill="#020201" opacity="1.00" d=" M 139.29 144.18 C 142.81 141.52 147.78 145.92 146.19 149.79 C 145.27 152.73 141.29 153.88 138.91 151.99 C 136.31 150.21 136.43 145.65 139.29 144.18 Z" />
</g>
<g id="#f4f21bff">
<path fill="#f4f21b" opacity="1.00" d=" M 138.43 58.40 C 141.96 53.67 146.66 48.51 153.02 48.42 C 159.94 47.79 164.44 54.09 170.59 56.04 C 167.29 57.16 163.93 58.08 160.60 59.13 C 159.41 59.44 158.33 60.02 157.29 60.65 C 159.44 60.98 161.20 59.50 163.20 59.02 C 171.94 56.53 181.03 55.68 190.05 54.95 C 195.19 54.44 200.38 55.55 205.09 57.61 C 211.32 68.62 212.55 81.68 210.65 94.02 C 203.04 95.00 195.78 97.71 188.87 100.94 C 187.33 101.77 185.54 101.50 183.88 101.38 C 164.73 99.29 145.65 95.60 127.46 89.16 C 130.03 78.61 131.56 67.23 138.43 58.40 Z" />
<path fill="#f4f21b" opacity="1.00" d=" M 103.27 88.29 C 109.55 81.37 119.44 78.10 128.64 79.64 C 127.80 82.97 127.87 87.01 124.99 89.38 C 123.85 93.08 122.24 96.82 122.53 100.78 C 122.63 102.63 122.60 104.49 122.52 106.35 C 116.35 108.07 110.24 110.15 104.58 113.17 C 109.99 111.31 115.28 109.03 120.88 107.80 C 122.66 107.31 124.31 108.44 125.93 108.98 C 137.19 113.99 149.38 116.41 161.54 117.96 C 152.62 125.91 143.18 133.27 134.41 141.42 C 130.43 145.43 124.56 146.69 119.10 146.64 C 109.84 145.86 101.36 140.20 96.21 132.60 C 91.04 124.75 91.87 114.61 94.46 106.00 C 96.51 99.74 98.85 93.31 103.27 88.29 Z" />
<path fill="#f4f21b" opacity="1.00" d=" M 192.51 100.30 C 203.03 95.65 215.19 92.82 226.47 96.35 C 230.99 97.65 233.18 102.23 234.99 106.17 C 237.22 111.81 239.01 117.86 238.63 123.98 C 238.62 126.05 237.31 127.94 235.24 128.37 C 226.16 131.28 216.33 131.04 207.00 129.62 C 206.48 129.23 205.45 128.44 204.93 128.04 C 211.00 127.05 217.11 126.38 223.25 126.03 C 214.58 125.39 205.98 127.07 197.46 128.45 C 177.84 130.93 158.80 136.55 139.82 141.90 C 138.07 142.36 136.31 142.71 134.52 142.96 C 137.56 138.79 141.96 136.06 145.63 132.53 C 160.01 120.15 175.13 108.19 192.51 100.30 Z" />
<path fill="#f4f21b" opacity="1.00" d=" M 123.80 102.90 C 137.05 108.93 151.34 112.11 165.64 114.44 C 164.94 115.85 163.81 117.18 162.07 116.84 C 148.66 115.89 135.54 112.24 123.15 107.09 C 123.31 106.04 123.64 103.95 123.80 102.90 Z" />
</g>
<g id="#f6ddbcff">
<path fill="#f6ddbc" opacity="1.00" d=" M 126.06 90.13 C 144.82 96.90 164.56 100.84 184.38 102.75 C 178.51 105.91 172.97 109.63 167.42 113.30 C 152.42 110.68 137.14 107.97 123.48 100.90 C 124.01 97.24 125.03 93.68 126.06 90.13 Z" />
</g>
<g id="#9e846aff">
<path fill="#9e846a" opacity="1.00" d=" M 192.32 130.20 C 195.73 130.07 199.14 130.13 202.55 130.14 C 200.22 133.49 196.84 137.10 197.58 141.51 C 198.40 144.72 202.54 144.10 204.81 142.96 C 209.89 141.01 212.57 136.11 215.58 131.95 C 216.22 131.79 217.49 131.48 218.13 131.33 C 216.12 138.13 210.45 143.49 203.79 145.68 C 200.57 146.76 196.50 146.50 194.23 143.69 C 191.00 139.96 191.32 134.71 192.32 130.20 Z" />
<path fill="#9e846a" opacity="1.00" d=" M 183.42 131.53 C 185.08 132.56 186.82 133.50 188.31 134.80 C 189.44 136.95 189.57 139.48 190.42 141.74 C 191.22 144.68 193.86 146.47 196.11 148.26 C 202.17 167.94 193.96 188.06 195.27 208.00 C 195.41 212.24 197.93 216.26 201.70 218.22 C 205.65 220.27 209.94 221.58 214.00 223.40 C 218.22 219.17 222.47 214.97 226.81 210.87 C 228.98 208.72 231.35 206.61 232.63 203.78 C 234.55 198.00 235.49 191.95 235.97 185.89 L 237.45 187.71 C 236.89 186.07 236.34 184.43 235.70 182.82 C 236.63 179.76 238.34 177.06 240.47 174.70 C 241.01 179.39 241.32 184.10 241.80 188.80 C 244.35 184.80 246.25 180.43 248.50 176.26 C 249.30 181.48 248.82 186.94 250.88 191.91 C 253.96 186.65 254.69 180.53 256.14 174.72 C 258.70 178.84 261.05 183.21 262.21 187.95 C 261.95 193.18 260.83 198.44 261.89 203.68 C 262.30 199.55 262.24 195.38 262.88 191.27 C 267.32 187.14 263.96 180.82 264.40 175.62 C 265.13 175.62 266.60 175.62 267.33 175.62 C 267.28 180.03 267.36 184.44 267.84 188.83 C 270.88 185.13 271.98 180.26 275.18 176.69 C 275.46 181.75 275.10 186.96 277.01 191.77 C 280.26 186.68 281.11 180.64 282.11 174.81 C 286.06 179.93 289.13 186.44 288.46 193.05 C 288.46 196.10 288.10 199.13 287.58 202.14 C 285.23 204.10 285.70 207.31 285.58 210.03 C 285.65 213.68 285.75 217.78 288.39 220.63 C 291.90 224.68 295.09 229.24 296.09 234.62 C 297.56 243.74 298.02 253.49 294.20 262.13 C 292.84 265.46 290.03 268.28 290.01 272.07 C 289.53 278.32 289.38 284.59 289.49 290.86 C 292.31 293.08 295.00 296.11 294.71 299.97 C 295.33 303.71 290.63 305.36 290.83 308.94 C 290.91 316.01 290.41 323.25 292.01 330.19 C 294.36 336.01 296.58 341.95 297.08 348.28 C 280.66 348.62 264.26 350.26 247.82 349.85 C 247.93 346.69 249.72 343.81 252.76 342.71 C 258.27 340.69 263.11 337.10 268.86 335.69 C 274.00 334.21 279.46 333.84 284.35 331.52 C 283.93 323.43 283.64 315.34 283.20 307.25 C 280.32 305.24 276.69 302.91 276.71 298.95 C 277.22 295.80 280.05 293.36 279.87 290.04 C 279.84 285.84 279.67 281.64 279.41 277.46 C 273.62 277.88 267.71 276.98 262.98 273.39 C 256.03 274.51 249.06 275.83 241.99 275.64 C 236.39 275.82 230.89 274.64 225.34 274.09 C 224.63 280.34 224.56 286.64 224.67 292.92 C 227.47 295.16 230.13 298.15 229.82 302.01 C 230.22 305.05 227.82 307.09 225.89 309.00 C 225.83 315.35 226.04 321.70 226.34 328.04 C 226.44 331.79 228.35 335.11 229.61 338.56 C 231.12 342.33 231.64 346.39 232.21 350.39 C 215.89 350.80 199.60 351.86 183.29 352.31 C 182.66 348.96 184.64 345.96 187.71 344.69 C 193.31 342.31 198.51 338.90 204.51 337.53 C 208.79 336.34 213.28 335.93 217.49 334.48 C 219.92 333.75 219.19 330.84 219.29 328.94 C 219.00 322.34 218.84 315.73 218.18 309.16 C 215.69 307.31 212.24 305.49 212.12 301.96 C 211.74 299.74 213.06 297.85 214.00 295.98 C 215.87 292.99 214.91 289.35 214.84 286.05 C 214.34 280.66 214.79 275.21 214.09 269.85 C 211.39 267.14 207.37 266.01 205.09 262.85 C 202.51 259.01 202.93 254.18 202.15 249.82 C 197.47 248.91 192.60 248.74 188.16 246.87 C 175.75 242.25 166.46 230.25 165.16 217.07 C 164.54 210.77 166.74 204.74 167.70 198.60 C 164.61 199.98 164.34 203.90 161.73 205.78 C 159.40 207.62 156.66 208.81 153.99 210.06 C 150.35 220.21 146.20 230.70 138.40 238.42 C 134.54 242.41 128.35 244.14 123.15 241.84 C 116.23 238.74 111.70 232.11 108.45 225.51 C 104.89 217.58 102.74 208.25 105.85 199.81 C 108.17 193.72 111.33 187.86 115.94 183.18 C 114.13 179.92 116.48 176.92 118.97 174.92 C 122.86 171.07 128.91 171.38 133.16 168.11 C 139.30 163.63 143.92 157.41 150.19 153.07 C 154.27 157.62 159.52 162.01 166.00 161.89 C 174.98 162.56 182.93 155.31 184.75 146.80 C 186.22 141.70 184.76 136.48 183.42 131.53 M 121.39 191.01 C 122.83 193.71 125.08 195.79 127.08 198.07 C 126.34 194.89 124.48 192.25 121.39 191.01 M 113.60 211.09 C 118.28 208.25 119.99 202.76 119.88 197.54 C 115.16 200.33 113.28 205.82 113.60 211.09 Z" />
<path fill="#9e846a" opacity="1.00" d=" M 291.90 220.74 C 302.30 218.50 315.55 226.46 314.42 238.05 C 313.64 248.45 307.60 258.76 311.59 269.22 C 309.87 270.07 308.14 270.92 306.43 271.79 C 303.42 259.79 311.68 248.90 311.36 237.02 C 311.27 233.60 309.94 229.98 306.95 228.09 C 303.42 225.86 299.07 226.04 295.08 225.62 C 294.03 223.98 292.98 222.35 291.90 220.74 Z" />
</g>
<g id="#754d2cff">
<path fill="#754d2c" opacity="1.00" d=" M 202.55 130.14 C 206.89 130.77 211.25 131.26 215.58 131.95 C 212.57 136.11 209.89 141.01 204.81 142.96 C 202.54 144.10 198.40 144.72 197.58 141.51 C 196.84 137.10 200.22 133.49 202.55 130.14 Z" />
<path fill="#754d2c" opacity="1.00" d=" M 235.83 149.90 C 241.39 141.51 256.16 140.55 261.74 149.41 C 267.02 156.93 270.14 166.02 270.00 175.26 C 267.01 173.16 264.65 170.32 262.26 167.58 C 262.31 174.09 263.94 180.46 263.98 186.98 C 261.11 182.01 259.44 176.44 256.40 171.57 C 253.25 176.64 253.85 183.12 251.10 188.43 C 249.86 183.10 250.65 177.40 248.28 172.35 C 246.54 176.51 244.81 180.67 242.67 184.64 C 242.10 179.92 241.80 175.18 241.30 170.46 C 238.96 173.65 236.66 176.87 234.52 180.20 C 234.53 172.75 237.78 166.07 240.54 159.36 C 236.19 162.30 233.17 166.68 229.35 170.21 C 230.38 163.18 231.82 155.90 235.83 149.90 Z" />
<path fill="#754d2c" opacity="1.00" d=" M 262.77 148.15 C 267.09 143.99 273.14 142.38 279.01 143.35 C 284.95 143.74 288.57 149.24 291.09 154.01 C 294.17 160.81 297.75 168.02 296.20 175.71 C 293.34 173.46 290.85 170.79 288.68 167.86 C 288.89 174.51 290.94 180.97 290.75 187.65 C 286.99 182.81 285.73 176.64 282.32 171.58 C 280.32 177.38 280.72 184.08 276.77 189.09 C 276.38 183.63 276.40 178.09 274.85 172.78 C 272.95 176.92 271.44 181.28 268.65 184.94 C 268.43 182.62 268.26 180.31 268.17 177.99 C 269.57 176.64 270.61 175.01 271.48 173.28 C 270.49 170.02 269.80 166.70 269.11 163.37 C 267.94 157.95 265.16 153.09 262.77 148.15 Z" />
<path fill="#754d2c" opacity="1.00" d=" M 264.08 173.27 C 267.43 173.20 262.72 176.34 264.08 173.27 Z" />
<path fill="#754d2c" opacity="1.00" d=" M 121.39 191.01 C 124.48 192.25 126.34 194.89 127.08 198.07 C 125.08 195.79 122.83 193.71 121.39 191.01 Z" />
<path fill="#754d2c" opacity="1.00" d=" M 113.60 211.09 C 113.28 205.82 115.16 200.33 119.88 197.54 C 119.99 202.76 118.28 208.25 113.60 211.09 Z" />
<path fill="#754d2c" opacity="1.00" d=" M 208.01 268.48 C 209.23 269.21 210.45 269.94 211.68 270.67 C 211.93 277.12 211.98 283.58 212.03 290.04 C 212.16 294.08 210.58 297.86 209.02 301.50 C 207.78 299.93 206.20 298.51 205.55 296.58 C 204.57 292.69 208.64 289.82 208.45 286.00 C 208.43 280.15 207.99 274.32 208.01 268.48 Z" />
<path fill="#754d2c" opacity="1.00" d=" M 306.46 275.43 C 308.63 273.08 311.81 271.60 314.97 271.18 C 318.18 271.60 320.98 274.24 321.41 277.49 C 322.05 281.68 322.30 286.28 320.22 290.14 C 318.43 293.64 316.16 296.86 314.15 300.23 C 312.79 295.43 311.32 290.60 308.65 286.34 C 306.80 283.12 304.36 279.13 306.46 275.43 Z" />
<path fill="#754d2c" opacity="1.00" d=" M 273.34 280.08 C 274.51 280.07 275.69 280.06 276.87 280.06 C 277.25 286.62 277.29 293.42 273.91 299.30 C 271.72 297.13 268.96 294.09 270.82 290.83 C 272.76 287.55 273.76 283.91 273.34 280.08 Z" />
<path fill="#754d2c" opacity="1.00" d=" M 276.78 305.49 C 278.07 306.46 279.37 307.45 280.67 308.43 C 281.46 315.71 281.48 323.04 281.62 330.35 C 274.44 331.98 266.91 332.90 260.35 336.48 C 256.38 338.51 252.24 340.20 248.44 342.56 C 246.27 344.21 243.44 343.62 240.92 343.67 C 241.63 341.66 242.00 339.21 244.00 338.03 C 247.20 336.08 250.83 334.96 254.09 333.12 C 261.24 328.97 269.70 328.65 277.42 326.12 C 277.55 319.24 277.31 312.35 276.78 305.49 Z" />
<path fill="#754d2c" opacity="1.00" d=" M 212.14 307.61 C 213.38 308.57 214.62 309.53 215.87 310.49 C 216.64 317.77 216.64 325.09 216.71 332.40 C 209.48 334.03 201.93 334.93 195.28 338.40 C 190.87 340.66 186.09 342.34 182.29 345.61 C 180.17 345.62 178.06 345.58 175.94 345.57 C 176.80 343.39 177.41 340.76 179.75 339.68 C 183.25 337.82 187.00 336.45 190.48 334.52 C 197.32 330.94 205.21 330.53 212.48 328.21 C 212.60 321.34 212.31 314.48 212.14 307.61 Z" />
</g>
<g id="#fefefeff">
<path fill="#fefefe" opacity="1.00" d=" M 149.48 140.55 C 159.91 137.66 170.32 134.62 180.94 132.50 C 183.27 138.04 183.88 144.61 181.10 150.11 C 178.29 156.20 171.61 160.52 164.81 159.52 C 155.67 158.52 149.17 149.47 149.48 140.55 M 157.42 141.40 C 154.37 142.71 153.19 147.05 155.39 149.59 C 157.56 152.87 163.33 152.33 164.71 148.60 C 167.04 144.34 161.68 138.97 157.42 141.40 Z" />
<path fill="#fefefe" opacity="1.00" d=" M 126.95 146.76 C 133.70 145.22 140.27 142.98 146.99 141.31 C 147.11 144.70 147.82 148.03 149.11 151.17 C 145.06 153.82 141.61 157.23 138.14 160.58 C 132.04 158.59 127.72 153.09 126.95 146.76 M 139.29 144.18 C 136.43 145.65 136.31 150.21 138.91 151.99 C 141.29 153.88 145.27 152.73 146.19 149.79 C 147.78 145.92 142.81 141.52 139.29 144.18 Z" />
</g>
</svg>
