<?xml version="1.0" encoding="UTF-8" ?>
<!DOCTYPE svg PUBLIC "-//W3C//DTD SVG 1.1//EN" "http://www.w3.org/Graphics/SVG/1.1/DTD/svg11.dtd">
<svg width="400pt" height="400pt" viewBox="0 0 400 400" version="1.1" xmlns="http://www.w3.org/2000/svg">
<g id="#fefefeff">
<path fill="#fefefe" opacity="1.00" d=" M 128.23 64.11 C 135.68 62.72 143.64 65.70 148.42 71.56 C 156.70 81.19 155.98 97.06 146.89 105.92 C 141.70 111.30 133.58 113.51 126.39 111.46 C 115.85 108.62 108.29 97.89 108.82 87.04 C 108.96 76.14 117.42 65.93 128.23 64.11 M 120.43 89.43 C 117.04 90.90 117.25 95.97 120.53 97.43 C 123.51 99.50 127.78 96.67 127.09 93.13 C 127.50 89.65 123.13 87.83 120.43 89.43 Z" />
<path fill="#fefefe" opacity="1.00" d=" M 87.01 74.91 C 93.22 70.10 102.11 70.01 108.77 73.99 C 104.34 82.19 104.11 92.32 108.23 100.68 C 102.56 104.03 98.19 109.01 93.23 113.22 C 86.41 111.46 80.91 105.81 78.98 99.08 C 76.33 90.40 79.64 80.25 87.01 74.91 M 97.42 93.43 C 95.31 94.38 94.17 97.32 95.71 99.24 C 97.20 101.48 100.97 101.75 102.36 99.26 C 104.71 96.30 100.87 91.26 97.42 93.43 Z" />
</g>
<g id="#000000ff">
<path fill="#000000" opacity="1.00" d=" M 135.25 35.11 C 134.97 32.43 132.59 29.14 135.80 27.36 C 139.12 29.30 142.12 31.75 145.58 33.46 C 151.90 36.93 158.81 39.84 163.80 45.23 C 167.71 49.95 169.68 55.95 170.94 61.87 C 179.43 56.50 189.86 56.12 198.79 51.78 C 201.71 50.38 204.18 48.26 206.76 46.36 C 209.74 47.84 208.23 51.04 207.76 53.53 C 205.84 63.04 207.19 73.50 202.20 82.19 C 196.26 90.86 186.50 97.98 175.60 97.62 C 182.91 123.52 173.11 149.87 173.86 176.03 C 173.98 180.68 175.69 185.66 179.78 188.27 C 184.70 191.44 190.52 192.76 195.78 195.24 C 202.29 188.23 209.54 181.95 216.11 175.01 C 221.98 168.60 223.76 159.69 224.06 151.27 C 223.07 152.04 222.08 152.81 221.09 153.59 C 220.11 153.09 219.12 152.60 218.14 152.11 C 218.50 143.80 221.27 135.73 225.66 128.70 C 220.21 131.67 214.98 135.23 209.05 137.20 C 207.26 137.99 204.77 137.24 204.65 135.03 C 207.96 121.46 214.99 107.61 227.71 100.69 C 242.10 92.82 259.20 92.79 275.13 94.14 C 289.76 95.17 302.39 104.55 311.22 115.75 C 315.74 121.73 320.00 128.40 321.05 135.96 C 321.67 139.22 319.79 143.29 316.09 143.37 C 310.53 143.40 305.94 139.72 301.53 136.80 C 302.21 143.90 306.46 150.59 305.04 157.86 C 304.52 160.67 301.69 162.02 299.05 161.29 C 298.11 171.71 294.49 183.10 299.47 193.00 C 305.40 190.78 312.03 190.73 317.91 193.14 C 326.52 196.51 334.91 203.39 336.25 213.04 C 337.96 225.05 331.97 236.25 330.90 248.02 C 330.48 252.08 331.19 256.17 332.65 259.97 C 338.06 260.91 343.66 263.92 345.40 269.48 C 346.68 274.50 346.82 279.84 346.24 284.98 C 345.54 290.92 341.29 295.42 338.65 300.54 C 336.99 303.30 335.85 306.67 332.98 308.43 C 331.67 308.44 330.76 307.87 330.27 306.71 C 327.75 301.55 327.14 295.67 324.45 290.58 C 322.06 285.79 318.39 281.44 317.69 275.97 C 317.21 272.86 318.26 269.83 319.34 266.96 C 316.95 260.16 317.36 252.77 319.14 245.90 C 321.54 235.27 326.89 224.62 324.58 213.51 C 322.87 206.55 314.59 205.95 308.72 205.78 C 311.15 211.27 312.03 217.23 312.29 223.19 C 314.06 236.73 311.09 250.90 303.36 262.22 C 302.58 271.22 302.30 280.27 302.15 289.30 C 310.20 294.36 312.47 308.02 304.05 313.77 C 304.25 323.26 303.84 332.81 305.11 342.24 C 306.24 345.83 308.09 349.16 309.24 352.76 C 311.22 358.33 312.09 364.20 312.88 370.04 C 312.30 370.70 311.72 371.37 311.15 372.05 C 288.75 372.72 266.38 374.21 243.98 374.69 C 239.92 374.42 238.84 369.53 239.52 366.21 C 236.78 366.17 233.21 367.31 231.35 364.62 C 228.23 360.93 230.67 355.63 233.93 352.92 C 237.19 349.65 241.81 348.72 245.88 346.97 C 255.63 340.07 267.84 338.95 279.10 336.09 C 279.00 326.20 278.53 316.33 277.96 306.46 C 274.14 303.94 270.27 300.64 269.43 295.89 C 268.41 291.39 270.79 287.14 273.38 283.67 C 273.33 280.87 273.25 278.08 273.17 275.28 C 269.28 274.15 265.58 272.46 262.23 270.19 C 246.64 273.48 230.33 274.65 214.66 271.22 C 214.27 278.21 213.92 285.20 213.99 292.19 C 222.06 297.22 224.10 310.72 215.90 316.56 C 216.12 326.29 215.34 336.17 217.12 345.78 C 221.05 354.48 223.85 363.68 224.67 373.23 C 223.58 373.89 222.61 375.06 221.20 374.89 C 199.42 375.53 177.67 377.03 155.90 377.44 C 151.80 377.37 150.50 372.37 151.27 369.04 C 148.44 368.97 144.67 370.09 142.90 367.13 C 139.94 363.12 142.80 357.88 146.24 355.22 C 149.41 352.26 153.75 351.47 157.57 349.76 C 167.36 342.92 179.52 341.67 190.83 338.90 C 190.81 329.00 190.28 319.11 189.70 309.23 C 185.68 306.60 181.66 302.98 181.06 297.93 C 180.40 293.65 182.67 289.76 185.14 286.48 C 185.01 276.79 184.47 267.11 183.99 257.43 C 178.96 252.13 177.59 244.62 177.48 237.57 C 160.92 236.80 144.75 228.27 135.52 214.37 C 128.41 203.58 124.21 189.92 127.72 177.11 C 124.54 179.60 120.99 181.56 117.27 183.11 C 113.08 195.11 107.98 207.05 99.99 217.05 C 95.26 222.84 88.90 228.24 81.11 228.72 C 72.73 229.24 65.17 224.19 59.78 218.20 C 50.69 207.98 45.06 194.68 44.05 181.04 C 43.51 174.42 45.05 167.82 47.85 161.85 C 50.83 155.35 54.14 148.82 59.20 143.68 C 58.00 140.42 59.06 136.94 61.29 134.43 C 65.10 129.99 70.00 125.94 75.93 124.96 C 81.83 123.85 86.57 119.87 90.85 115.92 C 82.14 112.73 75.67 104.34 75.03 95.06 C 73.90 84.15 80.68 72.77 91.16 69.19 C 97.54 66.81 104.73 67.99 110.51 71.38 C 115.90 64.14 124.77 59.66 133.85 60.22 C 134.18 51.85 136.70 43.49 135.25 35.11 M 139.15 33.99 C 140.04 42.84 138.39 51.62 137.40 60.39 C 140.26 61.49 143.21 62.49 145.73 64.29 C 148.44 66.18 150.62 68.85 153.73 70.14 C 156.75 71.46 159.70 72.96 162.43 74.84 C 163.47 70.98 165.22 67.36 167.57 64.14 C 166.23 57.34 164.25 49.92 158.58 45.40 C 152.67 40.69 145.49 38.03 139.15 33.99 M 174.15 64.12 C 165.02 69.06 163.22 82.73 169.50 90.59 C 172.95 94.80 179.18 94.62 183.84 92.77 C 190.48 90.12 196.39 85.23 199.89 78.97 C 203.45 70.77 202.68 61.57 204.14 52.91 C 195.00 58.82 183.62 59.04 174.15 64.12 M 128.23 64.11 C 117.42 65.93 108.96 76.14 108.82 87.04 C 108.29 97.89 115.85 108.62 126.39 111.46 C 133.58 113.51 141.70 111.30 146.89 105.92 C 155.98 97.06 156.70 81.19 148.42 71.56 C 143.64 65.70 135.68 62.72 128.23 64.11 M 87.01 74.91 C 79.64 80.25 76.33 90.40 78.98 99.08 C 80.91 105.81 86.41 111.46 93.23 113.22 C 98.19 109.01 102.56 104.03 108.23 100.68 C 104.11 92.32 104.34 82.19 108.77 73.99 C 102.11 70.01 93.22 70.10 87.01 74.91 M 154.68 74.24 C 158.71 82.99 158.93 93.60 154.15 102.10 C 149.59 110.80 139.81 116.68 129.91 115.65 C 121.79 115.12 114.71 110.10 109.94 103.73 C 100.37 109.73 94.01 119.60 84.36 125.46 C 79.82 128.40 73.94 128.18 69.60 131.49 C 66.12 133.76 63.49 137.06 61.69 140.78 C 62.19 141.25 63.18 142.20 63.68 142.67 C 63.51 143.31 63.16 144.59 62.99 145.23 C 57.41 149.92 54.19 156.65 51.16 163.13 C 48.68 168.36 47.22 174.12 47.56 179.94 C 48.18 192.12 52.94 203.98 60.45 213.54 C 65.07 219.26 71.32 224.63 78.97 225.17 C 86.20 225.66 92.28 220.70 96.67 215.49 C 104.26 206.30 109.15 195.22 113.13 184.08 C 113.80 182.55 114.17 180.56 115.92 179.90 C 119.75 177.90 123.94 176.22 126.87 172.90 C 128.82 170.85 129.57 168.06 130.53 165.48 C 131.66 165.74 132.78 166.01 133.91 166.28 C 132.03 173.39 130.05 180.62 129.96 188.03 C 130.54 196.74 133.65 205.25 138.52 212.47 C 146.46 224.26 159.80 232.17 173.92 233.59 C 176.33 233.95 178.87 234.08 181.06 235.27 C 181.07 241.10 181.30 247.37 184.60 252.41 C 187.51 256.65 192.78 258.13 196.53 261.42 C 197.80 269.17 197.30 277.16 197.89 285.01 C 197.77 289.70 199.29 295.07 196.04 299.05 C 193.40 302.42 193.19 307.58 196.38 310.67 C 198.31 313.24 202.69 314.23 202.69 317.93 C 203.29 327.62 203.81 337.33 203.80 347.04 C 204.23 349.73 201.31 350.59 199.28 351.11 C 189.40 353.44 178.89 354.55 170.08 360.01 C 165.87 362.62 160.49 363.24 157.01 367.01 C 155.11 368.70 154.58 371.34 154.67 373.79 C 176.76 373.67 198.82 371.98 220.90 371.32 C 220.06 366.03 219.21 360.70 217.27 355.69 C 215.69 351.17 213.02 346.92 212.92 342.01 C 212.32 333.08 212.10 324.09 212.51 315.15 C 214.20 312.41 217.76 310.65 217.53 306.95 C 218.41 301.40 214.58 297.15 210.78 293.78 C 209.82 285.57 211.08 277.25 211.21 269.00 C 211.72 268.58 212.76 267.75 213.28 267.33 C 228.66 270.99 244.75 270.15 260.14 266.99 C 263.51 265.90 266.14 268.72 269.02 269.94 C 273.55 272.40 278.86 272.41 283.85 271.77 C 284.34 272.15 285.30 272.91 285.79 273.29 C 285.88 279.56 286.50 285.84 286.24 292.11 C 285.31 296.09 281.08 299.29 282.39 303.76 C 283.23 308.29 287.96 310.04 290.60 313.26 C 291.79 323.49 291.87 333.85 292.04 344.15 C 292.60 347.03 289.39 347.86 287.27 348.40 C 277.74 350.68 267.57 351.78 259.11 357.13 C 254.26 360.42 247.37 360.64 243.94 365.93 C 242.76 367.46 241.98 371.09 244.84 371.08 C 266.28 370.70 287.70 369.23 309.14 368.55 C 308.32 363.35 307.48 358.12 305.61 353.18 C 304.02 348.52 301.22 344.16 301.14 339.10 C 300.69 330.17 300.17 321.15 300.85 312.24 C 303.08 309.56 306.34 307.03 305.83 303.07 C 306.27 297.86 302.39 294.19 298.98 290.93 C 298.15 282.28 299.29 273.56 299.50 264.89 C 299.38 262.06 300.56 259.49 302.14 257.22 C 308.82 246.81 310.11 233.90 308.65 221.85 C 308.38 214.72 306.42 207.58 302.27 201.71 C 299.58 197.46 294.83 194.34 294.13 189.04 C 292.20 178.44 294.79 167.77 296.18 157.27 C 291.05 151.41 286.15 145.33 280.70 139.76 C 276.94 147.65 274.83 157.14 267.32 162.49 C 264.42 163.28 262.97 160.17 262.12 157.98 C 260.52 152.67 260.76 147.02 259.53 141.63 C 254.81 148.09 249.38 154.02 243.17 159.08 C 242.21 158.65 241.26 158.22 240.30 157.80 C 239.97 151.65 239.01 145.57 238.31 139.47 C 235.28 142.11 232.06 144.55 229.09 147.27 C 227.05 148.84 227.73 151.69 227.36 153.91 C 227.04 162.20 224.64 170.70 219.05 177.01 C 213.51 183.13 207.19 188.48 201.51 194.46 C 199.96 195.99 198.55 197.73 196.67 198.88 C 194.63 198.94 192.81 197.79 190.94 197.14 C 185.73 194.82 179.87 193.44 175.60 189.44 C 171.69 185.78 170.32 180.23 170.26 175.04 C 170.03 157.92 173.82 141.10 174.70 124.06 C 175.19 114.90 174.32 105.64 171.66 96.84 C 165.21 93.34 162.40 86.12 161.96 79.14 C 159.59 77.42 157.15 75.81 154.68 74.24 M 224.86 106.79 C 216.24 113.38 211.61 123.67 208.53 133.80 C 218.17 129.46 226.95 123.46 236.54 119.03 C 237.03 120.03 237.52 121.04 238.01 122.04 C 228.46 127.34 223.79 138.04 221.90 148.33 C 227.79 143.97 233.25 139.08 238.86 134.38 C 239.57 134.68 240.97 135.30 241.67 135.61 C 242.06 141.78 242.86 147.90 243.69 154.02 C 247.95 150.15 251.99 145.99 255.21 141.20 C 256.50 139.62 257.58 137.19 260.02 137.48 C 262.60 138.96 263.26 142.23 263.71 144.94 C 264.25 149.73 264.68 154.55 266.16 159.16 C 272.58 152.98 274.45 144.03 278.50 136.41 C 279.19 136.19 280.55 135.75 281.24 135.53 C 288.83 142.33 294.59 150.84 301.86 157.94 C 302.17 148.82 297.70 140.61 296.09 131.82 C 296.85 131.47 298.37 130.78 299.13 130.43 C 304.56 134.75 310.23 139.36 317.36 140.31 C 318.24 132.23 313.68 125.05 309.12 118.82 C 302.08 109.66 292.68 101.70 281.32 98.72 C 274.01 97.10 266.47 97.00 259.01 97.02 C 247.12 97.31 234.53 99.34 224.86 106.79 M 302.30 195.59 C 303.82 197.78 305.34 199.97 306.85 202.17 C 312.84 202.51 319.64 202.35 324.43 206.58 C 328.91 210.70 329.14 217.38 328.49 223.02 C 326.93 237.02 318.48 250.36 322.14 264.74 C 324.50 263.58 326.86 262.42 329.23 261.28 C 328.35 258.26 327.41 255.22 327.29 252.07 C 326.68 239.08 334.20 227.09 332.82 214.07 C 331.93 205.96 325.05 200.15 318.03 197.02 C 313.14 194.64 307.55 194.48 302.30 195.59 M 187.70 259.96 C 188.14 268.23 188.58 276.50 188.73 284.78 C 188.98 289.32 184.26 292.40 184.59 296.96 C 184.73 300.53 187.68 302.92 189.90 305.36 C 190.77 301.56 192.17 297.88 194.44 294.70 C 194.50 284.27 193.68 273.87 193.46 263.45 C 191.54 262.29 189.62 261.13 187.70 259.96 M 330.04 264.80 C 326.59 266.38 321.83 267.92 321.28 272.29 C 320.35 277.38 323.62 281.83 325.97 286.03 C 329.36 291.46 330.81 297.76 332.74 303.79 C 335.18 299.28 337.94 294.95 340.53 290.53 C 343.75 285.15 343.32 278.53 342.51 272.56 C 341.90 266.97 335.43 262.16 330.04 264.80 M 276.81 275.81 C 276.91 278.57 277.20 281.35 276.81 284.10 C 275.80 287.52 272.72 290.23 272.81 293.97 C 272.88 297.61 275.86 300.07 278.06 302.62 C 278.84 298.52 281.19 295.03 282.55 291.17 C 283.02 285.98 282.35 280.78 282.28 275.59 C 280.45 275.67 278.63 275.74 276.81 275.81 M 281.69 310.36 C 282.18 319.58 283.09 328.87 282.37 338.09 C 280.38 339.65 277.83 340.12 275.44 340.70 C 266.69 342.55 257.54 343.96 249.82 348.79 C 245.62 351.53 240.34 352.18 236.46 355.43 C 234.13 357.14 233.64 360.10 233.42 362.79 C 236.94 362.64 240.97 363.40 243.84 360.81 C 248.19 357.42 253.70 356.27 258.35 353.42 C 267.54 348.02 278.35 346.93 288.51 344.41 C 288.34 334.54 287.97 324.68 287.31 314.84 C 285.42 313.37 283.55 311.87 281.69 310.36 M 193.47 313.15 C 193.87 322.39 194.94 331.70 194.09 340.94 C 191.97 342.41 189.39 342.99 186.91 343.55 C 180.85 344.78 174.74 345.94 168.89 347.99 C 164.34 349.54 160.52 352.64 155.99 354.23 C 152.61 355.51 149.00 356.84 146.72 359.81 C 145.26 361.41 145.62 363.72 145.29 365.69 C 148.78 365.46 152.78 366.06 155.59 363.49 C 159.88 360.04 165.30 358.66 170.01 355.93 C 179.31 350.75 190.10 349.68 200.29 347.19 C 200.06 337.32 199.75 327.45 199.07 317.61 C 197.18 316.14 195.32 314.65 193.47 313.15 Z" />
<path fill="#000000" opacity="1.00" d=" M 120.43 89.43 C 123.13 87.83 127.50 89.65 127.09 93.13 C 127.78 96.67 123.51 99.50 120.53 97.43 C 117.25 95.97 117.04 90.90 120.43 89.43 Z" />
<path fill="#000000" opacity="1.00" d=" M 97.42 93.43 C 100.87 91.26 104.71 96.30 102.36 99.26 C 100.97 101.75 97.20 101.48 95.71 99.24 C 94.17 97.32 95.31 94.38 97.42 93.43 Z" />
<path fill="#000000" opacity="1.00" d=" M 66.85 155.13 C 69.88 155.61 73.50 155.73 75.37 158.57 C 77.84 161.50 77.33 165.51 77.38 169.06 C 76.68 165.84 76.36 162.36 74.42 159.58 C 72.72 157.00 69.50 156.31 66.85 155.13 Z" />
</g>
<g id="#9d836aff">
<path fill="#9d836a" opacity="1.00" d=" M 139.15 33.99 C 145.49 38.03 152.67 40.69 158.58 45.40 C 164.25 49.92 166.23 57.34 167.57 64.14 C 165.22 67.36 163.47 70.98 162.43 74.84 C 159.70 72.96 156.75 71.46 153.73 70.14 C 150.62 68.85 148.44 66.18 145.73 64.29 C 143.21 62.49 140.26 61.49 137.40 60.39 C 138.39 51.62 140.04 42.84 139.15 33.99 Z" />
<path fill="#9d836a" opacity="1.00" d=" M 174.15 64.12 C 183.62 59.04 195.00 58.82 204.14 52.91 C 202.68 61.57 203.45 70.77 199.89 78.97 C 196.39 85.23 190.48 90.12 183.84 92.77 C 179.18 94.62 172.95 94.80 169.50 90.59 C 163.22 82.73 165.02 69.06 174.15 64.12 M 185.67 70.75 C 179.41 72.61 174.70 78.54 173.92 84.97 C 173.55 87.29 174.57 90.28 177.19 90.69 C 182.64 91.42 187.54 87.88 191.31 84.33 C 196.24 79.98 198.57 73.58 199.22 67.17 C 194.72 68.42 190.13 69.35 185.67 70.75 Z" />
<path fill="#9d836a" opacity="1.00" d=" M 154.68 74.24 C 157.15 75.81 159.59 77.42 161.96 79.14 C 162.40 86.12 165.21 93.34 171.66 96.84 C 174.32 105.64 175.19 114.90 174.70 124.06 C 173.82 141.10 170.03 157.92 170.26 175.04 C 170.32 180.23 171.69 185.78 175.60 189.44 C 179.87 193.44 185.73 194.82 190.94 197.14 C 192.81 197.79 194.63 198.94 196.67 198.88 C 198.55 197.73 199.96 195.99 201.51 194.46 C 207.19 188.48 213.51 183.13 219.05 177.01 C 224.64 170.70 227.04 162.20 227.36 153.91 C 227.73 151.69 227.05 148.84 229.09 147.27 C 232.06 144.55 235.28 142.11 238.31 139.47 C 239.01 145.57 239.97 151.65 240.30 157.80 C 241.26 158.22 242.21 158.65 243.17 159.08 C 249.38 154.02 254.81 148.09 259.53 141.63 C 260.76 147.02 260.52 152.67 262.12 157.98 C 262.97 160.17 264.42 163.28 267.32 162.49 C 274.83 157.14 276.94 147.65 280.70 139.76 C 286.15 145.33 291.05 151.41 296.18 157.27 C 294.79 167.77 292.20 178.44 294.13 189.04 C 294.83 194.34 299.58 197.46 302.27 201.71 C 306.42 207.58 308.38 214.72 308.65 221.85 C 310.11 233.90 308.82 246.81 302.14 257.22 C 300.56 259.49 299.38 262.06 299.50 264.89 C 299.29 273.56 298.15 282.28 298.98 290.93 C 302.39 294.19 306.27 297.86 305.83 303.07 C 306.34 307.03 303.08 309.56 300.85 312.24 C 300.17 321.15 300.69 330.17 301.14 339.10 C 301.22 344.16 304.02 348.52 305.61 353.18 C 307.48 358.12 308.32 363.35 309.14 368.55 C 287.70 369.23 266.28 370.70 244.84 371.08 C 241.98 371.09 242.76 367.46 243.94 365.93 C 247.37 360.64 254.26 360.42 259.11 357.13 C 267.57 351.78 277.74 350.68 287.27 348.40 C 289.39 347.86 292.60 347.03 292.04 344.15 C 291.87 333.85 291.79 323.49 290.60 313.26 C 287.96 310.04 283.23 308.29 282.39 303.76 C 281.08 299.29 285.31 296.09 286.24 292.11 C 286.50 285.84 285.88 279.56 285.79 273.29 C 285.30 272.91 284.34 272.15 283.85 271.77 C 278.86 272.41 273.55 272.40 269.02 269.94 C 266.14 268.72 263.51 265.90 260.14 266.99 C 244.75 270.15 228.66 270.99 213.28 267.33 C 212.76 267.75 211.72 268.58 211.21 269.00 C 211.08 277.25 209.82 285.57 210.78 293.78 C 214.58 297.15 218.41 301.40 217.53 306.95 C 217.76 310.65 214.20 312.41 212.51 315.15 C 212.10 324.09 212.32 333.08 212.92 342.01 C 213.02 346.92 215.69 351.17 217.27 355.69 C 219.21 360.70 220.06 366.03 220.90 371.32 C 198.82 371.98 176.76 373.67 154.67 373.79 C 154.58 371.34 155.11 368.70 157.01 367.01 C 160.49 363.24 165.87 362.62 170.08 360.01 C 178.89 354.55 189.40 353.44 199.28 351.11 C 201.31 350.59 204.23 349.73 203.80 347.04 C 203.81 337.33 203.29 327.62 202.69 317.93 C 202.69 314.23 198.31 313.24 196.38 310.67 C 193.19 307.58 193.40 302.42 196.04 299.05 C 199.29 295.07 197.77 289.70 197.89 285.01 C 197.30 277.16 197.80 269.17 196.53 261.42 C 192.78 258.13 187.51 256.65 184.60 252.41 C 181.30 247.37 181.07 241.10 181.06 235.27 C 178.87 234.08 176.33 233.95 173.92 233.59 C 159.80 232.17 146.46 224.26 138.52 212.47 C 133.65 205.25 130.54 196.74 129.96 188.03 C 130.05 180.62 132.03 173.39 133.91 166.28 C 132.78 166.01 131.66 165.74 130.53 165.48 C 129.57 168.06 128.82 170.85 126.87 172.90 C 123.94 176.22 119.75 177.90 115.92 179.90 C 114.17 180.56 113.80 182.55 113.13 184.08 C 109.15 195.22 104.26 206.30 96.67 215.49 C 92.28 220.70 86.20 225.66 78.97 225.17 C 71.32 224.63 65.07 219.26 60.45 213.54 C 52.94 203.98 48.18 192.12 47.56 179.94 C 47.22 174.12 48.68 168.36 51.16 163.13 C 54.19 156.65 57.41 149.92 62.99 145.23 C 63.16 144.59 63.51 143.31 63.68 142.67 C 63.18 142.20 62.19 141.25 61.69 140.78 C 63.49 137.06 66.12 133.76 69.60 131.49 C 73.94 128.18 79.82 128.40 84.36 125.46 C 94.01 119.60 100.37 109.73 109.94 103.73 C 114.71 110.10 121.79 115.12 129.91 115.65 C 139.81 116.68 149.59 110.80 154.15 102.10 C 158.93 93.60 158.71 82.99 154.68 74.24 M 66.85 155.13 C 69.50 156.31 72.72 157.00 74.42 159.58 C 76.36 162.36 76.68 165.84 77.38 169.06 C 77.33 165.51 77.84 161.50 75.37 158.57 C 73.50 155.73 69.88 155.61 66.85 155.13 M 60.63 170.61 C 59.20 174.36 57.34 179.38 60.36 182.81 C 61.89 182.40 63.34 181.60 64.34 180.34 C 68.41 175.37 70.48 168.44 68.17 162.22 C 64.87 164.20 61.89 166.87 60.63 170.61 Z" />
<path fill="#9d836a" opacity="1.00" d=" M 302.30 195.59 C 307.55 194.48 313.14 194.64 318.03 197.02 C 325.05 200.15 331.93 205.96 332.82 214.07 C 334.20 227.09 326.68 239.08 327.29 252.07 C 327.41 255.22 328.35 258.26 329.23 261.28 C 326.86 262.42 324.50 263.58 322.14 264.74 C 318.48 250.36 326.93 237.02 328.49 223.02 C 329.14 217.38 328.91 210.70 324.43 206.58 C 319.64 202.35 312.84 202.51 306.85 202.17 C 305.34 199.97 303.82 197.78 302.30 195.59 Z" />
</g>
<g id="#744d2dff">
<path fill="#744d2d" opacity="1.00" d=" M 185.67 70.75 C 190.13 69.35 194.72 68.42 199.22 67.17 C 198.57 73.58 196.24 79.98 191.31 84.33 C 187.54 87.88 182.64 91.42 177.19 90.69 C 174.57 90.28 173.55 87.29 173.92 84.97 C 174.70 78.54 179.41 72.61 185.67 70.75 Z" />
<path fill="#744d2d" opacity="1.00" d=" M 224.86 106.79 C 234.53 99.34 247.12 97.31 259.01 97.02 C 266.47 97.00 274.01 97.10 281.32 98.72 C 292.68 101.70 302.08 109.66 309.12 118.82 C 313.68 125.05 318.24 132.23 317.36 140.31 C 310.23 139.36 304.56 134.75 299.13 130.43 C 298.37 130.78 296.85 131.47 296.09 131.82 C 297.70 140.61 302.17 148.82 301.86 157.94 C 294.59 150.84 288.83 142.33 281.24 135.53 C 280.55 135.75 279.19 136.19 278.50 136.41 C 274.45 144.03 272.58 152.98 266.16 159.16 C 264.68 154.55 264.25 149.73 263.71 144.94 C 263.26 142.23 262.60 138.96 260.02 137.48 C 257.58 137.19 256.50 139.62 255.21 141.20 C 251.99 145.99 247.95 150.15 243.69 154.02 C 242.86 147.90 242.06 141.78 241.67 135.61 C 240.97 135.30 239.57 134.68 238.86 134.38 C 233.25 139.08 227.79 143.97 221.90 148.33 C 223.79 138.04 228.46 127.34 238.01 122.04 C 237.52 121.04 237.03 120.03 236.54 119.03 C 226.95 123.46 218.17 129.46 208.53 133.80 C 211.61 123.67 216.24 113.38 224.86 106.79 Z" />
<path fill="#744d2d" opacity="1.00" d=" M 60.63 170.61 C 61.89 166.87 64.87 164.20 68.17 162.22 C 70.48 168.44 68.41 175.37 64.34 180.34 C 63.34 181.60 61.89 182.40 60.36 182.81 C 57.34 179.38 59.20 174.36 60.63 170.61 Z" />
<path fill="#744d2d" opacity="1.00" d=" M 187.70 259.96 C 189.62 261.13 191.54 262.29 193.46 263.45 C 193.68 273.87 194.50 284.27 194.44 294.70 C 192.17 297.88 190.77 301.56 189.90 305.36 C 187.68 302.92 184.73 300.53 184.59 296.96 C 184.26 292.40 188.98 289.32 188.73 284.78 C 188.58 276.50 188.14 268.23 187.70 259.96 Z" />
<path fill="#744d2d" opacity="1.00" d=" M 330.04 264.80 C 335.43 262.16 341.90 266.97 342.51 272.56 C 343.32 278.53 343.75 285.15 340.53 290.53 C 337.94 294.95 335.18 299.28 332.74 303.79 C 330.81 297.76 329.36 291.46 325.97 286.03 C 323.62 281.83 320.35 277.38 321.28 272.29 C 321.83 267.92 326.59 266.38 330.04 264.80 Z" />
<path fill="#744d2d" opacity="1.00" d=" M 276.81 275.81 C 278.63 275.74 280.45 275.67 282.28 275.59 C 282.35 280.78 283.02 285.98 282.55 291.17 C 281.19 295.03 278.84 298.52 278.06 302.62 C 275.86 300.07 272.88 297.61 272.81 293.97 C 272.72 290.23 275.80 287.52 276.81 284.10 C 277.20 281.35 276.91 278.57 276.81 275.81 Z" />
<path fill="#744d2d" opacity="1.00" d=" M 281.69 310.36 C 283.55 311.87 285.42 313.37 287.31 314.84 C 287.97 324.68 288.34 334.54 288.51 344.41 C 278.35 346.93 267.54 348.02 258.35 353.42 C 253.70 356.27 248.19 357.42 243.84 360.81 C 240.97 363.40 236.94 362.64 233.42 362.79 C 233.64 360.10 234.13 357.14 236.46 355.43 C 240.34 352.18 245.62 351.53 249.82 348.79 C 257.54 343.96 266.69 342.55 275.44 340.70 C 277.83 340.12 280.38 339.65 282.37 338.09 C 283.09 328.87 282.18 319.58 281.69 310.36 Z" />
<path fill="#744d2d" opacity="1.00" d=" M 193.47 313.15 C 195.32 314.65 197.18 316.14 199.07 317.61 C 199.75 327.45 200.06 337.32 200.29 347.19 C 190.10 349.68 179.31 350.75 170.01 355.93 C 165.30 358.66 159.88 360.04 155.59 363.49 C 152.78 366.06 148.78 365.46 145.29 365.69 C 145.62 363.72 145.26 361.41 146.72 359.81 C 149.00 356.84 152.61 355.51 155.99 354.23 C 160.52 352.64 164.34 349.54 168.89 347.99 C 174.74 345.94 180.85 344.78 186.91 343.55 C 189.39 342.99 191.97 342.41 194.09 340.94 C 194.94 331.70 193.87 322.39 193.47 313.15 Z" />
</g>
</svg>
