<?xml version="1.0" encoding="UTF-8" ?>
<!DOCTYPE svg PUBLIC "-//W3C//DTD SVG 1.1//EN" "http://www.w3.org/Graphics/SVG/1.1/DTD/svg11.dtd">
<svg width="350pt" height="374pt" viewBox="0 0 350 374" version="1.1" xmlns="http://www.w3.org/2000/svg">
<g id="#ffffffff">
<path fill="#ffffff" opacity="1.00" d=" M 101.25 49.11 C 108.69 47.72 116.64 50.71 121.41 56.55 C 129.69 66.17 128.98 82.02 119.91 90.89 C 114.89 96.10 107.12 98.39 100.08 96.63 C 89.20 94.10 81.27 83.12 81.82 72.03 C 81.97 61.13 90.43 50.92 101.25 49.11 M 92.35 72.41 C 87.48 74.49 86.68 81.87 90.96 84.97 C 95.14 88.56 102.51 85.61 102.91 80.09 C 103.97 74.47 97.36 69.77 92.35 72.41 Z" />
<path fill="#ffffff" opacity="1.00" d=" M 59.97 59.94 C 66.18 55.11 75.10 55.00 81.76 59.00 C 77.34 67.19 77.11 77.32 81.23 85.68 C 75.56 89.02 71.19 94.01 66.23 98.22 C 59.40 96.46 53.89 90.79 51.98 84.05 C 49.34 75.39 52.64 65.28 59.97 59.94 M 68.55 75.68 C 64.71 77.31 63.25 82.73 66.20 85.85 C 69.29 89.83 76.58 88.06 77.34 83.00 C 78.59 78.14 73.15 73.52 68.55 75.68 Z" />
</g>
<g id="#000000ff">
<path fill="#000000" opacity="1.00" d=" M 106.93 14.00 C 108.02 12.65 110.01 12.70 111.23 13.84 C 118.36 19.29 127.20 22.00 134.13 27.75 C 139.91 32.44 142.39 39.86 143.93 46.88 C 154.97 39.95 169.77 41.16 179.34 31.55 C 179.96 31.88 181.20 32.55 181.82 32.88 C 181.10 37.29 179.90 41.64 179.78 46.13 C 178.92 53.69 178.94 61.93 174.37 68.39 C 168.34 76.43 158.99 82.96 148.59 82.63 C 155.69 107.85 146.57 133.54 146.81 159.00 C 146.68 164.03 147.79 169.77 152.19 172.84 C 157.16 176.40 163.30 177.66 168.77 180.24 C 174.83 173.78 181.42 167.86 187.64 161.58 C 190.63 158.46 193.31 154.97 194.96 150.96 C 195.77 148.15 196.54 145.31 196.81 142.39 L 197.35 142.56 C 197.51 138.51 197.65 134.46 197.75 130.40 C 197.29 130.55 196.36 130.86 195.90 131.01 C 195.46 130.41 194.58 129.22 194.14 128.62 C 194.43 128.67 195.02 128.75 195.31 128.79 C 195.40 125.54 195.42 122.28 195.77 119.04 C 196.37 117.06 196.65 115.00 197.19 113.00 C 197.52 111.62 197.86 110.25 198.27 108.90 C 198.34 108.30 198.41 107.70 198.49 107.09 C 195.44 110.18 192.85 114.30 188.49 115.58 C 187.83 110.94 188.98 106.34 190.02 101.85 C 190.34 100.27 190.61 98.68 190.92 97.11 C 191.33 96.01 191.76 94.92 192.19 93.83 C 192.29 93.33 192.49 92.33 192.59 91.83 C 193.15 90.58 193.62 89.29 194.14 88.02 C 194.63 86.92 195.14 85.83 195.68 84.75 C 195.94 84.26 196.46 83.29 196.72 82.81 C 200.32 77.47 205.65 72.78 212.26 71.99 C 216.61 71.08 221.10 71.54 225.39 72.49 C 229.29 73.56 232.17 76.55 234.65 79.58 C 241.41 71.52 253.28 69.71 262.86 73.10 C 268.82 75.71 272.12 81.72 275.15 87.14 C 279.89 96.85 283.55 107.49 283.36 118.41 C 282.53 119.44 281.92 120.72 280.73 121.39 C 277.28 120.73 275.46 117.38 273.26 114.99 C 273.66 123.11 276.84 131.59 273.84 139.52 C 273.39 139.32 272.51 138.90 272.06 138.70 C 271.65 146.74 270.93 154.76 270.02 162.76 C 270.05 167.83 269.31 173.81 272.82 177.97 C 280.53 174.88 289.36 176.45 296.28 180.77 C 302.27 184.28 307.62 189.74 308.98 196.77 C 312.47 212.97 299.32 228.63 305.53 244.62 C 310.50 246.28 316.10 248.33 318.11 253.71 C 319.67 259.04 319.92 264.83 319.14 270.33 C 318.58 274.91 315.73 278.67 313.40 282.49 C 311.01 286.22 309.48 290.58 306.05 293.56 C 305.44 293.32 304.22 292.85 303.62 292.61 C 300.61 286.24 299.94 278.94 296.04 272.96 C 292.74 267.57 288.81 261.18 291.47 254.68 C 293.18 251.57 290.96 248.41 290.87 245.21 C 289.27 230.26 298.83 216.86 298.15 201.99 C 298.16 198.14 296.18 194.01 292.47 192.49 C 289.08 191.07 285.33 191.00 281.71 190.79 C 285.10 198.06 285.05 206.15 285.73 213.97 C 286.22 225.74 282.86 237.51 276.32 247.29 C 275.63 256.24 275.23 265.31 275.13 274.31 C 283.21 279.35 285.43 293.09 277.00 298.80 C 276.91 308.16 276.96 317.54 278.01 326.85 C 278.86 330.11 280.55 333.08 281.66 336.26 C 283.99 342.27 285.02 348.67 285.88 355.03 C 285.33 355.66 284.78 356.30 284.24 356.95 C 262.16 357.84 240.08 359.01 217.99 359.71 C 213.43 360.30 211.64 354.84 212.52 351.22 C 209.76 351.19 206.15 352.32 204.31 349.56 C 201.64 346.36 203.23 341.60 205.91 338.93 C 209.26 335.07 214.37 333.84 218.88 331.98 C 228.63 325.08 240.85 324.00 252.10 321.08 C 252.20 311.17 251.43 301.29 250.99 291.39 C 246.87 288.83 242.85 285.11 242.30 280.02 C 241.58 275.77 244.17 272.11 246.27 268.71 C 246.49 265.90 246.22 263.07 246.16 260.26 C 242.27 259.18 238.64 257.39 235.26 255.20 C 219.65 258.44 203.36 259.60 187.67 256.23 C 187.22 263.22 186.81 270.20 187.00 277.20 C 195.03 282.21 197.08 295.67 188.90 301.49 C 189.07 310.85 188.47 320.29 189.82 329.59 C 190.61 332.79 192.28 335.70 193.36 338.80 C 195.80 344.90 196.69 351.44 197.67 357.88 C 196.80 358.51 196.23 359.79 195.04 359.82 C 173.01 360.53 151.00 361.92 128.97 362.44 C 124.80 362.41 123.49 357.36 124.27 353.99 C 122.06 353.99 119.86 354.00 117.65 354.01 C 115.43 352.02 113.78 348.99 115.07 345.99 C 117.40 339.76 124.06 336.81 130.03 335.10 C 140.01 327.99 152.45 326.81 163.97 323.77 C 163.73 313.93 163.30 304.08 162.73 294.26 C 158.76 291.55 154.66 288.01 154.06 282.94 C 153.40 278.67 155.66 274.78 158.13 271.51 C 158.17 261.79 157.41 252.11 156.99 242.41 C 151.94 237.13 150.62 229.61 150.47 222.57 C 134.21 221.73 118.27 213.58 109.01 200.04 C 101.55 189.14 97.19 175.18 100.72 162.09 C 97.53 164.62 93.92 166.50 90.20 168.11 C 86.61 178.78 82.02 189.23 75.64 198.55 C 70.77 205.40 64.31 212.14 55.63 213.55 C 48.03 214.73 40.67 210.82 35.31 205.72 C 25.06 195.85 18.88 182.12 17.22 168.07 C 16.35 161.08 17.62 153.93 20.55 147.55 C 23.61 140.80 27.02 134.03 32.22 128.65 C 30.97 125.40 32.10 121.98 34.29 119.45 C 38.11 115.06 42.91 110.99 48.83 110.02 C 54.77 108.90 59.60 104.97 63.86 100.93 C 56.89 98.24 51.11 92.47 49.08 85.21 C 45.20 73.56 51.30 59.53 62.71 54.80 C 69.35 51.67 77.27 52.74 83.46 56.42 C 88.93 49.17 97.77 44.67 106.91 45.22 C 107.17 37.50 109.27 29.87 108.55 22.12 C 108.34 19.35 107.28 16.74 106.93 14.00 M 112.15 18.97 C 113.06 27.84 111.38 36.63 110.41 45.41 C 114.43 46.82 118.47 48.49 121.54 51.55 C 125.38 55.56 131.19 56.42 135.43 59.89 C 136.43 56.01 138.18 52.38 140.57 49.17 C 139.26 42.36 137.25 34.95 131.60 30.41 C 125.68 25.69 118.48 23.05 112.15 18.97 M 147.20 49.09 C 137.86 54.11 136.10 68.31 142.93 76.06 C 146.90 80.23 153.45 79.40 158.24 77.21 C 164.43 74.27 170.09 69.53 173.19 63.33 C 176.37 55.24 175.73 46.34 177.15 37.89 C 168.04 43.83 156.66 44.03 147.20 49.09 M 101.25 49.11 C 90.43 50.92 81.97 61.13 81.82 72.03 C 81.27 83.12 89.20 94.10 100.08 96.63 C 107.12 98.39 114.89 96.10 119.91 90.89 C 128.98 82.02 129.69 66.17 121.41 56.55 C 116.64 50.71 108.69 47.72 101.25 49.11 M 59.97 59.94 C 52.64 65.28 49.34 75.39 51.98 84.05 C 53.89 90.79 59.40 96.46 66.23 98.22 C 71.19 94.01 75.56 89.02 81.23 85.68 C 77.11 77.32 77.34 67.19 81.76 59.00 C 75.10 55.00 66.18 55.11 59.97 59.94 M 127.66 59.24 C 131.98 68.42 131.87 79.73 126.39 88.41 C 121.63 96.41 112.28 101.61 102.91 100.65 C 94.80 100.11 87.70 95.13 82.97 88.74 C 71.18 95.85 64.10 109.99 50.05 113.32 C 43.33 114.69 37.48 119.55 34.75 125.82 C 35.23 126.29 36.19 127.21 36.67 127.68 C 36.50 128.32 36.16 129.62 35.99 130.26 C 31.12 134.22 28.18 139.89 25.43 145.40 C 22.72 150.89 20.44 156.78 20.54 163.00 C 20.60 175.40 25.25 187.56 32.60 197.45 C 37.17 203.41 43.29 209.06 51.02 210.09 C 57.46 210.97 63.39 207.22 67.65 202.73 C 74.91 195.05 79.65 185.40 83.65 175.72 C 85.09 172.41 85.91 168.83 87.68 165.68 C 91.56 163.23 96.19 161.85 99.40 158.40 C 101.67 156.32 102.53 153.29 103.49 150.48 C 104.63 150.74 105.77 151.01 106.91 151.28 C 105.02 158.38 103.06 165.61 102.96 173.01 C 103.54 181.72 106.64 190.23 111.51 197.46 C 119.17 208.84 131.87 216.62 145.46 218.42 C 148.37 218.86 151.50 218.75 154.09 220.38 C 154.03 226.18 154.34 232.40 157.60 237.42 C 160.51 241.66 165.78 243.12 169.52 246.41 C 170.28 248.58 170.08 250.96 170.23 253.24 C 170.39 262.20 171.28 271.16 170.97 280.12 C 169.99 283.83 166.11 286.76 167.06 291.00 C 167.61 295.66 172.23 297.74 175.22 300.67 C 176.65 309.64 176.29 318.87 176.82 327.95 C 176.64 330.49 177.82 334.55 174.43 335.42 C 166.78 337.76 158.69 338.47 151.13 341.20 C 146.02 342.75 141.84 346.31 136.73 347.88 C 132.06 349.47 126.91 353.22 127.72 358.81 C 149.79 358.64 171.83 356.98 193.89 356.32 C 193.02 350.53 191.99 344.71 189.74 339.28 C 188.36 335.58 186.24 332.05 186.01 328.02 C 185.29 318.76 185.13 309.44 185.49 300.16 C 187.13 297.41 190.82 295.72 190.53 291.97 C 191.39 286.45 187.66 282.12 183.77 278.83 C 182.83 270.60 184.07 262.26 184.21 254.00 C 184.73 253.58 185.77 252.75 186.29 252.33 C 198.69 255.24 211.60 255.37 224.18 253.54 C 228.11 253.07 231.96 251.88 235.94 251.76 C 239.22 253.17 242.12 255.45 245.62 256.36 C 249.26 257.50 253.11 257.15 256.83 256.75 C 257.32 257.14 258.30 257.90 258.79 258.29 C 258.82 264.86 259.68 271.46 259.11 278.01 C 257.56 281.45 254.23 284.67 255.40 288.79 C 256.20 293.35 261.03 295.03 263.60 298.28 C 264.79 308.48 264.86 318.81 265.05 329.08 C 265.65 332.03 262.36 332.89 260.19 333.42 C 250.45 335.72 240.05 336.88 231.49 342.50 C 227.94 344.90 223.42 345.29 219.96 347.87 C 217.71 349.51 215.52 351.98 215.91 354.98 C 216.74 356.50 218.53 356.06 219.95 356.13 C 240.68 355.46 261.40 354.29 282.13 353.55 C 281.24 345.03 278.42 336.95 275.00 329.16 C 273.13 320.61 273.87 311.72 273.53 303.03 C 273.71 300.44 272.78 297.15 275.35 295.46 C 280.53 291.55 279.62 283.03 275.04 279.02 C 273.69 277.55 271.38 276.42 271.71 274.08 C 271.56 265.70 272.18 257.32 272.57 248.95 C 272.46 245.36 275.12 242.69 276.63 239.68 C 282.22 229.40 282.97 217.27 281.56 205.86 C 281.28 198.34 278.68 190.94 274.04 185.01 C 271.64 181.75 268.08 179.08 267.32 174.88 C 266.06 168.91 266.13 162.63 267.26 156.65 C 267.76 156.30 268.74 155.60 269.23 155.25 C 269.50 150.49 269.77 145.72 270.21 140.97 C 270.34 138.44 270.89 135.75 269.75 133.35 C 267.60 128.13 265.23 123.01 262.83 117.90 C 260.44 125.71 260.61 134.80 255.00 141.25 C 252.21 135.28 252.55 128.61 252.39 122.20 C 252.01 122.22 251.25 122.26 250.87 122.28 C 248.76 127.62 246.50 133.00 242.80 137.46 C 241.08 131.19 241.66 124.65 241.24 118.24 C 239.73 119.95 237.64 121.77 238.35 124.32 C 238.83 129.32 241.63 136.30 236.43 139.72 C 235.18 145.01 235.03 150.48 235.30 155.89 L 233.41 155.99 C 233.49 151.15 233.93 146.33 234.38 141.51 C 234.49 138.71 235.05 135.74 233.85 133.10 C 231.66 127.96 229.39 122.85 226.88 117.85 C 225.00 125.81 224.18 134.26 219.78 141.37 C 215.65 134.96 217.28 126.94 216.25 119.77 C 213.77 125.81 211.20 131.87 207.60 137.35 C 205.33 131.07 205.98 124.14 205.39 117.56 C 203.49 120.62 201.58 123.67 199.66 126.72 C 199.60 132.47 199.80 138.28 198.66 143.95 C 197.94 148.39 196.11 152.56 195.53 157.03 C 189.98 166.06 180.99 172.18 173.99 179.98 C 172.17 181.54 170.34 184.97 167.51 183.54 C 162.14 181.24 156.47 179.56 151.40 176.62 C 146.00 173.47 143.42 167.14 143.30 161.10 C 142.83 143.29 146.98 125.80 147.74 108.06 C 148.13 99.21 147.23 90.29 144.64 81.81 C 138.20 78.35 135.40 71.13 134.99 64.18 C 132.62 62.42 130.16 60.80 127.66 59.24 M 200.31 82.33 C 193.59 90.54 191.71 101.46 190.16 111.65 C 195.44 107.11 199.44 101.31 204.79 96.86 C 205.09 100.90 202.27 103.99 200.85 107.52 C 198.56 113.33 197.42 119.57 197.28 125.81 C 200.81 121.60 202.15 115.47 207.05 112.52 C 207.49 118.94 207.51 125.38 207.95 131.80 C 211.57 126.52 213.33 120.31 216.14 114.61 C 219.60 121.59 217.86 129.60 219.65 136.97 C 223.53 129.46 223.26 120.68 226.77 113.06 C 231.11 120.17 233.68 128.16 237.48 135.55 C 238.32 126.32 234.52 117.46 235.35 108.24 C 238.74 111.64 241.10 116.11 245.42 118.50 C 246.46 108.94 242.84 99.70 238.97 91.16 C 236.02 85.52 232.67 79.28 226.64 76.48 C 217.78 73.45 206.51 74.67 200.31 82.33 M 235.89 81.84 C 237.03 83.72 238.15 85.63 239.23 87.56 C 239.56 87.77 240.23 88.19 240.56 88.40 L 239.99 89.87 C 240.37 89.97 241.14 90.18 241.52 90.28 C 241.50 94.73 244.09 98.61 245.34 102.76 C 245.36 103.30 245.42 104.38 245.44 104.91 C 245.64 105.37 246.03 106.27 246.23 106.72 C 247.12 111.53 248.18 116.51 245.82 121.10 C 245.41 121.12 244.60 121.15 244.19 121.16 L 243.62 119.62 C 243.28 123.68 243.41 127.75 243.70 131.80 C 247.32 126.50 248.96 120.23 252.04 114.66 C 255.13 121.53 254.06 129.20 255.04 136.47 C 259.79 129.59 259.24 120.74 262.19 113.13 C 267.39 119.87 269.30 128.39 273.40 135.76 C 273.47 131.17 273.08 126.59 272.28 122.08 C 271.58 117.43 270.17 112.67 271.49 107.99 C 274.39 111.80 276.85 116.23 281.30 118.47 C 281.97 108.48 278.34 98.80 274.11 89.92 C 270.78 83.45 266.02 76.02 258.02 75.36 C 250.06 73.85 241.75 76.24 235.89 81.84 M 237.41 115.74 C 236.61 116.43 236.52 118.44 237.86 118.54 C 239.59 118.30 239.28 114.59 237.41 115.74 M 275.31 180.63 C 276.83 182.81 278.36 184.98 279.86 187.18 C 285.85 187.51 292.65 187.36 297.43 191.59 C 302.10 195.91 302.16 202.93 301.40 208.79 C 299.65 222.49 291.50 235.64 295.17 249.74 C 297.53 248.57 299.89 247.41 302.26 246.26 C 301.35 243.27 300.40 240.25 300.29 237.10 C 299.67 224.10 307.19 212.11 305.82 199.07 C 304.98 191.23 298.46 185.53 291.72 182.33 C 286.66 179.75 280.80 179.33 275.31 180.63 M 160.70 244.96 C 161.13 253.33 161.61 261.72 161.71 270.11 C 161.91 274.56 157.07 277.49 157.59 282.02 C 157.74 285.60 160.68 287.97 162.96 290.35 C 163.61 286.26 165.80 282.74 167.34 278.98 C 167.69 268.81 166.56 258.63 166.46 248.45 C 164.54 247.29 162.62 246.12 160.70 244.96 M 303.06 249.80 C 299.60 251.41 294.76 252.91 294.27 257.35 C 293.36 262.40 296.61 266.82 298.95 270.99 C 302.37 276.42 303.78 282.75 305.74 288.79 C 308.27 284.07 311.20 279.59 313.85 274.95 C 316.76 269.66 316.25 263.34 315.51 257.57 C 314.92 251.99 308.43 247.13 303.06 249.80 M 249.82 260.81 C 249.87 263.57 250.09 266.35 249.77 269.11 C 248.89 272.55 245.61 275.17 245.80 278.95 C 245.86 282.62 248.86 285.13 251.14 287.64 C 251.52 282.34 256.31 278.43 255.73 273.03 C 255.66 268.88 255.40 264.74 255.28 260.59 C 253.45 260.66 251.63 260.74 249.82 260.81 M 254.68 295.34 C 255.20 304.55 256.04 313.84 255.40 323.06 C 253.44 324.69 250.85 325.10 248.45 325.69 C 239.46 327.59 230.05 329.06 222.19 334.16 C 218.00 336.87 212.55 337.28 208.94 340.93 C 206.88 342.60 206.64 345.31 206.53 347.77 C 210.03 347.64 214.08 348.45 216.89 345.79 C 220.94 342.42 226.29 341.53 230.70 338.78 C 240.02 333.08 251.12 332.00 261.51 329.40 C 261.34 319.53 260.99 309.67 260.30 299.83 C 258.40 298.35 256.53 296.86 254.68 295.34 M 166.46 298.13 C 166.89 307.37 167.89 316.67 167.12 325.90 C 164.15 328.01 160.41 328.34 156.97 329.14 C 149.26 330.77 141.28 332.28 134.54 336.59 C 129.82 339.73 123.39 340.06 119.74 344.79 C 118.20 346.36 118.55 348.67 118.42 350.67 C 120.94 350.57 123.50 350.68 125.98 350.15 C 128.57 348.79 130.70 346.67 133.37 345.44 C 136.37 344.06 139.51 342.97 142.36 341.28 C 151.80 335.81 162.87 334.75 173.28 332.18 C 173.06 322.30 172.78 312.42 172.04 302.57 C 170.16 301.12 168.30 299.63 166.46 298.13 Z" />
<path fill="#000000" opacity="1.00" d=" M 92.35 72.41 C 97.36 69.77 103.97 74.47 102.91 80.09 C 102.51 85.61 95.14 88.56 90.96 84.97 C 86.68 81.87 87.48 74.49 92.35 72.41 Z" />
<path fill="#000000" opacity="1.00" d=" M 68.55 75.68 C 73.15 73.52 78.59 78.14 77.34 83.00 C 76.58 88.06 69.29 89.83 66.20 85.85 C 63.25 82.73 64.71 77.31 68.55 75.68 Z" />
<path fill="#000000" opacity="1.00" d=" M 39.84 140.23 C 42.69 140.60 46.03 140.60 47.98 143.08 C 50.80 146.01 50.43 150.25 50.31 153.98 C 49.64 150.56 49.31 146.80 46.99 144.01 C 45.23 141.81 42.32 141.25 39.84 140.23 Z" />
</g>
<g id="#9d836aff">
<path fill="#9d836a" opacity="1.00" d=" M 112.15 18.97 C 118.48 23.05 125.68 25.69 131.60 30.41 C 137.25 34.95 139.26 42.36 140.57 49.17 C 138.18 52.38 136.43 56.01 135.43 59.89 C 131.19 56.42 125.38 55.56 121.54 51.55 C 118.47 48.49 114.43 46.82 110.41 45.41 C 111.38 36.63 113.06 27.84 112.15 18.97 Z" />
<path fill="#9d836a" opacity="1.00" d=" M 147.20 49.09 C 156.66 44.03 168.04 43.83 177.15 37.89 C 175.73 46.34 176.37 55.24 173.19 63.33 C 170.09 69.53 164.43 74.27 158.24 77.21 C 153.45 79.40 146.90 80.23 142.93 76.06 C 136.10 68.31 137.86 54.11 147.20 49.09 M 158.64 55.75 C 152.36 57.63 147.69 63.59 146.90 70.02 C 146.56 72.32 147.58 75.26 150.16 75.69 C 155.64 76.44 160.56 72.87 164.33 69.30 C 169.24 64.95 171.64 58.58 172.18 52.16 C 167.69 53.45 163.10 54.36 158.64 55.75 Z" />
<path fill="#9d836a" opacity="1.00" d=" M 127.66 59.24 C 130.16 60.80 132.62 62.42 134.99 64.18 C 135.40 71.13 138.20 78.35 144.64 81.81 C 147.23 90.29 148.13 99.21 147.74 108.06 C 146.98 125.80 142.83 143.29 143.30 161.10 C 143.42 167.14 146.00 173.47 151.40 176.62 C 156.47 179.56 162.14 181.24 167.51 183.54 C 170.34 184.97 172.17 181.54 173.99 179.98 C 180.99 172.18 189.98 166.06 195.53 157.03 C 196.11 152.56 197.94 148.39 198.66 143.95 C 199.80 138.28 199.60 132.47 199.66 126.72 C 201.58 123.67 203.49 120.62 205.39 117.56 C 205.98 124.14 205.33 131.07 207.60 137.35 C 211.20 131.87 213.77 125.81 216.25 119.77 C 217.28 126.94 215.65 134.96 219.78 141.37 C 224.18 134.26 225.00 125.81 226.88 117.85 C 229.39 122.85 231.66 127.96 233.85 133.10 C 235.05 135.74 234.49 138.71 234.38 141.51 C 233.93 146.33 233.49 151.15 233.41 155.99 L 235.30 155.89 C 235.03 150.48 235.18 145.01 236.43 139.72 C 241.63 136.30 238.83 129.32 238.35 124.32 C 237.64 121.77 239.73 119.95 241.24 118.24 C 241.66 124.65 241.08 131.19 242.80 137.46 C 246.50 133.00 248.76 127.62 250.87 122.28 C 251.25 122.26 252.01 122.22 252.39 122.20 C 252.55 128.61 252.21 135.28 255.00 141.25 C 260.61 134.80 260.44 125.71 262.83 117.90 C 265.23 123.01 267.60 128.13 269.75 133.35 C 270.89 135.75 270.34 138.44 270.21 140.97 C 269.77 145.72 269.50 150.49 269.23 155.25 C 268.74 155.60 267.76 156.30 267.26 156.65 C 266.13 162.63 266.06 168.91 267.32 174.88 C 268.08 179.08 271.64 181.75 274.04 185.01 C 278.68 190.94 281.28 198.34 281.56 205.86 C 282.97 217.27 282.22 229.40 276.63 239.68 C 275.12 242.69 272.46 245.36 272.57 248.95 C 272.18 257.32 271.56 265.70 271.71 274.08 C 271.38 276.42 273.69 277.55 275.04 279.02 C 279.62 283.03 280.53 291.55 275.35 295.46 C 272.78 297.15 273.71 300.44 273.53 303.03 C 273.87 311.72 273.13 320.61 275.00 329.16 C 278.42 336.95 281.24 345.03 282.13 353.55 C 261.40 354.29 240.68 355.46 219.95 356.13 C 218.53 356.06 216.74 356.50 215.91 354.98 C 215.52 351.98 217.71 349.51 219.96 347.87 C 223.42 345.29 227.94 344.90 231.49 342.50 C 240.05 336.88 250.45 335.72 260.19 333.42 C 262.36 332.89 265.65 332.03 265.05 329.08 C 264.86 318.81 264.79 308.48 263.60 298.28 C 261.03 295.03 256.20 293.35 255.40 288.79 C 254.23 284.67 257.56 281.45 259.11 278.01 C 259.68 271.46 258.82 264.86 258.79 258.29 C 258.30 257.90 257.32 257.14 256.83 256.75 C 253.11 257.15 249.26 257.50 245.62 256.36 C 242.12 255.45 239.22 253.17 235.94 251.76 C 231.96 251.88 228.11 253.07 224.18 253.54 C 211.60 255.37 198.69 255.24 186.29 252.33 C 185.77 252.75 184.73 253.58 184.21 254.00 C 184.07 262.26 182.83 270.60 183.77 278.83 C 187.66 282.12 191.39 286.45 190.53 291.97 C 190.82 295.72 187.13 297.41 185.49 300.16 C 185.13 309.44 185.29 318.76 186.01 328.02 C 186.24 332.05 188.36 335.58 189.74 339.28 C 191.99 344.71 193.02 350.53 193.89 356.32 C 171.83 356.98 149.79 358.64 127.72 358.81 C 126.91 353.22 132.06 349.47 136.73 347.88 C 141.84 346.31 146.02 342.75 151.13 341.20 C 158.69 338.47 166.78 337.76 174.43 335.42 C 177.82 334.55 176.64 330.49 176.82 327.95 C 176.29 318.87 176.65 309.64 175.22 300.67 C 172.23 297.74 167.61 295.66 167.06 291.00 C 166.11 286.76 169.99 283.83 170.97 280.12 C 171.28 271.16 170.39 262.20 170.23 253.24 C 170.08 250.96 170.28 248.58 169.52 246.41 C 165.78 243.12 160.51 241.66 157.60 237.42 C 154.34 232.40 154.03 226.18 154.09 220.38 C 151.50 218.75 148.37 218.86 145.46 218.42 C 131.87 216.62 119.17 208.84 111.51 197.46 C 106.64 190.23 103.54 181.72 102.96 173.01 C 103.06 165.61 105.02 158.38 106.91 151.28 C 105.77 151.01 104.63 150.74 103.49 150.48 C 102.53 153.29 101.67 156.32 99.40 158.40 C 96.19 161.85 91.56 163.23 87.68 165.68 C 85.91 168.83 85.09 172.41 83.65 175.72 C 79.65 185.40 74.91 195.05 67.65 202.73 C 63.39 207.22 57.46 210.97 51.02 210.09 C 43.29 209.06 37.17 203.41 32.60 197.45 C 25.25 187.56 20.60 175.40 20.54 163.00 C 20.44 156.78 22.72 150.89 25.43 145.40 C 28.18 139.89 31.12 134.22 35.99 130.26 C 36.16 129.62 36.50 128.32 36.67 127.68 C 36.19 127.21 35.23 126.29 34.75 125.82 C 37.48 119.55 43.33 114.69 50.05 113.32 C 64.10 109.99 71.18 95.85 82.97 88.74 C 87.70 95.13 94.80 100.11 102.91 100.65 C 112.28 101.61 121.63 96.41 126.39 88.41 C 131.87 79.73 131.98 68.42 127.66 59.24 M 39.84 140.23 C 42.32 141.25 45.23 141.81 46.99 144.01 C 49.31 146.80 49.64 150.56 50.31 153.98 C 50.43 150.25 50.80 146.01 47.98 143.08 C 46.03 140.60 42.69 140.60 39.84 140.23 M 39.37 148.34 C 35.42 150.58 33.59 155.15 32.36 159.29 C 31.77 162.05 30.99 165.62 33.38 167.76 C 36.50 167.22 38.35 164.31 39.73 161.73 C 41.49 158.13 42.84 154.02 42.06 149.99 C 41.87 148.86 40.50 147.51 39.37 148.34 Z" />
<path fill="#9d836a" opacity="1.00" d=" M 239.23 87.56 C 240.45 86.56 240.90 86.84 240.56 88.40 C 240.23 88.19 239.56 87.77 239.23 87.56 Z" />
<path fill="#9d836a" opacity="1.00" d=" M 239.99 89.87 C 240.80 88.54 241.31 88.68 241.52 90.28 C 241.14 90.18 240.37 89.97 239.99 89.87 Z" />
<path fill="#9d836a" opacity="1.00" d=" M 244.19 121.16 C 244.60 121.15 245.41 121.12 245.82 121.10 C 245.63 121.44 245.24 122.11 245.05 122.44 C 244.83 122.12 244.40 121.48 244.19 121.16 Z" />
<path fill="#9d836a" opacity="1.00" d=" M 275.31 180.63 C 280.80 179.33 286.66 179.75 291.72 182.33 C 298.46 185.53 304.98 191.23 305.82 199.07 C 307.19 212.11 299.67 224.10 300.29 237.10 C 300.40 240.25 301.35 243.27 302.26 246.26 C 299.89 247.41 297.53 248.57 295.17 249.74 C 291.50 235.64 299.65 222.49 301.40 208.79 C 302.16 202.93 302.10 195.91 297.43 191.59 C 292.65 187.36 285.85 187.51 279.86 187.18 C 278.36 184.98 276.83 182.81 275.31 180.63 Z" />
</g>
<g id="#734d2eff">
<path fill="#734d2e" opacity="1.00" d=" M 158.64 55.75 C 163.10 54.36 167.69 53.45 172.18 52.16 C 171.64 58.58 169.24 64.95 164.33 69.30 C 160.56 72.87 155.64 76.44 150.16 75.69 C 147.58 75.26 146.56 72.32 146.90 70.02 C 147.69 63.59 152.36 57.63 158.64 55.75 Z" />
<path fill="#734d2e" opacity="1.00" d=" M 200.31 82.33 C 206.51 74.67 217.78 73.45 226.64 76.48 C 232.67 79.28 236.02 85.52 238.97 91.16 C 242.84 99.70 246.46 108.94 245.42 118.50 C 241.10 116.11 238.74 111.64 235.35 108.24 C 234.52 117.46 238.32 126.32 237.48 135.55 C 233.68 128.16 231.11 120.17 226.77 113.06 C 223.26 120.68 223.53 129.46 219.65 136.97 C 217.86 129.60 219.60 121.59 216.14 114.61 C 213.33 120.31 211.57 126.52 207.95 131.80 C 207.51 125.38 207.49 118.94 207.05 112.52 C 202.15 115.47 200.81 121.60 197.28 125.81 C 197.42 119.57 198.56 113.33 200.85 107.52 C 202.27 103.99 205.09 100.90 204.79 96.86 C 199.44 101.31 195.44 107.11 190.16 111.65 C 191.71 101.46 193.59 90.54 200.31 82.33 Z" />
<path fill="#734d2e" opacity="1.00" d=" M 235.89 81.84 C 241.75 76.24 250.06 73.85 258.02 75.36 C 266.02 76.02 270.78 83.45 274.11 89.92 C 278.34 98.80 281.97 108.48 281.30 118.47 C 276.85 116.23 274.39 111.80 271.49 107.99 C 270.17 112.67 271.58 117.43 272.28 122.08 C 273.08 126.59 273.47 131.17 273.40 135.76 C 269.30 128.39 267.39 119.87 262.19 113.13 C 259.24 120.74 259.79 129.59 255.04 136.47 C 254.06 129.20 255.13 121.53 252.04 114.66 C 248.96 120.23 247.32 126.50 243.70 131.80 C 243.41 127.75 243.28 123.68 243.62 119.62 L 244.19 121.16 C 244.40 121.48 244.83 122.12 245.05 122.44 C 245.24 122.11 245.63 121.44 245.82 121.10 C 248.18 116.51 247.12 111.53 246.23 106.72 C 246.03 106.27 245.64 105.37 245.44 104.91 C 245.42 104.38 245.36 103.30 245.34 102.76 C 244.09 98.61 241.50 94.73 241.52 90.28 C 241.31 88.68 240.80 88.54 239.99 89.87 L 240.56 88.40 C 240.90 86.84 240.45 86.56 239.23 87.56 C 238.15 85.63 237.03 83.72 235.89 81.84 Z" />
<path fill="#734d2e" opacity="1.00" d=" M 237.41 115.74 C 239.28 114.59 239.59 118.30 237.86 118.54 C 236.52 118.44 236.61 116.43 237.41 115.74 Z" />
<path fill="#734d2e" opacity="1.00" d=" M 39.37 148.34 C 40.50 147.51 41.87 148.86 42.06 149.99 C 42.84 154.02 41.49 158.13 39.73 161.73 C 38.35 164.31 36.50 167.22 33.38 167.76 C 30.99 165.62 31.77 162.05 32.36 159.29 C 33.59 155.15 35.42 150.58 39.37 148.34 Z" />
<path fill="#734d2e" opacity="1.00" d=" M 160.70 244.96 C 162.62 246.12 164.54 247.29 166.46 248.45 C 166.56 258.63 167.69 268.81 167.34 278.98 C 165.80 282.74 163.61 286.26 162.96 290.35 C 160.68 287.97 157.74 285.60 157.59 282.02 C 157.07 277.49 161.91 274.56 161.71 270.11 C 161.61 261.72 161.13 253.33 160.70 244.96 Z" />
<path fill="#734d2e" opacity="1.00" d=" M 303.06 249.80 C 308.43 247.13 314.92 251.99 315.51 257.57 C 316.25 263.34 316.76 269.66 313.85 274.95 C 311.20 279.59 308.27 284.07 305.74 288.79 C 303.78 282.75 302.37 276.42 298.95 270.99 C 296.61 266.82 293.36 262.40 294.27 257.35 C 294.76 252.91 299.60 251.41 303.06 249.80 Z" />
<path fill="#734d2e" opacity="1.00" d=" M 249.82 260.81 C 251.63 260.74 253.45 260.66 255.28 260.59 C 255.40 264.74 255.66 268.88 255.73 273.03 C 256.31 278.43 251.52 282.34 251.14 287.64 C 248.86 285.13 245.86 282.62 245.80 278.95 C 245.61 275.17 248.89 272.55 249.77 269.11 C 250.09 266.35 249.87 263.57 249.82 260.81 Z" />
<path fill="#734d2e" opacity="1.00" d=" M 254.68 295.34 C 256.53 296.86 258.40 298.35 260.30 299.83 C 260.99 309.67 261.34 319.53 261.51 329.40 C 251.12 332.00 240.02 333.08 230.70 338.78 C 226.29 341.53 220.94 342.42 216.89 345.79 C 214.08 348.45 210.03 347.64 206.53 347.77 C 206.64 345.31 206.88 342.60 208.94 340.93 C 212.55 337.28 218.00 336.87 222.19 334.16 C 230.05 329.06 239.46 327.59 248.45 325.69 C 250.85 325.10 253.44 324.69 255.40 323.06 C 256.04 313.84 255.20 304.55 254.68 295.34 Z" />
<path fill="#734d2e" opacity="1.00" d=" M 166.46 298.13 C 168.30 299.63 170.16 301.12 172.04 302.57 C 172.78 312.42 173.06 322.30 173.28 332.18 C 162.87 334.75 151.80 335.81 142.36 341.28 C 139.51 342.97 136.37 344.06 133.37 345.44 C 130.70 346.67 128.57 348.79 125.98 350.15 C 123.50 350.68 120.94 350.57 118.42 350.67 C 118.55 348.67 118.20 346.36 119.74 344.79 C 123.39 340.06 129.82 339.73 134.54 336.59 C 141.28 332.28 149.26 330.77 156.97 329.14 C 160.41 328.34 164.15 328.01 167.12 325.90 C 167.89 316.67 166.89 307.37 166.46 298.13 Z" />
</g>
</svg>
