<?xml version="1.0" encoding="UTF-8" ?>
<!DOCTYPE svg PUBLIC "-//W3C//DTD SVG 1.1//EN" "http://www.w3.org/Graphics/SVG/1.1/DTD/svg11.dtd">
<svg width="350pt" height="374pt" viewBox="0 0 350 374" version="1.1" xmlns="http://www.w3.org/2000/svg">
<g id="#020201fe">
<path fill="#020201" opacity="1.00" d=" M 144.33 50.25 C 148.19 47.15 153.57 46.28 158.27 47.75 C 162.81 49.31 166.06 53.50 170.95 54.22 C 181.46 56.07 192.39 51.02 202.65 55.19 C 206.93 56.10 208.12 60.73 209.60 64.23 C 213.29 73.50 213.11 83.67 212.22 93.44 C 219.60 93.37 229.25 93.24 233.52 100.52 C 237.91 108.06 240.91 117.06 239.45 125.85 C 239.25 127.50 237.99 128.77 236.46 129.28 C 231.49 131.32 226.09 131.74 220.79 131.97 C 218.15 141.53 208.92 148.70 199.09 149.38 C 203.68 166.42 198.56 183.84 197.54 201.00 C 197.54 205.35 197.01 210.43 200.13 213.94 C 203.87 217.35 209.03 218.37 213.54 220.40 C 218.21 215.54 223.06 210.86 227.81 206.07 C 232.79 201.13 234.39 193.74 234.31 186.96 C 234.54 185.37 233.20 184.34 232.36 183.22 C 232.85 179.33 233.11 175.41 233.76 171.54 C 234.79 169.93 235.75 168.27 236.53 166.51 C 233.54 168.76 231.28 171.81 228.20 173.94 C 227.03 169.02 228.45 164.08 229.62 159.33 C 231.24 153.39 233.61 147.10 238.90 143.48 C 245.88 138.88 256.35 139.28 261.83 146.09 C 267.17 141.03 275.34 138.90 282.30 141.61 C 287.03 143.36 289.58 148.06 291.89 152.23 C 295.42 159.36 298.63 167.10 298.19 175.21 C 297.41 176.27 296.55 177.24 295.60 178.15 C 293.93 176.70 292.31 175.23 290.70 173.72 C 291.38 178.43 291.99 183.19 291.63 187.96 C 291.76 189.45 290.68 190.60 289.53 191.38 C 289.62 198.65 288.06 205.80 287.92 213.05 C 288.59 214.96 289.23 216.89 289.90 218.80 C 302.18 213.91 318.27 224.44 317.39 238.00 C 316.73 247.94 310.81 257.55 313.90 267.63 C 318.60 268.96 323.50 271.66 324.22 277.00 C 326.78 284.69 322.86 292.16 318.65 298.38 C 316.94 300.48 316.14 304.95 312.60 303.69 C 310.28 298.70 309.66 293.02 306.59 288.35 C 304.80 284.77 301.68 280.96 303.21 276.75 C 304.90 272.21 301.95 267.62 303.04 263.02 C 304.00 253.78 309.15 245.25 308.53 235.82 C 308.05 233.28 306.60 230.38 303.91 229.65 C 301.66 228.99 299.31 228.68 297.01 228.29 C 300.05 238.80 301.22 250.50 297.39 260.97 C 296.16 264.54 293.92 267.64 292.55 271.15 C 291.88 276.87 293.12 282.74 291.61 288.37 C 294.23 291.84 297.36 295.41 297.53 300.00 C 297.48 303.49 295.07 306.07 293.27 308.81 C 292.50 314.48 293.78 320.13 293.88 325.81 C 293.88 330.27 296.60 334.06 297.70 338.27 C 298.71 342.09 300.00 346.00 299.66 350.01 C 294.93 351.43 289.95 351.41 285.06 351.31 C 280.07 351.10 275.14 352.24 270.14 352.08 C 262.73 351.72 255.36 353.61 247.95 352.62 C 245.80 351.74 245.65 349.07 244.96 347.17 C 242.56 347.09 240.38 346.22 238.50 344.74 C 238.78 342.28 238.47 339.42 240.35 337.50 C 242.33 335.10 245.37 334.08 248.11 332.83 C 251.00 331.59 253.64 329.84 256.57 328.70 C 262.42 326.29 268.78 325.64 274.82 323.88 C 274.95 316.80 273.52 309.79 273.98 302.70 C 271.23 300.36 267.65 298.09 267.34 294.11 C 266.63 290.72 269.39 288.16 270.18 285.09 C 270.37 283.33 270.36 281.55 270.42 279.78 C 266.66 278.75 263.31 275.35 259.18 276.57 C 253.53 277.70 247.77 278.14 242.03 278.51 C 237.27 278.30 232.54 277.61 227.83 276.95 C 227.76 281.64 226.47 286.29 227.07 290.99 C 229.21 294.05 232.59 296.83 232.17 300.98 C 232.83 304.52 231.01 307.60 228.47 309.89 C 228.53 318.63 227.44 327.93 231.43 336.05 C 233.49 340.53 233.97 345.47 234.96 350.25 C 234.75 350.87 234.33 352.11 234.12 352.74 C 226.40 353.08 218.72 353.73 210.99 353.63 C 203.98 354.76 196.85 353.75 189.83 354.74 C 187.62 354.97 185.39 354.98 183.17 355.02 C 182.55 354.41 181.30 353.18 180.68 352.57 C 180.67 351.16 180.67 349.76 180.67 348.37 C 178.98 348.38 177.28 348.39 175.59 348.41 C 174.73 347.14 173.89 345.87 173.07 344.58 C 173.36 343.73 173.94 342.03 174.23 341.17 C 178.40 335.68 185.43 334.36 191.12 331.04 C 196.99 328.18 203.73 328.07 209.77 325.72 C 209.29 319.81 209.25 313.88 209.29 307.96 C 209.51 302.76 202.27 301.17 202.63 295.92 C 202.17 292.72 203.85 289.88 205.62 287.39 C 205.89 280.46 204.50 273.61 204.85 266.68 C 201.10 262.73 200.13 257.34 199.61 252.13 C 186.27 250.99 173.31 243.62 167.06 231.52 C 163.41 224.20 160.40 215.32 163.71 207.32 C 161.24 209.08 158.63 210.62 155.95 212.03 C 151.89 222.98 147.27 234.54 137.94 242.10 C 132.70 246.33 124.78 246.76 119.36 242.63 C 107.16 234.07 100.45 218.34 102.22 203.60 C 103.82 195.76 108.05 188.63 113.02 182.45 C 112.76 181.86 112.24 180.69 111.99 180.10 C 113.89 176.81 116.20 173.68 119.30 171.42 C 122.68 168.90 127.20 168.96 130.73 166.73 C 132.58 165.54 134.26 164.10 135.96 162.71 C 133.02 160.80 129.88 158.97 127.83 156.03 C 125.92 153.59 125.35 150.48 124.54 147.57 C 115.24 149.36 106.13 144.83 99.52 138.58 C 94.68 134.04 91.38 127.69 91.24 120.97 C 90.70 112.50 93.21 104.19 96.68 96.55 C 101.38 83.99 115.37 76.04 128.55 78.28 C 130.86 67.68 135.56 57.05 144.33 50.25 M 137.97 59.08 C 131.49 67.81 130.05 78.86 127.48 89.13 C 145.71 95.57 164.82 99.28 184.01 101.35 C 187.48 101.98 190.59 100.09 193.67 98.81 C 199.04 96.41 204.76 94.87 210.56 94.01 C 212.35 81.90 211.66 68.63 204.96 58.04 C 198.26 53.53 189.54 54.99 181.93 55.72 C 174.06 56.29 166.43 58.37 158.71 59.87 C 162.57 58.42 166.54 57.27 170.50 56.10 C 164.49 53.89 159.82 47.96 152.97 48.45 C 146.35 48.65 141.59 54.11 137.97 59.08 M 106.40 85.42 C 100.45 90.03 97.50 97.26 95.08 104.16 C 92.33 112.41 91.00 121.91 94.81 130.04 C 98.60 137.49 105.71 143.03 113.60 145.59 C 120.80 147.79 129.42 146.42 134.85 140.97 C 143.41 132.98 152.63 125.76 161.38 118.00 C 149.76 116.39 138.07 114.28 127.25 109.57 C 124.98 108.73 122.62 107.25 120.12 108.01 C 114.90 109.22 109.99 111.41 104.87 112.94 C 110.49 110.07 116.48 108.02 122.54 106.27 C 122.58 103.33 122.34 100.38 122.68 97.45 C 123.29 91.03 128.27 86.08 128.66 79.58 C 120.84 78.55 112.58 80.39 106.40 85.42 M 126.06 90.13 C 125.03 93.67 124.02 97.24 123.48 100.90 C 137.23 107.79 152.51 111.15 167.68 112.99 C 173.27 109.66 178.54 105.79 184.33 102.76 C 164.53 100.82 144.80 96.90 126.06 90.13 M 191.12 100.96 C 171.49 110.19 154.87 124.44 138.70 138.65 C 137.23 139.98 135.88 141.43 134.53 142.89 C 142.43 141.62 149.95 138.77 157.71 136.87 C 173.19 132.54 188.94 129.31 204.89 127.29 C 205.79 128.25 206.43 129.83 208.00 129.80 C 216.21 130.92 224.70 131.03 232.81 129.11 C 235.06 128.46 238.13 127.80 238.44 124.99 C 239.27 118.82 237.42 112.65 235.28 106.93 C 233.45 102.64 231.13 97.66 226.23 96.30 C 214.51 92.69 201.93 95.99 191.12 100.96 M 123.70 102.99 C 123.60 104.01 123.40 106.04 123.30 107.05 C 135.38 112.18 148.22 115.70 161.32 116.77 C 163.26 117.20 164.61 115.86 165.78 114.53 C 151.39 112.19 137.10 108.87 123.70 102.99 M 192.30 130.21 C 191.40 134.50 190.99 139.39 193.77 143.11 C 195.91 146.36 200.33 146.88 203.77 145.68 C 210.46 143.49 216.15 138.11 218.14 131.27 C 217.51 131.45 216.25 131.80 215.62 131.97 C 211.27 131.22 206.88 130.80 202.52 130.11 C 199.11 130.11 195.71 130.11 192.30 130.21 M 183.38 131.67 C 184.68 136.28 186.12 141.11 184.94 145.91 C 183.46 154.45 175.92 162.09 166.94 161.90 C 160.23 162.32 154.44 158.08 150.40 153.11 C 143.66 157.31 139.12 164.10 132.55 168.51 C 128.38 171.40 122.71 171.23 118.99 174.90 C 116.45 176.89 114.19 179.91 115.91 183.21 C 111.32 187.89 108.15 193.75 105.84 199.83 C 102.59 208.76 105.10 218.64 109.13 226.89 C 112.58 233.37 117.38 239.97 124.64 242.38 C 129.85 243.95 135.37 241.74 138.96 237.88 C 146.38 230.16 150.45 219.98 153.99 210.06 C 156.87 208.68 159.92 207.45 162.30 205.25 C 164.31 203.14 165.16 200.12 167.61 198.39 C 166.88 204.61 164.52 210.66 165.16 217.00 C 166.21 227.72 172.51 237.75 181.57 243.54 C 187.61 247.76 195.01 248.81 202.11 249.84 C 202.94 253.95 202.53 258.44 204.68 262.20 C 206.80 265.85 211.24 266.97 214.09 269.87 C 214.78 275.21 214.34 280.64 214.84 286.00 C 214.92 289.30 215.86 292.95 214.00 295.96 C 212.86 298.06 211.57 300.35 212.23 302.85 C 212.87 306.86 218.76 307.64 218.50 311.98 C 218.86 317.96 219.12 323.96 219.30 329.96 C 219.20 331.39 219.64 333.20 218.22 334.15 C 214.10 335.90 209.54 336.16 205.26 337.34 C 198.97 338.66 193.53 342.19 187.70 344.70 C 184.63 345.98 182.68 348.96 183.27 352.31 C 199.59 351.87 215.88 350.80 232.20 350.39 C 231.66 346.39 231.11 342.34 229.61 338.57 C 228.35 335.11 226.43 331.77 226.34 328.00 C 226.13 322.32 225.73 316.63 225.91 310.95 C 225.72 307.69 229.77 306.26 229.78 303.02 C 230.47 298.83 227.79 295.31 224.68 292.90 C 224.57 286.63 224.61 280.33 225.38 274.10 C 228.20 274.34 230.99 274.80 233.80 275.18 C 243.54 276.41 253.36 275.15 262.95 273.39 C 267.70 276.98 273.60 277.87 279.40 277.46 C 279.66 281.64 279.86 285.83 279.86 290.02 C 280.21 294.14 275.15 297.37 277.28 301.54 C 278.49 304.98 283.66 305.87 283.39 309.94 C 283.66 317.14 284.01 324.33 284.33 331.53 C 277.04 334.80 268.59 334.51 261.57 338.54 C 257.98 340.83 253.67 341.74 250.25 344.28 C 248.43 345.55 248.24 347.87 247.74 349.84 C 264.21 350.28 280.63 348.61 297.09 348.29 C 296.57 341.98 294.38 336.04 292.02 330.23 C 290.40 323.29 290.90 316.05 290.84 308.97 C 290.67 305.42 295.24 303.71 294.72 300.01 C 295.01 296.13 292.29 293.08 289.47 290.82 C 289.39 284.54 289.52 278.25 290.01 271.99 C 290.04 268.49 292.55 265.83 293.89 262.78 C 298.05 254.02 297.59 243.97 296.10 234.64 C 295.10 229.26 291.90 224.70 288.41 220.64 C 285.78 217.80 285.62 213.71 285.58 210.05 C 285.69 207.32 285.32 204.16 287.51 202.08 C 288.27 197.41 288.63 192.65 288.45 187.92 C 287.09 183.27 285.24 178.60 282.19 174.77 C 281.13 180.52 280.14 186.39 277.36 191.61 C 274.69 187.04 275.65 181.62 275.13 176.60 C 272.12 180.32 270.81 185.07 267.84 188.82 C 267.36 184.42 267.28 179.98 267.32 175.56 C 266.59 175.59 265.14 175.65 264.42 175.69 C 263.96 180.89 267.30 187.16 262.86 191.33 C 262.20 195.39 262.34 199.53 261.91 203.62 C 260.81 198.44 261.96 193.22 262.21 188.04 C 261.08 183.27 258.73 178.85 256.13 174.73 C 254.71 180.54 253.96 186.64 250.88 191.89 C 248.84 186.93 249.27 181.49 248.52 176.28 C 246.19 180.40 244.38 184.81 241.80 188.81 C 241.31 184.11 241.02 179.39 240.49 174.70 C 238.23 177.31 235.94 180.24 235.70 183.83 C 235.42 187.64 235.84 191.51 234.91 195.26 C 233.78 199.86 233.09 205.01 229.35 208.34 C 224.28 213.40 219.01 218.27 214.00 223.40 C 209.94 221.58 205.64 220.27 201.69 218.21 C 197.92 216.25 195.41 212.23 195.27 207.99 C 193.96 188.06 202.17 167.94 196.11 148.27 C 194.25 146.74 192.12 145.33 190.99 143.13 C 189.71 140.49 189.56 137.46 188.36 134.80 C 186.85 133.52 185.09 132.62 183.38 131.67 M 149.49 140.55 C 149.16 149.49 155.70 158.56 164.86 159.53 C 171.65 160.50 178.30 156.18 181.10 150.11 C 183.87 144.61 183.29 138.04 180.93 132.51 C 170.31 134.62 159.91 137.67 149.49 140.55 M 126.96 146.75 C 127.70 153.09 132.05 158.59 138.14 160.57 C 141.62 157.23 145.06 153.81 149.12 151.16 C 147.80 148.01 147.21 144.65 146.74 141.29 C 140.15 143.11 133.63 145.20 126.96 146.75 M 236.73 148.75 C 231.98 154.79 230.53 162.64 229.38 170.04 C 233.22 166.59 236.30 162.35 240.51 159.31 C 237.87 166.02 234.58 172.64 234.56 180.04 C 236.80 176.83 238.91 173.53 241.39 170.50 C 241.91 175.14 242.20 179.80 242.59 184.46 C 244.88 180.55 246.48 176.29 248.71 172.35 C 250.28 177.54 249.87 183.06 251.28 188.29 C 253.45 183.09 253.72 177.36 255.74 172.14 C 255.95 172.08 256.35 171.97 256.56 171.92 C 259.44 176.27 260.63 181.53 263.83 185.72 C 263.79 179.64 262.35 173.69 262.15 167.63 C 264.64 170.28 267.03 173.04 269.90 175.31 C 270.29 167.48 267.86 159.82 264.07 153.06 C 262.00 149.57 259.61 145.76 255.64 144.25 C 249.21 142.17 241.15 143.22 236.73 148.75 M 262.78 147.91 C 266.91 156.07 270.52 164.74 271.01 173.99 C 270.77 175.70 269.22 176.74 268.15 177.92 C 268.26 180.25 268.50 182.57 268.88 184.88 C 271.34 181.16 272.96 177.00 274.65 172.90 C 276.54 178.08 276.35 183.63 276.79 189.04 C 280.69 184.04 280.35 177.37 282.31 171.59 C 285.69 176.66 287.06 182.79 290.76 187.67 C 290.87 181.02 288.96 174.56 288.65 167.95 C 290.92 170.78 293.33 173.53 296.28 175.69 C 297.45 168.04 294.26 160.76 291.09 154.01 C 288.50 148.93 284.44 143.24 278.10 143.26 C 272.52 142.42 267.06 144.38 262.78 147.91 M 264.08 173.26 C 262.69 176.32 267.43 173.23 264.08 173.26 M 291.85 220.75 C 292.93 222.38 294.04 224.01 295.15 225.63 C 299.12 226.04 303.44 225.87 306.93 228.08 C 309.92 229.96 311.26 233.58 311.36 236.98 C 311.69 248.87 303.42 259.78 306.42 271.78 C 308.14 270.92 309.86 270.07 311.59 269.22 C 307.61 258.76 313.64 248.46 314.42 238.06 C 315.56 226.44 302.26 218.47 291.85 220.75 M 208.01 268.58 C 208.05 273.39 208.23 278.21 208.43 283.02 C 208.45 285.20 208.66 287.54 207.55 289.53 C 206.66 291.77 204.83 293.99 205.55 296.54 C 206.12 298.50 207.79 299.86 209.08 301.37 C 210.56 297.72 212.19 294.00 212.08 289.98 C 212.02 283.53 211.89 277.08 211.69 270.63 C 210.46 269.95 209.23 269.26 208.01 268.58 M 312.76 271.62 C 310.46 272.47 308.03 273.52 306.45 275.47 C 304.38 279.14 306.81 283.11 308.64 286.31 C 311.27 290.60 312.75 295.43 314.30 300.19 C 316.24 296.81 318.41 293.56 320.23 290.11 C 322.30 286.25 322.06 281.64 321.40 277.45 C 320.90 273.59 316.63 270.08 312.76 271.62 M 273.37 280.09 C 273.30 282.04 273.39 284.01 273.01 285.94 C 272.27 288.37 270.53 290.47 270.25 293.04 C 270.07 295.72 272.37 297.50 273.98 299.30 C 277.20 293.36 277.30 286.62 276.87 280.06 C 275.70 280.06 274.53 280.07 273.37 280.09 M 276.84 305.71 C 277.05 312.43 278.01 319.21 277.16 325.91 C 272.88 327.95 268.06 328.28 263.53 329.49 C 257.22 330.85 251.85 334.59 245.92 336.95 C 242.92 337.95 241.57 340.84 240.91 343.70 C 243.45 343.65 246.26 344.11 248.47 342.54 C 252.49 340.07 256.87 338.30 261.04 336.12 C 267.44 332.85 274.67 331.91 281.61 330.36 C 281.52 323.03 281.41 315.69 280.67 308.38 C 279.39 307.49 278.11 306.60 276.84 305.71 M 212.12 307.74 C 212.33 314.55 212.58 321.36 212.50 328.17 C 207.68 329.61 202.75 330.56 197.86 331.74 C 192.33 332.98 187.62 336.31 182.39 338.35 C 179.41 339.49 176.06 341.81 176.39 345.42 C 178.33 345.68 180.30 345.67 182.26 345.66 C 186.26 342.20 191.32 340.47 195.96 338.07 C 202.44 334.88 209.69 333.96 216.68 332.43 C 216.67 325.09 216.64 317.73 215.85 310.42 C 214.61 309.53 213.36 308.63 212.12 307.74 Z" />
<path fill="#020201" opacity="1.00" d=" M 157.41 141.41 C 161.69 138.96 167.06 144.36 164.70 148.63 C 163.30 152.33 157.56 152.86 155.40 149.59 C 153.20 147.05 154.37 142.71 157.41 141.41 Z" />
<path fill="#020201" opacity="1.00" d=" M 139.32 144.17 C 142.87 141.52 147.82 145.98 146.17 149.83 C 145.16 153.06 140.45 154.00 138.29 151.42 C 136.11 149.36 136.71 145.55 139.32 144.17 Z" />
</g>
<g id="#1aad06ff">
<path fill="#1aad06" opacity="1.00" d=" M 137.97 59.08 C 141.59 54.11 146.35 48.65 152.97 48.45 C 159.82 47.96 164.49 53.89 170.50 56.10 C 166.54 57.27 162.57 58.42 158.71 59.87 C 166.43 58.37 174.06 56.29 181.93 55.72 C 189.54 54.99 198.26 53.53 204.96 58.04 C 211.66 68.63 212.35 81.90 210.56 94.01 C 204.76 94.87 199.04 96.41 193.67 98.81 C 190.59 100.09 187.48 101.98 184.01 101.35 C 164.82 99.28 145.71 95.57 127.48 89.13 C 130.05 78.86 131.49 67.81 137.97 59.08 Z" />
<path fill="#1aad06" opacity="1.00" d=" M 106.40 85.42 C 112.58 80.39 120.84 78.55 128.66 79.58 C 128.27 86.08 123.29 91.03 122.68 97.45 C 122.34 100.38 122.58 103.33 122.54 106.27 C 116.48 108.02 110.49 110.07 104.87 112.94 C 109.99 111.41 114.90 109.22 120.12 108.01 C 122.62 107.25 124.98 108.73 127.25 109.57 C 138.07 114.28 149.76 116.39 161.38 118.00 C 152.63 125.76 143.41 132.98 134.85 140.97 C 129.42 146.42 120.80 147.79 113.60 145.59 C 105.71 143.03 98.60 137.49 94.81 130.04 C 91.00 121.91 92.33 112.41 95.08 104.16 C 97.50 97.26 100.45 90.03 106.40 85.42 Z" />
<path fill="#1aad06" opacity="1.00" d=" M 191.12 100.96 C 201.93 95.99 214.51 92.69 226.23 96.30 C 231.13 97.66 233.45 102.64 235.28 106.93 C 237.42 112.65 239.27 118.82 238.44 124.99 C 238.13 127.80 235.06 128.46 232.81 129.11 C 224.70 131.03 216.21 130.92 208.00 129.80 C 206.43 129.83 205.79 128.25 204.89 127.29 C 188.94 129.31 173.19 132.54 157.71 136.87 C 149.95 138.77 142.43 141.62 134.53 142.89 C 135.88 141.43 137.23 139.98 138.70 138.65 C 154.87 124.44 171.49 110.19 191.12 100.96 Z" />
<path fill="#1aad06" opacity="1.00" d=" M 123.70 102.99 C 137.10 108.87 151.39 112.19 165.78 114.53 C 164.61 115.86 163.26 117.20 161.32 116.77 C 148.22 115.70 135.38 112.18 123.30 107.05 C 123.40 106.04 123.60 104.01 123.70 102.99 Z" />
</g>
<g id="#f6ddbcff">
<path fill="#f6ddbc" opacity="1.00" d=" M 126.06 90.13 C 144.80 96.90 164.53 100.82 184.33 102.76 C 178.54 105.79 173.27 109.66 167.68 112.99 C 152.51 111.15 137.23 107.79 123.48 100.90 C 124.02 97.24 125.03 93.67 126.06 90.13 Z" />
</g>
<g id="#9e846aff">
<path fill="#9e846a" opacity="1.00" d=" M 192.30 130.21 C 195.71 130.11 199.11 130.11 202.52 130.11 C 200.21 133.47 196.80 137.03 197.54 141.45 C 198.12 144.59 202.07 144.25 204.29 143.23 C 209.64 141.40 212.53 136.31 215.62 131.97 C 216.25 131.80 217.51 131.45 218.14 131.27 C 216.15 138.11 210.46 143.49 203.77 145.68 C 200.33 146.88 195.91 146.36 193.77 143.11 C 190.99 139.39 191.40 134.50 192.30 130.21 Z" />
<path fill="#9e846a" opacity="1.00" d=" M 183.38 131.67 C 185.09 132.62 186.85 133.52 188.36 134.80 C 189.56 137.46 189.71 140.49 190.99 143.13 C 192.12 145.33 194.25 146.74 196.11 148.27 C 202.17 167.94 193.96 188.06 195.27 207.99 C 195.41 212.23 197.92 216.25 201.69 218.21 C 205.64 220.27 209.94 221.58 214.00 223.40 C 219.01 218.27 224.28 213.40 229.35 208.34 C 233.09 205.01 233.78 199.86 234.91 195.26 C 235.84 191.51 235.42 187.64 235.70 183.83 C 235.94 180.24 238.23 177.31 240.49 174.70 C 241.02 179.39 241.31 184.11 241.80 188.81 C 244.38 184.81 246.19 180.40 248.52 176.28 C 249.27 181.49 248.84 186.93 250.88 191.89 C 253.96 186.64 254.71 180.54 256.13 174.73 C 258.73 178.85 261.08 183.27 262.21 188.04 C 261.96 193.22 260.81 198.44 261.91 203.62 C 262.34 199.53 262.20 195.39 262.86 191.33 C 267.30 187.16 263.96 180.89 264.42 175.69 C 265.14 175.65 266.59 175.59 267.32 175.56 C 267.28 179.98 267.36 184.42 267.84 188.82 C 270.81 185.07 272.12 180.32 275.13 176.60 C 275.65 181.62 274.69 187.04 277.36 191.61 C 280.14 186.39 281.13 180.52 282.19 174.77 C 285.24 178.60 287.09 183.27 288.45 187.92 C 288.63 192.65 288.27 197.41 287.51 202.08 C 285.32 204.16 285.69 207.32 285.58 210.05 C 285.62 213.71 285.78 217.80 288.41 220.64 C 291.90 224.70 295.10 229.26 296.10 234.64 C 297.59 243.97 298.05 254.02 293.89 262.78 C 292.55 265.83 290.04 268.49 290.01 271.99 C 289.52 278.25 289.39 284.54 289.47 290.82 C 292.29 293.08 295.01 296.13 294.72 300.01 C 295.24 303.71 290.67 305.42 290.84 308.97 C 290.90 316.05 290.40 323.29 292.02 330.23 C 294.38 336.04 296.57 341.98 297.09 348.29 C 280.63 348.61 264.21 350.28 247.74 349.84 C 248.24 347.87 248.43 345.55 250.25 344.28 C 253.67 341.74 257.98 340.83 261.57 338.54 C 268.59 334.51 277.04 334.80 284.33 331.53 C 284.01 324.33 283.66 317.14 283.39 309.94 C 283.66 305.87 278.49 304.98 277.28 301.54 C 275.15 297.37 280.21 294.14 279.86 290.02 C 279.86 285.83 279.66 281.64 279.40 277.46 C 273.60 277.87 267.70 276.98 262.95 273.39 C 253.36 275.15 243.54 276.41 233.80 275.18 C 230.99 274.80 228.20 274.34 225.38 274.10 C 224.61 280.33 224.57 286.63 224.68 292.90 C 227.79 295.31 230.47 298.83 229.78 303.02 C 229.77 306.26 225.72 307.69 225.91 310.95 C 225.73 316.63 226.13 322.32 226.34 328.00 C 226.43 331.77 228.35 335.11 229.61 338.57 C 231.11 342.34 231.66 346.39 232.20 350.39 C 215.88 350.80 199.59 351.87 183.27 352.31 C 182.68 348.96 184.63 345.98 187.70 344.70 C 193.53 342.19 198.97 338.66 205.26 337.34 C 209.54 336.16 214.10 335.90 218.22 334.15 C 219.64 333.20 219.20 331.39 219.30 329.96 C 219.12 323.96 218.86 317.96 218.50 311.98 C 218.76 307.64 212.87 306.86 212.23 302.85 C 211.57 300.35 212.86 298.06 214.00 295.96 C 215.86 292.95 214.92 289.30 214.84 286.00 C 214.34 280.64 214.78 275.21 214.09 269.87 C 211.24 266.97 206.80 265.85 204.68 262.20 C 202.53 258.44 202.94 253.95 202.11 249.84 C 195.01 248.81 187.61 247.76 181.57 243.54 C 172.51 237.75 166.21 227.72 165.16 217.00 C 164.52 210.66 166.88 204.61 167.61 198.39 C 165.16 200.12 164.31 203.14 162.30 205.25 C 159.92 207.45 156.87 208.68 153.99 210.06 C 150.45 219.98 146.38 230.16 138.96 237.88 C 135.37 241.74 129.85 243.95 124.64 242.38 C 117.38 239.97 112.58 233.37 109.13 226.89 C 105.10 218.64 102.59 208.76 105.84 199.83 C 108.15 193.75 111.32 187.89 115.91 183.21 C 114.19 179.91 116.45 176.89 118.99 174.90 C 122.71 171.23 128.38 171.40 132.55 168.51 C 139.12 164.10 143.66 157.31 150.40 153.11 C 154.44 158.08 160.23 162.32 166.94 161.90 C 175.92 162.09 183.46 154.45 184.94 145.91 C 186.12 141.11 184.68 136.28 183.38 131.67 M 121.43 191.08 C 123.02 193.65 124.95 196.00 127.18 198.04 C 126.34 194.96 124.49 192.28 121.43 191.08 M 113.59 211.11 C 118.57 208.37 119.87 202.54 120.18 197.32 C 115.12 199.91 113.30 205.75 113.59 211.11 Z" />
<path fill="#9e846a" opacity="1.00" d=" M 291.85 220.75 C 302.26 218.47 315.56 226.44 314.42 238.06 C 313.64 248.46 307.61 258.76 311.59 269.22 C 309.86 270.07 308.14 270.92 306.42 271.78 C 303.42 259.78 311.69 248.87 311.36 236.98 C 311.26 233.58 309.92 229.96 306.93 228.08 C 303.44 225.87 299.12 226.04 295.15 225.63 C 294.04 224.01 292.93 222.38 291.85 220.75 Z" />
</g>
<g id="#754d2cff">
<path fill="#754d2c" opacity="1.00" d=" M 202.52 130.11 C 206.88 130.80 211.27 131.22 215.62 131.97 C 212.53 136.31 209.64 141.40 204.29 143.23 C 202.07 144.25 198.12 144.59 197.54 141.45 C 196.80 137.03 200.21 133.47 202.52 130.11 Z" />
<path fill="#754d2c" opacity="1.00" d=" M 236.73 148.75 C 241.15 143.22 249.21 142.17 255.64 144.25 C 259.61 145.76 262.00 149.57 264.07 153.06 C 267.86 159.82 270.29 167.48 269.90 175.31 C 267.03 173.04 264.64 170.28 262.15 167.63 C 262.35 173.69 263.79 179.64 263.83 185.72 C 260.63 181.53 259.44 176.27 256.56 171.92 C 256.35 171.97 255.95 172.08 255.74 172.14 C 253.72 177.36 253.45 183.09 251.28 188.29 C 249.87 183.06 250.28 177.54 248.71 172.35 C 246.48 176.29 244.88 180.55 242.59 184.46 C 242.20 179.80 241.91 175.14 241.39 170.50 C 238.91 173.53 236.80 176.83 234.56 180.04 C 234.58 172.64 237.87 166.02 240.51 159.31 C 236.30 162.35 233.22 166.59 229.38 170.04 C 230.53 162.64 231.98 154.79 236.73 148.75 Z" />
<path fill="#754d2c" opacity="1.00" d=" M 262.78 147.91 C 267.06 144.38 272.52 142.42 278.10 143.26 C 284.44 143.24 288.50 148.93 291.09 154.01 C 294.26 160.76 297.45 168.04 296.28 175.69 C 293.33 173.53 290.92 170.78 288.65 167.95 C 288.96 174.56 290.87 181.02 290.76 187.67 C 287.06 182.79 285.69 176.66 282.31 171.59 C 280.35 177.37 280.69 184.04 276.79 189.04 C 276.35 183.63 276.54 178.08 274.65 172.90 C 272.96 177.00 271.34 181.16 268.88 184.88 C 268.50 182.57 268.26 180.25 268.15 177.92 C 269.22 176.74 270.77 175.70 271.01 173.99 C 270.52 164.74 266.91 156.07 262.78 147.91 Z" />
<path fill="#754d2c" opacity="1.00" d=" M 264.08 173.26 C 267.43 173.23 262.69 176.32 264.08 173.26 Z" />
<path fill="#754d2c" opacity="1.00" d=" M 121.43 191.08 C 124.49 192.28 126.34 194.96 127.18 198.04 C 124.95 196.00 123.02 193.65 121.43 191.08 Z" />
<path fill="#754d2c" opacity="1.00" d=" M 113.59 211.11 C 113.30 205.75 115.12 199.91 120.18 197.32 C 119.87 202.54 118.57 208.37 113.59 211.11 Z" />
<path fill="#754d2c" opacity="1.00" d=" M 208.01 268.58 C 209.23 269.26 210.46 269.95 211.69 270.63 C 211.89 277.08 212.02 283.53 212.08 289.98 C 212.19 294.00 210.56 297.72 209.08 301.37 C 207.79 299.86 206.12 298.50 205.55 296.54 C 204.83 293.99 206.66 291.77 207.55 289.53 C 208.66 287.54 208.45 285.20 208.43 283.02 C 208.23 278.21 208.05 273.39 208.01 268.58 Z" />
<path fill="#754d2c" opacity="1.00" d=" M 312.76 271.62 C 316.63 270.08 320.90 273.59 321.40 277.45 C 322.06 281.64 322.30 286.25 320.23 290.11 C 318.41 293.56 316.24 296.81 314.30 300.19 C 312.75 295.43 311.27 290.60 308.64 286.31 C 306.81 283.11 304.38 279.14 306.45 275.47 C 308.03 273.52 310.46 272.47 312.76 271.62 Z" />
<path fill="#754d2c" opacity="1.00" d=" M 273.37 280.09 C 274.53 280.07 275.70 280.06 276.87 280.06 C 277.30 286.62 277.20 293.36 273.98 299.30 C 272.37 297.50 270.07 295.72 270.25 293.04 C 270.53 290.47 272.27 288.37 273.01 285.94 C 273.39 284.01 273.30 282.04 273.37 280.09 Z" />
<path fill="#754d2c" opacity="1.00" d=" M 276.84 305.71 C 278.11 306.60 279.39 307.49 280.67 308.38 C 281.41 315.69 281.52 323.03 281.61 330.36 C 274.67 331.91 267.44 332.85 261.04 336.12 C 256.87 338.30 252.49 340.07 248.47 342.54 C 246.26 344.11 243.45 343.65 240.91 343.70 C 241.57 340.84 242.92 337.95 245.92 336.95 C 251.85 334.59 257.22 330.85 263.53 329.49 C 268.06 328.28 272.88 327.95 277.16 325.91 C 278.01 319.21 277.05 312.43 276.84 305.71 Z" />
<path fill="#754d2c" opacity="1.00" d=" M 212.12 307.74 C 213.36 308.63 214.61 309.53 215.85 310.42 C 216.64 317.73 216.67 325.09 216.68 332.43 C 209.69 333.96 202.44 334.88 195.96 338.07 C 191.32 340.47 186.26 342.20 182.26 345.66 C 180.30 345.67 178.33 345.68 176.39 345.42 C 176.06 341.81 179.41 339.49 182.39 338.35 C 187.62 336.31 192.33 332.98 197.86 331.74 C 202.75 330.56 207.68 329.61 212.50 328.17 C 212.58 321.36 212.33 314.55 212.12 307.74 Z" />
</g>
<g id="#fefefeff">
<path fill="#fefefe" opacity="1.00" d=" M 149.49 140.55 C 159.91 137.67 170.31 134.62 180.93 132.51 C 183.29 138.04 183.87 144.61 181.10 150.11 C 178.30 156.18 171.65 160.50 164.86 159.53 C 155.70 158.56 149.16 149.49 149.49 140.55 M 157.41 141.41 C 154.37 142.71 153.20 147.05 155.40 149.59 C 157.56 152.86 163.30 152.33 164.70 148.63 C 167.06 144.36 161.69 138.96 157.41 141.41 Z" />
<path fill="#fefefe" opacity="1.00" d=" M 126.96 146.75 C 133.63 145.20 140.15 143.11 146.74 141.29 C 147.21 144.65 147.80 148.01 149.12 151.16 C 145.06 153.81 141.62 157.23 138.14 160.57 C 132.05 158.59 127.70 153.09 126.96 146.75 M 139.32 144.17 C 136.71 145.55 136.11 149.36 138.29 151.42 C 140.45 154.00 145.16 153.06 146.17 149.83 C 147.82 145.98 142.87 141.52 139.32 144.17 Z" />
</g>
</svg>
